font.ufo
<glyph name="exclam" format="1">
  <advance width="253"/>
  <unicode hex="0021"/>
  <outline>
    <contour>
      <point x="153" y="229" type="line"/>
      <point x="162" y="722" type="line"/>
      <point x="93" y="722" type="line"/>
      <point x="101" y="229" type="line"/>
    </contour>
    <contour>
      <point x="167" y="27" type="curve"/>
      <point x="167" y="49"/>
      <point x="150" y="61"/>
      <point x="126" y="61" type="curve"/>
      <point x="103" y="61"/>
      <point x="88" y="48"/>
      <point x="88" y="27" type="curve"/>
      <point x="152" y="27"/>
      <point x="103" y="27"/>
      <point x="167" y="27" type="curve"/>
      <point x="167" y="4"/>
      <point x="150" y="-7"/>
      <point x="126" y="-7" type="curve"/>
      <point x="103" y="-7"/>
      <point x="88" y="5"/>
      <point x="88" y="27" type="curve"/>
      <point x="152" y="27"/>
      <point x="103" y="27"/>
    </contour>
  </outline>
</glyph>
<glyph name="quotedbl" format="1">
  <advance width="467"/>
  <unicode hex="0022"/>
  <outline>
    <contour>
      <point x="153" y="636" type="line"/>
      <point x="158" y="837" type="line"/>
      <point x="87" y="837" type="line"/>
      <point x="92" y="636" type="line"/>
    </contour>
    <contour>
      <point x="377" y="636" type="line"/>
      <point x="382" y="837" type="line"/>
      <point x="311" y="837" type="line"/>
      <point x="316" y="636" type="line"/>
    </contour>
  </outline>
</glyph>
<glyph name="numbersign" format="1">
  <advance width="831"/>
  <unicode hex="0023"/>
  <outline>
    <contour>
      <point x="49" y="238" type="line"/>
      <point x="672" y="238" type="line"/>
      <point x="690" y="287" type="line"/>
      <point x="68" y="287" type="line"/>
    </contour>
    <contour>
      <point x="138" y="473" type="line"/>
      <point x="764" y="473" type="line"/>
      <point x="782" y="521" type="line"/>
      <point x="157" y="521" type="line"/>
    </contour>
    <contour>
      <point x="495" y="39" type="line"/>
      <point x="771" y="722" type="line"/>
      <point x="709" y="722" type="line"/>
      <point x="433" y="39" type="line"/>
    </contour>
    <contour>
      <point x="145" y="46" type="line"/>
      <point x="417" y="722" type="line"/>
      <point x="355" y="722" type="line"/>
      <point x="86" y="46" type="line"/>
    </contour>
  </outline>
</glyph>
<glyph name="dollar" format="1">
  <advance width="682"/>
  <unicode hex="0024"/>
  <outline>
    <contour>
      <point x="114" y="97" type="curve"/>
      <point x="114" y="217"/>
      <point x="114" y="104"/>
      <point x="114" y="224" type="curve"/>
      <point x="64" y="224"/>
      <point x="114" y="224"/>
      <point x="64" y="224" type="curve"/>
      <point x="64" y="104"/>
      <point x="64" y="217"/>
      <point x="64" y="97" type="curve"/>
      <point x="114" y="97"/>
      <point x="64" y="97"/>
    </contour>
    <contour>
      <point x="547" y="632" type="curve"/>
      <point x="547" y="512"/>
      <point x="547" y="625"/>
      <point x="547" y="505" type="curve"/>
      <point x="597" y="505"/>
      <point x="547" y="505"/>
      <point x="597" y="505" type="curve"/>
      <point x="597" y="625"/>
      <point x="597" y="512"/>
      <point x="597" y="632" type="curve"/>
      <point x="547" y="632"/>
      <point x="597" y="632"/>
    </contour>
    <contour>
      <point x="352" y="-42" type="curve"/>
      <point x="352" y="-9"/>
      <point x="352" y="38"/>
      <point x="352" y="71" type="curve"/>
      <point x="290" y="71"/>
      <point x="352" y="71"/>
      <point x="290" y="71" type="curve"/>
      <point x="290" y="38"/>
      <point x="290" y="-9"/>
      <point x="290" y="-42" type="curve"/>
      <point x="352" y="-42"/>
      <point x="290" y="-42"/>
    </contour>
    <contour>
      <point x="367" y="659" type="curve"/>
      <point x="367" y="692"/>
      <point x="367" y="740"/>
      <point x="367" y="773" type="curve"/>
      <point x="306" y="773"/>
      <point x="367" y="773"/>
      <point x="306" y="773" type="curve"/>
      <point x="306" y="740"/>
      <point x="306" y="692"/>
      <point x="306" y="659" type="curve"/>
      <point x="367" y="659"/>
      <point x="306" y="659"/>
    </contour>
    <contour>
      <point x="64" y="97" type="curve"/>
      <point x="136" y="69"/>
      <point x="222" y="46"/>
      <point x="318" y="46" type="curve"/>
      <point x="482" y="46"/>
      <point x="625" y="77"/>
      <point x="625" y="205" type="curve"/>
      <point x="625" y="325"/>
      <point x="491" y="353"/>
      <point x="358" y="397" type="curve"/>
      <point x="250" y="432"/>
      <point x="150" y="451"/>
      <point x="150" y="536" type="curve"/>
      <point x="150" y="614"/>
      <point x="238" y="637"/>
      <point x="341" y="637" type="curve"/>
      <point x="427" y="637"/>
      <point x="489" y="623"/>
      <point x="565" y="592" type="curve"/>
      <point x="597" y="632"/>
      <point x="565" y="592"/>
      <point x="597" y="632" type="curve"/>
      <point x="510" y="667"/>
      <point x="441" y="684"/>
      <point x="345" y="684" type="curve"/>
      <point x="203" y="684"/>
      <point x="88" y="648"/>
      <point x="88" y="536" type="curve"/>
      <point x="88" y="422"/>
      <point x="195" y="393"/>
      <point x="321" y="353" type="curve"/>
      <point x="437" y="316"/>
      <point x="563" y="296"/>
      <point x="563" y="203" type="curve"/>
      <point x="563" y="112"/>
      <point x="451" y="94"/>
      <point x="324" y="94" type="curve"/>
      <point x="238" y="94"/>
      <point x="161" y="116"/>
      <point x="97" y="140" type="curve"/>
      <point x="64" y="96"/>
      <point x="97" y="140"/>
    </contour>
  </outline>
</glyph>
<glyph name="ampersand" format="1">
  <advance width="833"/>
  <unicode hex="0026"/>
  <outline>
    <contour>
      <point x="808" y="31" type="line"/>
      <point x="669" y="138"/>
      <point x="531" y="248"/>
      <point x="390" y="358" type="curve"/>
      <point x="312" y="423"/>
      <point x="212" y="464"/>
      <point x="212" y="569" type="curve"/>
      <point x="212" y="639"/>
      <point x="269" y="678"/>
      <point x="344" y="678" type="curve"/>
      <point x="427" y="678"/>
      <point x="495" y="646"/>
      <point x="495" y="571" type="curve"/>
      <point x="494" y="469"/>
      <point x="400" y="439"/>
      <point x="302" y="397" type="curve"/>
      <point x="182" y="344"/>
      <point x="64" y="310"/>
      <point x="64" y="184" type="curve"/>
      <point x="64" y="50"/>
      <point x="188" y="-5"/>
      <point x="337" y="-5" type="curve"/>
      <point x="551" y="-5"/>
      <point x="692" y="116"/>
      <point x="774" y="316" type="curve"/>
      <point x="720" y="328"/>
      <point x="774" y="316"/>
      <point x="720" y="328" type="curve"/>
      <point x="648" y="153"/>
      <point x="527" y="43"/>
      <point x="340" y="43" type="curve"/>
      <point x="224" y="43"/>
      <point x="126" y="80"/>
      <point x="126" y="184" type="curve"/>
      <point x="126" y="290"/>
      <point x="227" y="314"/>
      <point x="327" y="358" type="curve"/>
      <point x="443" y="410"/>
      <point x="555" y="448"/>
      <point x="556" y="571" type="curve"/>
      <point x="556" y="677"/>
      <point x="463" y="726"/>
      <point x="347" y="726" type="curve"/>
      <point x="236" y="726"/>
      <point x="151" y="672"/>
      <point x="151" y="569" type="curve"/>
      <point x="151" y="452"/>
      <point x="257" y="401"/>
      <point x="348" y="329" type="curve"/>
      <point x="485" y="221"/>
      <point x="641" y="99"/>
      <point x="776" y="-7" type="curve"/>
    </contour>
  </outline>
</glyph>
<glyph name="quotesingle" format="1">
  <advance width="243"/>
  <unicode hex="0027"/>
  <outline>
    <contour>
      <point x="153" y="636" type="line"/>
      <point x="158" y="837" type="line"/>
      <point x="87" y="837" type="line"/>
      <point x="92" y="636" type="line"/>
    </contour>
  </outline>
</glyph>
<glyph name="parenleft" format="1">
  <advance width="425"/>
  <unicode hex="0028"/>
  <outline>
    <contour>
      <point x="413" y="-226" type="curve"/>
      <point x="221" y="-76"/>
      <point x="119" y="81"/>
      <point x="119" y="326" type="curve"/>
      <point x="119" y="570"/>
      <point x="222" y="726"/>
      <point x="411" y="880" type="curve"/>
      <point x="375" y="911"/>
      <point x="411" y="880"/>
      <point x="375" y="911" type="curve"/>
      <point x="169" y="751"/>
      <point x="56" y="587"/>
      <point x="56" y="326" type="curve"/>
      <point x="56" y="65"/>
      <point x="170" y="-99"/>
      <point x="376" y="-260" type="curve"/>
      <point x="413" y="-226"/>
      <point x="376" y="-260"/>
    </contour>
  </outline>
</glyph>
<glyph name="asterisk" format="1">
  <advance width="710"/>
  <unicode hex="002A"/>
  <outline>
    <contour>
      <point x="375" y="630" type="line"/>
      <point x="379" y="831" type="line"/>
      <point x="322" y="831" type="line"/>
      <point x="327" y="630" type="line"/>
    </contour>
    <contour>
      <point x="439" y="556" type="line"/>
      <point x="632" y="617" type="line"/>
      <point x="612" y="670" type="line"/>
      <point x="424" y="602" type="line"/>
    </contour>
    <contour>
      <point x="390" y="473" type="line"/>
      <point x="509" y="311" type="line"/>
      <point x="553" y="346" type="line"/>
      <point x="428" y="503" type="line"/>
    </contour>
    <contour>
      <point x="295" y="496" type="line"/>
      <point x="170" y="339" type="line"/>
      <point x="214" y="304" type="line"/>
      <point x="333" y="466" type="line"/>
    </contour>
    <contour>
      <point x="286" y="591" type="line"/>
      <point x="98" y="659" type="line"/>
      <point x="79" y="607" type="line"/>
      <point x="271" y="546" type="line"/>
    </contour>
  </outline>
</glyph>
<glyph name="plus" format="1">
  <advance width="727"/>
  <unicode hex="002B"/>
  <outline>
    <contour>
      <point x="55" y="284" type="curve"/>
      <point x="672" y="284" type="line"/>
      <point x="672" y="337"/>
      <point x="672" y="284"/>
      <point x="672" y="337" type="curve"/>
      <point x="55" y="337" type="line"/>
      <point x="55" y="284"/>
      <point x="55" y="337"/>
    </contour>
    <contour>
      <point x="391" y="19" type="curve"/>
      <point x="391" y="588" type="line"/>
      <point x="329" y="588"/>
      <point x="394" y="588"/>
      <point x="331" y="588" type="curve"/>
      <point x="331" y="19" type="line"/>
      <point x="394" y="19"/>
      <point x="329" y="19"/>
    </contour>
  </outline>
</glyph>
<glyph name="comma" format="1">
  <advance width="243"/>
  <unicode hex="002C"/>
  <outline>
    <contour>
      <point x="55" y="-121" type="line"/>
      <point x="111" y="-102"/>
      <point x="155" y="-57"/>
      <point x="155" y="13" type="curve"/>
      <point x="155" y="51"/>
      <point x="140" y="82"/>
      <point x="107" y="82" type="curve"/>
      <point x="83" y="82"/>
      <point x="67" y="71"/>
      <point x="67" y="48" type="curve"/>
      <point x="67" y="26"/>
      <point x="82" y="15"/>
      <point x="105" y="11" type="curve"/>
      <point x="105" y="-21"/>
      <point x="91" y="-62"/>
      <point x="44" y="-84" type="curve"/>
    </contour>
  </outline>
</glyph>
<glyph name="hyphen" format="1">
  <advance width="544"/>
  <unicode hex="002D"/>
  <outline>
    <contour>
      <point x="87" y="249" type="curve"/>
      <point x="210" y="249"/>
      <point x="334" y="249"/>
      <point x="458" y="249" type="curve"/>
      <point x="458" y="302"/>
      <point x="458" y="249"/>
      <point x="458" y="302" type="curve"/>
      <point x="334" y="302"/>
      <point x="210" y="302"/>
      <point x="87" y="302" type="curve"/>
      <point x="87" y="249"/>
      <point x="87" y="302"/>
    </contour>
  </outline>
</glyph>
<glyph name="slash" format="1">
  <advance width="678"/>
  <unicode hex="002F"/>
  <outline>
    <contour>
      <point x="99" y="-51" type="curve"/>
      <point x="280" y="241"/>
      <point x="461" y="533"/>
      <point x="641" y="825" type="curve"/>
      <point x="579" y="825"/>
      <point x="641" y="825"/>
      <point x="579" y="825" type="curve"/>
      <point x="398" y="533"/>
      <point x="218" y="241"/>
      <point x="37" y="-51" type="curve"/>
      <point x="99" y="-51"/>
      <point x="37" y="-51"/>
    </contour>
  </outline>
</glyph>
<glyph name="zero" format="1">
  <advance width="880"/>
  <unicode hex="0030"/>
  <outline>
    <contour>
      <point x="132" y="360" type="curve"/>
      <point x="132" y="557"/>
      <point x="244" y="675"/>
      <point x="439" y="675" type="curve"/>
      <point x="634" y="675"/>
      <point x="748" y="557"/>
      <point x="748" y="362" type="curve"/>
      <point x="748" y="167"/>
      <point x="637" y="47"/>
      <point x="445" y="47" type="curve"/>
      <point x="249" y="47"/>
      <point x="132" y="164"/>
      <point x="132" y="360" type="curve"/>
      <point x="70" y="360"/>
      <point x="130" y="360"/>
      <point x="68" y="360" type="curve"/>
      <point x="68" y="130"/>
      <point x="210" y="-5"/>
      <point x="443" y="-5" type="curve"/>
      <point x="673" y="-5"/>
      <point x="812" y="132"/>
      <point x="812" y="363" type="curve"/>
      <point x="812" y="592"/>
      <point x="674" y="727"/>
      <point x="444" y="727" type="curve"/>
      <point x="210" y="727"/>
      <point x="68" y="592"/>
      <point x="68" y="360" type="curve"/>
      <point x="130" y="360"/>
      <point x="70" y="360"/>
    </contour>
  </outline>
</glyph>
<glyph name="one" format="1">
  <advance width="528"/>
  <unicode hex="0031"/>
  <outline>
    <contour>
      <point x="324" y="0" type="curve"/>
      <point x="381" y="0"/>
      <point x="437" y="0"/>
      <point x="495" y="0" type="curve"/>
      <point x="495" y="49"/>
      <point x="495" y="0"/>
      <point x="495" y="49" type="curve"/>
      <point x="324" y="49"/>
      <point x="495" y="49"/>
      <point x="324" y="49" type="curve"/>
      <point x="324" y="0"/>
      <point x="324" y="49"/>
    </contour>
    <contour>
      <point x="324" y="49" type="curve"/>
      <point x="153" y="49"/>
      <point x="324" y="49"/>
      <point x="153" y="49" type="curve"/>
      <point x="153" y="0"/>
      <point x="153" y="49"/>
      <point x="153" y="0" type="curve"/>
      <point x="210" y="0"/>
      <point x="266" y="0"/>
      <point x="324" y="0" type="curve"/>
      <point x="324" y="49"/>
      <point x="324" y="0"/>
    </contour>
    <contour>
      <point x="69" y="512" type="curve"/>
      <point x="338" y="688"/>
      <point x="69" y="512"/>
      <point x="338" y="688" type="curve"/>
      <point x="290" y="722"/>
      <point x="338" y="688"/>
      <point x="290" y="722" type="curve"/>
      <point x="40" y="556"/>
      <point x="290" y="722"/>
      <point x="40" y="556" type="curve"/>
      <point x="69" y="512"/>
      <point x="40" y="556"/>
    </contour>
    <contour>
      <point x="353" y="0" type="curve"/>
      <point x="353" y="241"/>
      <point x="353" y="481"/>
      <point x="353" y="722" type="curve"/>
      <point x="290" y="722"/>
      <point x="353" y="722"/>
      <point x="290" y="722" type="curve"/>
      <point x="290" y="481"/>
      <point x="290" y="241"/>
      <point x="290" y="0" type="curve"/>
      <point x="353" y="0"/>
      <point x="290" y="0"/>
    </contour>
  </outline>
</glyph>
<glyph name="three" format="1">
  <advance width="661"/>
  <unicode hex="0033"/>
  <outline>
    <contour>
      <point x="58" y="55" type="curve"/>
      <point x="131" y="17"/>
      <point x="203" y="-5"/>
      <point x="297" y="-5" type="curve"/>
      <point x="468" y="-5"/>
      <point x="596" y="42"/>
      <point x="596" y="203" type="curve"/>
      <point x="596" y="349"/>
      <point x="420" y="398"/>
      <point x="185" y="398" type="curve"/>
      <point x="185" y="357"/>
      <point x="185" y="397"/>
      <point x="185" y="356" type="curve"/>
      <point x="360" y="356"/>
      <point x="536" y="322"/>
      <point x="536" y="201" type="curve"/>
      <point x="536" y="75"/>
      <point x="419" y="49"/>
      <point x="299" y="49" type="curve"/>
      <point x="225" y="49"/>
      <point x="165" y="64"/>
      <point x="86" y="99" type="curve"/>
      <point x="58" y="55"/>
      <point x="86" y="99"/>
    </contour>
    <contour>
      <point x="98" y="604" type="curve"/>
      <point x="145" y="644"/>
      <point x="215" y="673"/>
      <point x="292" y="673" type="curve"/>
      <point x="406" y="673"/>
      <point x="495" y="647"/>
      <point x="495" y="546" type="curve"/>
      <point x="495" y="442"/>
      <point x="343" y="404"/>
      <point x="185" y="404" type="curve"/>
      <point x="185" y="364"/>
      <point x="185" y="404"/>
      <point x="185" y="363" type="curve"/>
      <point x="386" y="363"/>
      <point x="554" y="409"/>
      <point x="554" y="549" type="curve"/>
      <point x="554" y="680"/>
      <point x="443" y="727"/>
      <point x="297" y="727" type="curve"/>
      <point x="201" y="727"/>
      <point x="115" y="688"/>
      <point x="64" y="642" type="curve"/>
      <point x="98" y="604"/>
      <point x="64" y="642"/>
    </contour>
  </outline>
</glyph>
<glyph name="seven" format="1">
  <advance width="683"/>
  <unicode hex="0037"/>
  <outline>
    <contour>
      <point x="105" y="556" type="line"/>
      <point x="105" y="675" type="line"/>
      <point x="55" y="675" type="line"/>
      <point x="55" y="556" type="line"/>
    </contour>
    <contour>
      <point x="55" y="673" type="line"/>
      <point x="662" y="673" type="line"/>
      <point x="662" y="722" type="line"/>
      <point x="55" y="722" type="line"/>
    </contour>
    <contour>
      <point x="625" y="722" type="line"/>
      <point x="101" y="0" type="line"/>
      <point x="174" y="0" type="line"/>
      <point x="662" y="673" type="line"/>
    </contour>
  </outline>
</glyph>
<glyph name="eight" format="1">
  <advance width="687"/>
  <unicode hex="0038"/>
  <outline>
    <contour>
      <point x="92" y="554" type="curve"/>
      <point x="92" y="428"/>
      <point x="201" y="407"/>
      <point x="326" y="360" type="curve"/>
      <point x="447" y="314"/>
      <point x="557" y="294"/>
      <point x="557" y="177" type="curve"/>
      <point x="557" y="72"/>
      <point x="464" y="46"/>
      <point x="341" y="46" type="curve"/>
      <point x="220" y="46"/>
      <point x="130" y="73"/>
      <point x="130" y="177" type="curve"/>
      <point x="130" y="297"/>
      <point x="242" y="313"/>
      <point x="365" y="361" type="curve"/>
      <point x="485" y="409"/>
      <point x="595" y="428"/>
      <point x="595" y="552" type="curve"/>
      <point x="595" y="685"/>
      <point x="490" y="727"/>
      <point x="341" y="727" type="curve"/>
      <point x="198" y="727"/>
      <point x="92" y="683"/>
      <point x="92" y="554" type="curve"/>
      <point x="155" y="554"/>
      <point x="92" y="554"/>
      <point x="155" y="554" type="curve"/>
      <point x="155" y="646"/>
      <point x="234" y="676"/>
      <point x="339" y="676" type="curve"/>
      <point x="451" y="676"/>
      <point x="533" y="650"/>
      <point x="533" y="552" type="curve"/>
      <point x="533" y="449"/>
      <point x="432" y="435"/>
      <point x="325" y="396" type="curve"/>
      <point x="188" y="343"/>
      <point x="68" y="318"/>
      <point x="68" y="177" type="curve"/>
      <point x="68" y="39"/>
      <point x="182" y="-5"/>
      <point x="338" y="-5" type="curve"/>
      <point x="499" y="-5"/>
      <point x="619" y="35"/>
      <point x="619" y="177" type="curve"/>
      <point x="619" y="316"/>
      <point x="500" y="343"/>
      <point x="365" y="395" type="curve"/>
      <point x="256" y="438"/>
      <point x="155" y="450"/>
      <point x="155" y="554" type="curve"/>
      <point x="92" y="554"/>
      <point x="155" y="554"/>
    </contour>
  </outline>
</glyph>
<glyph name="nine" format="1">
  <advance width="717"/>
  <unicode hex="0039"/>
  <outline>
    <contour>
      <point x="604" y="493" type="curve"/>
      <point x="548" y="392"/>
      <point x="470" y="352"/>
      <point x="352" y="352" type="curve"/>
      <point x="226" y="352"/>
      <point x="134" y="400"/>
      <point x="134" y="515" type="curve"/>
      <point x="134" y="625"/>
      <point x="224" y="672"/>
      <point x="343" y="672" type="curve"/>
      <point x="489" y="672"/>
      <point x="594" y="610"/>
      <point x="594" y="475" type="curve"/>
      <point x="594" y="199"/>
      <point x="365" y="88"/>
      <point x="73" y="39" type="curve"/>
      <point x="86" y="-12"/>
      <point x="73" y="39"/>
      <point x="86" y="-12" type="curve"/>
      <point x="406" y="34"/>
      <point x="654" y="170"/>
      <point x="654" y="477" type="curve"/>
      <point x="654" y="646"/>
      <point x="527" y="729"/>
      <point x="346" y="729" type="curve"/>
      <point x="186" y="729"/>
      <point x="72" y="660"/>
      <point x="72" y="512" type="curve"/>
      <point x="72" y="365"/>
      <point x="188" y="300"/>
      <point x="347" y="300" type="curve"/>
      <point x="485" y="300"/>
      <point x="583" y="356"/>
      <point x="635" y="477" type="curve"/>
      <point x="604" y="493"/>
      <point x="635" y="477"/>
    </contour>
  </outline>
</glyph>
<glyph name="colon" format="1">
  <advance width="254"/>
  <unicode hex="003A"/>
  <outline>
    <contour>
      <point x="166" y="412" type="curve"/>
      <point x="166" y="435"/>
      <point x="149" y="447"/>
      <point x="126" y="447" type="curve"/>
      <point x="103" y="447"/>
      <point x="87" y="434"/>
      <point x="87" y="412" type="curve"/>
      <point x="151" y="412"/>
      <point x="102" y="412"/>
      <point x="166" y="412" type="curve"/>
      <point x="166" y="390"/>
      <point x="149" y="378"/>
      <point x="125" y="378" type="curve"/>
      <point x="103" y="378"/>
      <point x="87" y="391"/>
      <point x="87" y="412" type="curve"/>
      <point x="151" y="412"/>
      <point x="102" y="412"/>
    </contour>
    <contour>
      <point x="166" y="27" type="curve"/>
      <point x="166" y="50"/>
      <point x="149" y="61"/>
      <point x="125" y="61" type="curve"/>
      <point x="103" y="61"/>
      <point x="87" y="49"/>
      <point x="87" y="27" type="curve"/>
      <point x="151" y="27"/>
      <point x="102" y="27"/>
      <point x="166" y="27" type="curve"/>
      <point x="166" y="4"/>
      <point x="149" y="-7"/>
      <point x="125" y="-7" type="curve"/>
      <point x="102" y="-7"/>
      <point x="87" y="5"/>
      <point x="87" y="27" type="curve"/>
      <point x="151" y="27"/>
      <point x="102" y="27"/>
    </contour>
  </outline>
</glyph>
<glyph name="semicolon" format="1">
  <advance width="291"/>
  <unicode hex="003B"/>
  <outline>
    <contour>
      <point x="91" y="-103" type="line"/>
      <point x="148" y="-84"/>
      <point x="192" y="-39"/>
      <point x="192" y="31" type="curve"/>
      <point x="192" y="69"/>
      <point x="177" y="100"/>
      <point x="144" y="100" type="curve"/>
      <point x="120" y="100"/>
      <point x="104" y="88"/>
      <point x="104" y="66" type="curve"/>
      <point x="104" y="44"/>
      <point x="118" y="32"/>
      <point x="142" y="29" type="curve"/>
      <point x="142" y="-3"/>
      <point x="127" y="-44"/>
      <point x="81" y="-66" type="curve"/>
    </contour>
    <contour>
      <point x="181" y="413" type="curve"/>
      <point x="181" y="436"/>
      <point x="164" y="447"/>
      <point x="140" y="447" type="curve"/>
      <point x="117" y="447"/>
      <point x="102" y="435"/>
      <point x="102" y="413" type="curve"/>
      <point x="166" y="413"/>
      <point x="118" y="413"/>
      <point x="181" y="413" type="curve"/>
      <point x="181" y="390"/>
      <point x="164" y="379"/>
      <point x="140" y="379" type="curve"/>
      <point x="117" y="379"/>
      <point x="102" y="391"/>
      <point x="102" y="413" type="curve"/>
      <point x="166" y="413"/>
      <point x="118" y="413"/>
    </contour>
  </outline>
</glyph>
<glyph name="less" format="1">
  <advance width="895"/>
  <unicode hex="003C"/>
  <outline>
    <contour>
      <point x="818" y="597" type="curve"/>
      <point x="559" y="507"/>
      <point x="301" y="417"/>
      <point x="43" y="327" type="curve"/>
      <point x="43" y="273"/>
      <point x="43" y="327"/>
      <point x="43" y="273" type="curve"/>
      <point x="301" y="363"/>
      <point x="559" y="453"/>
      <point x="818" y="543" type="curve"/>
      <point x="818" y="597"/>
      <point x="818" y="543"/>
    </contour>
    <contour>
      <point x="832" y="63" type="curve"/>
      <point x="568" y="151"/>
      <point x="306" y="239"/>
      <point x="43" y="327" type="curve"/>
      <point x="43" y="273"/>
      <point x="43" y="327"/>
      <point x="43" y="273" type="curve"/>
      <point x="306" y="185"/>
      <point x="568" y="97"/>
      <point x="832" y="9" type="curve"/>
      <point x="832" y="63"/>
      <point x="832" y="9"/>
    </contour>
  </outline>
</glyph>
<glyph name="equal" format="1">
  <advance width="980"/>
  <unicode hex="003D"/>
  <outline>
    <contour>
      <point x="89" y="192" type="curve"/>
      <point x="356" y="192"/>
      <point x="623" y="192"/>
      <point x="890" y="192" type="curve"/>
      <point x="890" y="243"/>
      <point x="890" y="192"/>
      <point x="890" y="243" type="curve"/>
      <point x="623" y="243"/>
      <point x="356" y="243"/>
      <point x="89" y="243" type="curve"/>
      <point x="89" y="192"/>
      <point x="89" y="243"/>
    </contour>
    <contour>
      <point x="89" y="414" type="curve"/>
      <point x="356" y="414"/>
      <point x="623" y="414"/>
      <point x="890" y="414" type="curve"/>
      <point x="890" y="465"/>
      <point x="890" y="414"/>
      <point x="890" y="465" type="curve"/>
      <point x="623" y="465"/>
      <point x="356" y="465"/>
      <point x="89" y="465" type="curve"/>
      <point x="89" y="414"/>
      <point x="89" y="465"/>
    </contour>
  </outline>
</glyph>
<glyph name="greater" format="1">
  <advance width="895"/>
  <unicode hex="003E"/>
  <outline>
    <contour>
      <point x="76" y="9" type="curve"/>
      <point x="334" y="99"/>
      <point x="594" y="189"/>
      <point x="852" y="279" type="curve"/>
      <point x="852" y="333"/>
      <point x="852" y="279"/>
      <point x="852" y="333" type="curve"/>
      <point x="594" y="243"/>
      <point x="334" y="153"/>
      <point x="76" y="63" type="curve"/>
      <point x="76" y="9"/>
      <point x="76" y="63"/>
    </contour>
    <contour>
      <point x="64" y="543" type="curve"/>
      <point x="325" y="455"/>
      <point x="589" y="367"/>
      <point x="852" y="279" type="curve"/>
      <point x="852" y="333"/>
      <point x="852" y="279"/>
      <point x="852" y="333" type="curve"/>
      <point x="589" y="421"/>
      <point x="325" y="509"/>
      <point x="64" y="597" type="curve"/>
      <point x="64" y="543"/>
      <point x="64" y="597"/>
    </contour>
  </outline>
</glyph>
<glyph name="question" format="1">
  <advance width="590"/>
  <unicode hex="003F"/>
  <outline>
    <contour>
      <point x="220" y="348" type="curve"/>
      <point x="220" y="311"/>
      <point x="220" y="259"/>
      <point x="220" y="222" type="curve"/>
      <point x="283" y="222"/>
      <point x="220" y="222"/>
      <point x="283" y="222" type="curve"/>
      <point x="283" y="259"/>
      <point x="283" y="311"/>
      <point x="283" y="348" type="curve"/>
      <point x="220" y="348"/>
      <point x="283" y="348"/>
    </contour>
    <contour>
      <point x="91" y="610" type="line"/>
      <point x="133" y="645"/>
      <point x="195" y="673"/>
      <point x="265" y="673" type="curve"/>
      <point x="379" y="673"/>
      <point x="469" y="625"/>
      <point x="469" y="519" type="curve"/>
      <point x="469" y="401"/>
      <point x="362" y="348"/>
      <point x="226" y="348" type="curve"/>
      <point x="226" y="330"/>
      <point x="226" y="318"/>
      <point x="226" y="299" type="curve"/>
      <point x="395" y="299"/>
      <point x="528" y="370"/>
      <point x="528" y="519" type="curve"/>
      <point x="528" y="656"/>
      <point x="415" y="723"/>
      <point x="268" y="723" type="curve"/>
      <point x="184" y="723"/>
      <point x="114" y="694"/>
      <point x="59" y="648" type="curve"/>
    </contour>
    <contour>
      <point x="288" y="14" type="curve"/>
      <point x="288" y="35"/>
      <point x="274" y="46"/>
      <point x="252" y="46" type="curve"/>
      <point x="230" y="46"/>
      <point x="216" y="34"/>
      <point x="216" y="14" type="curve"/>
      <point x="288" y="14"/>
      <point x="216" y="14"/>
      <point x="288" y="14" type="curve"/>
      <point x="288" y="-7"/>
      <point x="274" y="-16"/>
      <point x="252" y="-16" type="curve"/>
      <point x="230" y="-16"/>
      <point x="216" y="-5"/>
      <point x="216" y="14" type="curve"/>
      <point x="288" y="14"/>
      <point x="216" y="14"/>
    </contour>
  </outline>
</glyph>
<glyph name="at" format="1">
  <advance width="1015"/>
  <unicode hex="0040"/>
  <outline>
    <contour>
      <point x="722" y="-54" type="curve"/>
      <point x="650" y="-83"/>
      <point x="599" y="-89"/>
      <point x="524" y="-89" type="curve"/>
      <point x="287" y="-89"/>
      <point x="120" y="0"/>
      <point x="120" y="216" type="curve"/>
      <point x="120" y="428"/>
      <point x="288" y="514"/>
      <point x="520" y="514" type="curve"/>
      <point x="739" y="514"/>
      <point x="893" y="422"/>
      <point x="893" y="220" type="curve"/>
      <point x="893" y="145"/>
      <point x="869" y="88"/>
      <point x="803" y="88" type="curve"/>
      <point x="734" y="88"/>
      <point x="705" y="144"/>
      <point x="705" y="221" type="curve"/>
      <point x="705" y="337"/>
      <point x="625" y="400"/>
      <point x="504" y="400" type="curve"/>
      <point x="374" y="400"/>
      <point x="286" y="342"/>
      <point x="286" y="220" type="curve"/>
      <point x="286" y="96"/>
      <point x="369" y="30"/>
      <point x="496" y="30" type="curve"/>
      <point x="609" y="30"/>
      <point x="673" y="96"/>
      <point x="695" y="207" type="curve"/>
      <point x="656" y="218"/>
      <point x="695" y="207"/>
      <point x="656" y="218" type="curve"/>
      <point x="631" y="133"/>
      <point x="590" y="78"/>
      <point x="505" y="78" type="curve"/>
      <point x="407" y="78"/>
      <point x="346" y="129"/>
      <point x="346" y="222" type="curve"/>
      <point x="346" y="310"/>
      <point x="408" y="351"/>
      <point x="499" y="351" type="curve"/>
      <point x="590" y="351"/>
      <point x="649" y="306"/>
      <point x="649" y="218" type="curve"/>
      <point x="649" y="114"/>
      <point x="698" y="42"/>
      <point x="798" y="42" type="curve"/>
      <point x="902" y="42"/>
      <point x="952" y="114"/>
      <point x="952" y="222" type="curve"/>
      <point x="952" y="458"/>
      <point x="776" y="565"/>
      <point x="524" y="565" type="curve"/>
      <point x="253" y="565"/>
      <point x="61" y="462"/>
      <point x="61" y="213" type="curve"/>
      <point x="61" y="-33"/>
      <point x="251" y="-137"/>
      <point x="521" y="-137" type="curve"/>
      <point x="608" y="-137"/>
      <point x="670" y="-126"/>
      <point x="744" y="-96" type="curve"/>
      <point x="722" y="-54"/>
      <point x="744" y="-96"/>
    </contour>
  </outline>
</glyph>
<glyph name="B" format="1">
  <advance width="816"/>
  <unicode hex="0042"/>
  <outline>
    <contour>
      <point x="215" y="722" type="curve"/>
      <point x="160" y="722"/>
      <point x="107" y="722"/>
      <point x="52" y="722" type="curve"/>
      <point x="52" y="673"/>
      <point x="52" y="722"/>
      <point x="52" y="673" type="curve"/>
      <point x="216" y="673"/>
      <point x="50" y="673"/>
      <point x="215" y="673" type="curve"/>
      <point x="215" y="722"/>
      <point x="215" y="673"/>
    </contour>
    <contour>
      <point x="213" y="49" type="curve"/>
      <point x="49" y="49"/>
      <point x="215" y="49"/>
      <point x="51" y="49" type="curve"/>
      <point x="51" y="0"/>
      <point x="51" y="49"/>
      <point x="51" y="0" type="curve"/>
      <point x="106" y="0"/>
      <point x="159" y="0"/>
      <point x="213" y="0" type="curve"/>
      <point x="213" y="49"/>
      <point x="213" y="0"/>
    </contour>
    <contour>
      <point x="201" y="673" type="curve"/>
      <point x="292" y="673"/>
      <point x="382" y="673"/>
      <point x="472" y="673" type="curve"/>
      <point x="563" y="673"/>
      <point x="632" y="635"/>
      <point x="632" y="548" type="curve"/>
      <point x="632" y="457"/>
      <point x="531" y="433"/>
      <point x="430" y="433" type="curve"/>
      <point x="353" y="433"/>
      <point x="278" y="433"/>
      <point x="201" y="433" type="curve"/>
      <point x="201" y="386"/>
      <point x="201" y="430"/>
      <point x="201" y="384" type="curve"/>
      <point x="267" y="384"/>
      <point x="333" y="384"/>
      <point x="400" y="384" type="curve"/>
      <point x="536" y="384"/>
      <point x="694" y="415"/>
      <point x="694" y="547" type="curve"/>
      <point x="694" y="667"/>
      <point x="602" y="722"/>
      <point x="473" y="722" type="curve"/>
      <point x="382" y="722"/>
      <point x="292" y="722"/>
      <point x="201" y="722" type="curve"/>
      <point x="201" y="676"/>
      <point x="201" y="719"/>
    </contour>
    <contour>
      <point x="245" y="0" type="curve"/>
      <point x="245" y="241"/>
      <point x="245" y="481"/>
      <point x="245" y="722" type="curve"/>
      <point x="180" y="722"/>
      <point x="245" y="722"/>
      <point x="180" y="722" type="curve"/>
      <point x="180" y="481"/>
      <point x="180" y="241"/>
      <point x="180" y="0" type="curve"/>
      <point x="245" y="0"/>
      <point x="180" y="0"/>
    </contour>
    <contour>
      <point x="201" y="384" type="curve"/>
      <point x="278" y="384"/>
      <point x="353" y="384"/>
      <point x="430" y="384" type="curve"/>
      <point x="573" y="384"/>
      <point x="692" y="342"/>
      <point x="692" y="210" type="curve"/>
      <point x="692" y="94"/>
      <point x="599" y="49"/>
      <point x="471" y="49" type="curve"/>
      <point x="380" y="49"/>
      <point x="291" y="49"/>
      <point x="201" y="49" type="curve"/>
      <point x="201" y="3"/>
      <point x="201" y="46"/>
      <point x="201" y="0" type="curve"/>
      <point x="291" y="0"/>
      <point x="380" y="0"/>
      <point x="471" y="0" type="curve"/>
      <point x="636" y="0"/>
      <point x="754" y="61"/>
      <point x="754" y="210" type="curve"/>
      <point x="754" y="384"/>
      <point x="576" y="433"/>
      <point x="400" y="433" type="curve"/>
      <point x="333" y="433"/>
      <point x="267" y="433"/>
      <point x="201" y="433" type="curve"/>
      <point x="201" y="386"/>
      <point x="201" y="430"/>
    </contour>
  </outline>
</glyph>
<glyph name="C" format="1">
  <advance width="855"/>
  <unicode hex="0043"/>
  <outline>
    <contour>
      <point x="485" y="812" type="move" name="top"/>
    </contour>
    <contour>
      <point x="472" y="8" type="move" name="bottom"/>
    </contour>
    <contour>
      <point x="738" y="655" type="curve"/>
      <point x="738" y="535"/>
      <point x="738" y="642"/>
      <point x="738" y="522" type="curve"/>
      <point x="788" y="522"/>
      <point x="738" y="522"/>
      <point x="788" y="522" type="curve"/>
      <point x="788" y="642"/>
      <point x="788" y="535"/>
      <point x="788" y="655" type="curve"/>
      <point x="738" y="655"/>
      <point x="788" y="655"/>
    </contour>
    <contour>
      <point x="788" y="655" type="curve"/>
      <point x="698" y="697"/>
      <point x="601" y="727"/>
      <point x="494" y="727" type="curve"/>
      <point x="236" y="727"/>
      <point x="67" y="594"/>
      <point x="67" y="344" type="curve"/>
      <point x="67" y="113"/>
      <point x="225" y="-5"/>
      <point x="465" y="-5" type="curve"/>
      <point x="605" y="-5"/>
      <point x="696" y="25"/>
      <point x="806" y="94" type="curve"/>
      <point x="778" y="135"/>
      <point x="806" y="94"/>
      <point x="777" y="135" type="curve"/>
      <point x="674" y="70"/>
      <point x="589" y="47"/>
      <point x="468" y="47" type="curve"/>
      <point x="263" y="47"/>
      <point x="129" y="150"/>
      <point x="129" y="346" type="curve"/>
      <point x="129" y="559"/>
      <point x="272" y="676"/>
      <point x="491" y="676" type="curve"/>
      <point x="587" y="676"/>
      <point x="675" y="655"/>
      <point x="754" y="616" type="curve"/>
      <point x="788" y="655"/>
      <point x="754" y="616"/>
    </contour>
  </outline>
</glyph>
<glyph name="F" format="1">
  <advance width="769"/>
  <unicode hex="0046"/>
  <outline>
    <contour>
      <point x="214" y="0" type="curve"/>
      <point x="269" y="0"/>
      <point x="214" y="0"/>
      <point x="378" y="0" type="curve"/>
      <point x="378" y="49"/>
      <point x="378" y="0"/>
      <point x="378" y="49" type="curve"/>
      <point x="214" y="49"/>
      <point x="378" y="49"/>
      <point x="214" y="49" type="curve"/>
      <point x="214" y="0"/>
      <point x="214" y="49"/>
    </contour>
    <contour>
      <point x="214" y="722" type="curve"/>
      <point x="160" y="722"/>
      <point x="106" y="722"/>
      <point x="52" y="722" type="curve"/>
      <point x="52" y="673"/>
      <point x="52" y="722"/>
      <point x="52" y="673" type="curve"/>
      <point x="215" y="673"/>
      <point x="50" y="673"/>
      <point x="214" y="673" type="curve"/>
      <point x="214" y="722"/>
      <point x="214" y="673"/>
    </contour>
    <contour>
      <point x="214" y="49" type="curve"/>
      <point x="50" y="49"/>
      <point x="215" y="49"/>
      <point x="52" y="49" type="curve"/>
      <point x="52" y="0"/>
      <point x="52" y="49"/>
      <point x="52" y="0" type="curve"/>
      <point x="106" y="0"/>
      <point x="160" y="0"/>
      <point x="214" y="0" type="curve"/>
      <point x="214" y="49"/>
      <point x="214" y="0"/>
    </contour>
    <contour>
      <point x="672" y="698" type="curve"/>
      <point x="672" y="578"/>
      <point x="672" y="698"/>
      <point x="672" y="578" type="curve"/>
      <point x="723" y="578"/>
      <point x="672" y="578"/>
      <point x="723" y="578" type="curve"/>
      <point x="723" y="698"/>
      <point x="723" y="578"/>
      <point x="723" y="698" type="curve"/>
      <point x="672" y="698"/>
      <point x="723" y="698"/>
    </contour>
    <contour>
      <point x="219" y="349" type="curve"/>
      <point x="356" y="349"/>
      <point x="493" y="349"/>
      <point x="629" y="349" type="curve"/>
      <point x="629" y="398"/>
      <point x="629" y="349"/>
      <point x="629" y="398" type="curve"/>
      <point x="493" y="398"/>
      <point x="356" y="398"/>
      <point x="219" y="398" type="curve"/>
      <point x="219" y="349"/>
      <point x="219" y="398"/>
    </contour>
    <contour>
      <point x="245" y="0" type="curve"/>
      <point x="245" y="722" type="line"/>
      <point x="183" y="722"/>
      <point x="245" y="722"/>
      <point x="183" y="722" type="curve"/>
      <point x="183" y="481"/>
      <point x="183" y="241"/>
      <point x="183" y="0" type="curve"/>
      <point x="245" y="0"/>
      <point x="183" y="0"/>
    </contour>
    <contour>
      <point x="200" y="673" type="curve"/>
      <point x="374" y="673"/>
      <point x="548" y="673"/>
      <point x="723" y="673" type="curve"/>
      <point x="723" y="722"/>
      <point x="723" y="673"/>
      <point x="723" y="722" type="curve"/>
      <point x="548" y="722"/>
      <point x="374" y="722"/>
      <point x="200" y="722" type="curve"/>
      <point x="200" y="673"/>
      <point x="200" y="722"/>
    </contour>
  </outline>
</glyph>
<glyph name="G" format="1">
  <advance width="955"/>
  <unicode hex="0047"/>
  <outline>
    <contour>
      <point x="501" y="812" type="move" name="top"/>
    </contour>
    <contour>
      <point x="535" y="1" type="move" name="bottom"/>
    </contour>
    <contour>
      <point x="810" y="643" type="curve"/>
      <point x="810" y="523"/>
      <point x="810" y="634"/>
      <point x="810" y="513" type="curve"/>
      <point x="860" y="513"/>
      <point x="810" y="513"/>
      <point x="860" y="513" type="curve"/>
      <point x="860" y="634"/>
      <point x="860" y="523"/>
      <point x="860" y="643" type="curve"/>
      <point x="810" y="643"/>
      <point x="860" y="643"/>
    </contour>
    <contour>
      <point x="863" y="335" type="curve"/>
      <point x="769" y="335"/>
      <point x="676" y="335"/>
      <point x="583" y="335" type="curve"/>
      <point x="583" y="286"/>
      <point x="583" y="335"/>
      <point x="583" y="286" type="curve"/>
      <point x="676" y="286"/>
      <point x="769" y="286"/>
      <point x="863" y="286" type="curve"/>
      <point x="863" y="335"/>
      <point x="863" y="286"/>
    </contour>
    <contour>
      <point x="881" y="78" type="curve"/>
      <point x="881" y="163"/>
      <point x="881" y="248"/>
      <point x="881" y="335" type="curve"/>
      <point x="825" y="335"/>
      <point x="881" y="335"/>
      <point x="825" y="335" type="curve"/>
      <point x="825" y="248"/>
      <point x="825" y="163"/>
      <point x="825" y="78" type="curve"/>
      <point x="881" y="78"/>
      <point x="825" y="78"/>
    </contour>
    <contour>
      <point x="860" y="643" type="curve"/>
      <point x="739" y="703"/>
      <point x="634" y="727"/>
      <point x="500" y="727" type="curve"/>
      <point x="241" y="727"/>
      <point x="65" y="610"/>
      <point x="65" y="363" type="curve"/>
      <point x="65" y="111"/>
      <point x="248" y="-5"/>
      <point x="514" y="-5" type="curve"/>
      <point x="658" y="-5"/>
      <point x="750" y="21"/>
      <point x="881" y="78" type="curve"/>
      <point x="850" y="114"/>
      <point x="881" y="78"/>
      <point x="850" y="114" type="curve"/>
      <point x="734" y="63"/>
      <point x="643" y="47"/>
      <point x="514" y="47" type="curve"/>
      <point x="284" y="47"/>
      <point x="127" y="149"/>
      <point x="127" y="368" type="curve"/>
      <point x="127" y="576"/>
      <point x="279" y="676"/>
      <point x="500" y="676" type="curve"/>
      <point x="623" y="676"/>
      <point x="719" y="655"/>
      <point x="829" y="602" type="curve"/>
      <point x="860" y="643"/>
      <point x="829" y="602"/>
    </contour>
  </outline>
</glyph>
<glyph name="H" format="1">
  <advance width="1055"/>
  <unicode hex="0048"/>
  <outline>
    <contour>
      <point x="850" y="673" type="curve"/>
      <point x="1022" y="673"/>
      <point x="841" y="673"/>
      <point x="1013" y="673" type="curve"/>
      <point x="1013" y="722"/>
      <point x="1013" y="673"/>
      <point x="1013" y="722" type="curve"/>
      <point x="956" y="722"/>
      <point x="907" y="722"/>
      <point x="850" y="722" type="curve"/>
      <point x="850" y="673"/>
      <point x="850" y="722"/>
    </contour>
    <contour>
      <point x="850" y="0" type="curve"/>
      <point x="907" y="0"/>
      <point x="956" y="0"/>
      <point x="1013" y="0" type="curve"/>
      <point x="1013" y="49"/>
      <point x="1013" y="0"/>
      <point x="1013" y="49" type="curve"/>
      <point x="841" y="49"/>
      <point x="1022" y="49"/>
      <point x="850" y="49" type="curve"/>
      <point x="850" y="0"/>
      <point x="850" y="49"/>
    </contour>
    <contour>
      <point x="850" y="49" type="curve"/>
      <point x="678" y="49"/>
      <point x="859" y="49"/>
      <point x="687" y="49" type="curve"/>
      <point x="687" y="0"/>
      <point x="687" y="49"/>
      <point x="687" y="0" type="curve"/>
      <point x="744" y="0"/>
      <point x="793" y="0"/>
      <point x="850" y="0" type="curve"/>
      <point x="850" y="49"/>
      <point x="850" y="0"/>
    </contour>
    <contour>
      <point x="850" y="722" type="curve"/>
      <point x="793" y="722"/>
      <point x="744" y="722"/>
      <point x="687" y="722" type="curve"/>
      <point x="687" y="673"/>
      <point x="687" y="722"/>
      <point x="687" y="673" type="curve"/>
      <point x="859" y="673"/>
      <point x="678" y="673"/>
      <point x="850" y="673" type="curve"/>
      <point x="850" y="722"/>
      <point x="850" y="673"/>
    </contour>
    <contour>
      <point x="206" y="673" type="curve"/>
      <point x="377" y="673"/>
      <point x="196" y="673"/>
      <point x="368" y="673" type="curve"/>
      <point x="368" y="722"/>
      <point x="368" y="673"/>
      <point x="368" y="722" type="curve"/>
      <point x="312" y="722"/>
      <point x="263" y="722"/>
      <point x="206" y="722" type="curve"/>
      <point x="206" y="673"/>
      <point x="206" y="722"/>
    </contour>
    <contour>
      <point x="206" y="722" type="curve"/>
      <point x="149" y="722"/>
      <point x="100" y="722"/>
      <point x="43" y="722" type="curve"/>
      <point x="43" y="673"/>
      <point x="43" y="722"/>
      <point x="43" y="673" type="curve"/>
      <point x="215" y="673"/>
      <point x="34" y="673"/>
      <point x="206" y="673" type="curve"/>
      <point x="206" y="722"/>
      <point x="206" y="673"/>
    </contour>
    <contour>
      <point x="206" y="0" type="curve"/>
      <point x="263" y="0"/>
      <point x="196" y="0"/>
      <point x="368" y="0" type="curve"/>
      <point x="368" y="49"/>
      <point x="368" y="0"/>
      <point x="368" y="49" type="curve"/>
      <point x="196" y="49"/>
      <point x="377" y="49"/>
      <point x="206" y="49" type="curve"/>
      <point x="206" y="0"/>
      <point x="206" y="49"/>
    </contour>
    <contour>
      <point x="206" y="49" type="curve"/>
      <point x="34" y="49"/>
      <point x="215" y="49"/>
      <point x="43" y="49" type="curve"/>
      <point x="43" y="0"/>
      <point x="43" y="49"/>
      <point x="43" y="0" type="curve"/>
      <point x="100" y="0"/>
      <point x="149" y="0"/>
      <point x="206" y="0" type="curve"/>
      <point x="206" y="49"/>
      <point x="206" y="0"/>
    </contour>
    <contour>
      <point x="237" y="0" type="curve"/>
      <point x="237" y="722" type="line"/>
      <point x="175" y="722"/>
      <point x="237" y="722"/>
      <point x="175" y="722" type="curve"/>
      <point x="175" y="481"/>
      <point x="175" y="241"/>
      <point x="175" y="0" type="curve"/>
      <point x="237" y="0"/>
      <point x="175" y="0"/>
    </contour>
    <contour>
      <point x="846" y="387" type="curve"/>
      <point x="633" y="387"/>
      <point x="419" y="387"/>
      <point x="206" y="387" type="curve"/>
      <point x="206" y="338"/>
      <point x="206" y="387"/>
      <point x="206" y="338" type="curve"/>
      <point x="419" y="338"/>
      <point x="633" y="338"/>
      <point x="846" y="338" type="curve"/>
      <point x="846" y="387"/>
      <point x="846" y="338"/>
    </contour>
    <contour>
      <point x="880" y="15" type="curve"/>
      <point x="880" y="246"/>
      <point x="880" y="476"/>
      <point x="880" y="707" type="curve"/>
      <point x="818" y="707"/>
      <point x="880" y="707"/>
      <point x="818" y="707" type="curve"/>
      <point x="818" y="15" type="line"/>
      <point x="880" y="15"/>
      <point x="818" y="15"/>
    </contour>
  </outline>
</glyph>
<glyph name="I" format="1">
  <advance width="411"/>
  <unicode hex="0049"/>
  <outline>
    <contour>
      <point x="205" y="812" type="move" name="top"/>
    </contour>
    <contour>
      <point x="235" y="0" type="move" name="bottom"/>
    </contour>
    <contour>
      <point x="206" y="722" type="curve"/>
      <point x="148" y="722"/>
      <point x="101" y="722"/>
      <point x="44" y="722" type="curve"/>
      <point x="44" y="673"/>
      <point x="44" y="722"/>
      <point x="44" y="673" type="curve"/>
      <point x="215" y="673"/>
      <point x="35" y="673"/>
      <point x="206" y="673" type="curve"/>
      <point x="206" y="722"/>
      <point x="206" y="673"/>
    </contour>
    <contour>
      <point x="206" y="673" type="curve"/>
      <point x="379" y="673"/>
      <point x="197" y="673"/>
      <point x="370" y="673" type="curve"/>
      <point x="370" y="722"/>
      <point x="370" y="673"/>
      <point x="370" y="722" type="curve"/>
      <point x="312" y="722"/>
      <point x="263" y="722"/>
      <point x="206" y="722" type="curve"/>
      <point x="206" y="673"/>
      <point x="206" y="722"/>
    </contour>
    <contour>
      <point x="206" y="0" type="curve"/>
      <point x="263" y="0"/>
      <point x="312" y="0"/>
      <point x="370" y="0" type="curve"/>
      <point x="370" y="49"/>
      <point x="370" y="0"/>
      <point x="370" y="49" type="curve"/>
      <point x="197" y="49"/>
      <point x="379" y="49"/>
      <point x="206" y="49" type="curve"/>
      <point x="206" y="0"/>
      <point x="206" y="49"/>
    </contour>
    <contour>
      <point x="206" y="49" type="curve"/>
      <point x="35" y="49"/>
      <point x="215" y="49"/>
      <point x="44" y="49" type="curve"/>
      <point x="44" y="0"/>
      <point x="44" y="49"/>
      <point x="44" y="0" type="curve"/>
      <point x="101" y="0"/>
      <point x="148" y="0"/>
      <point x="206" y="0" type="curve"/>
      <point x="206" y="49"/>
      <point x="206" y="0"/>
    </contour>
    <contour>
      <point x="236" y="0" type="curve"/>
      <point x="236" y="241"/>
      <point x="236" y="481"/>
      <point x="236" y="722" type="curve"/>
      <point x="173" y="722"/>
      <point x="236" y="722"/>
      <point x="173" y="722" type="curve"/>
      <point x="173" y="481"/>
      <point x="173" y="241"/>
      <point x="173" y="0" type="curve"/>
      <point x="236" y="0"/>
      <point x="173" y="0"/>
    </contour>
  </outline>
</glyph>
<glyph name="K" format="1">
  <advance width="883"/>
  <unicode hex="004B"/>
  <outline>
    <contour>
      <point x="499" y="-3" type="move" name="bottom"/>
    </contour>
    <contour>
      <point x="693" y="722" type="curve"/>
      <point x="635" y="722"/>
      <point x="554" y="722"/>
      <point x="496" y="722" type="curve"/>
      <point x="496" y="673"/>
      <point x="496" y="722"/>
      <point x="496" y="673" type="curve"/>
      <point x="670" y="673"/>
      <point x="519" y="673"/>
      <point x="693" y="673" type="curve"/>
      <point x="693" y="722"/>
      <point x="693" y="673"/>
    </contour>
    <contour>
      <point x="719" y="0" type="curve"/>
      <point x="775" y="0"/>
      <point x="811" y="0"/>
      <point x="868" y="0" type="curve"/>
      <point x="868" y="49"/>
      <point x="868" y="0"/>
      <point x="868" y="49" type="curve"/>
      <point x="700" y="49"/>
      <point x="887" y="49"/>
      <point x="719" y="49" type="curve"/>
      <point x="719" y="0"/>
      <point x="719" y="49"/>
    </contour>
    <contour>
      <point x="692" y="673" type="curve"/>
      <point x="856" y="673"/>
      <point x="667" y="673"/>
      <point x="831" y="673" type="curve"/>
      <point x="831" y="722"/>
      <point x="831" y="673"/>
      <point x="831" y="722" type="curve"/>
      <point x="776" y="722"/>
      <point x="747" y="722"/>
      <point x="692" y="722" type="curve"/>
      <point x="692" y="673"/>
      <point x="692" y="722"/>
    </contour>
    <contour>
      <point x="206" y="722" type="curve"/>
      <point x="148" y="722"/>
      <point x="101" y="722"/>
      <point x="43" y="722" type="curve"/>
      <point x="43" y="673"/>
      <point x="43" y="722"/>
      <point x="43" y="673" type="curve"/>
      <point x="215" y="673"/>
      <point x="34" y="673"/>
      <point x="206" y="673" type="curve"/>
      <point x="206" y="722"/>
      <point x="206" y="673"/>
    </contour>
    <contour>
      <point x="206" y="673" type="curve"/>
      <point x="372" y="673"/>
      <point x="198" y="673"/>
      <point x="364" y="673" type="curve"/>
      <point x="364" y="722"/>
      <point x="364" y="673"/>
      <point x="364" y="722" type="curve"/>
      <point x="309" y="722"/>
      <point x="262" y="722"/>
      <point x="206" y="722" type="curve"/>
      <point x="206" y="673"/>
      <point x="206" y="722"/>
    </contour>
    <contour>
      <point x="206" y="0" type="curve"/>
      <point x="264" y="0"/>
      <point x="195" y="0"/>
      <point x="367" y="0" type="curve"/>
      <point x="367" y="49"/>
      <point x="367" y="0"/>
      <point x="367" y="49" type="curve"/>
      <point x="195" y="49"/>
      <point x="378" y="49"/>
      <point x="206" y="49" type="curve"/>
      <point x="206" y="0"/>
      <point x="206" y="49"/>
    </contour>
    <contour>
      <point x="206" y="49" type="curve"/>
      <point x="34" y="49"/>
      <point x="215" y="49"/>
      <point x="43" y="49" type="curve"/>
      <point x="43" y="0"/>
      <point x="43" y="49"/>
      <point x="43" y="0" type="curve"/>
      <point x="101" y="0"/>
      <point x="148" y="0"/>
      <point x="206" y="0" type="curve"/>
      <point x="206" y="49"/>
      <point x="206" y="0"/>
    </contour>
    <contour>
      <point x="675" y="722" type="curve"/>
      <point x="213" y="380" type="line"/>
      <point x="296" y="380"/>
      <point x="214" y="380"/>
      <point x="298" y="380" type="curve"/>
      <point x="745" y="708" type="line"/>
      <point x="654" y="708"/>
      <point x="766" y="722"/>
    </contour>
    <contour>
      <point x="237" y="0" type="curve"/>
      <point x="237" y="722" type="line"/>
      <point x="175" y="722"/>
      <point x="237" y="722"/>
      <point x="175" y="722" type="curve"/>
      <point x="175" y="481"/>
      <point x="175" y="241"/>
      <point x="175" y="0" type="curve"/>
      <point x="237" y="0"/>
      <point x="175" y="0"/>
    </contour>
    <contour>
      <point x="779" y="15" type="curve"/>
      <point x="298" y="380" type="line"/>
      <point x="214" y="380"/>
      <point x="296" y="380"/>
      <point x="213" y="380" type="curve"/>
      <point x="704" y="0" type="line"/>
      <point x="799" y="0"/>
      <point x="683" y="15"/>
    </contour>
  </outline>
</glyph>
<glyph name="O" format="1">
  <advance width="927"/>
  <unicode hex="004F"/>
  <outline>
    <contour>
      <point x="464" y="812" type="move" name="top"/>
    </contour>
    <contour>
      <point x="129" y="360" type="curve"/>
      <point x="129" y="557"/>
      <point x="258" y="676"/>
      <point x="460" y="676" type="curve"/>
      <point x="663" y="676"/>
      <point x="797" y="560"/>
      <point x="797" y="363" type="curve"/>
      <point x="797" y="167"/>
      <point x="667" y="47"/>
      <point x="466" y="47" type="curve"/>
      <point x="262" y="47"/>
      <point x="129" y="163"/>
      <point x="129" y="360" type="curve"/>
      <point x="67" y="360"/>
      <point x="129" y="360"/>
      <point x="67" y="360" type="curve"/>
      <point x="67" y="129"/>
      <point x="226" y="-5"/>
      <point x="463" y="-5" type="curve"/>
      <point x="701" y="-5"/>
      <point x="860" y="130"/>
      <point x="860" y="363" type="curve"/>
      <point x="860" y="593"/>
      <point x="702" y="727"/>
      <point x="465" y="727" type="curve"/>
      <point x="225" y="727"/>
      <point x="67" y="592"/>
      <point x="67" y="360" type="curve"/>
      <point x="129" y="360"/>
      <point x="67" y="360"/>
    </contour>
  </outline>
</glyph>
<glyph name="Q" format="1">
  <advance width="981"/>
  <unicode hex="0051"/>
  <outline>
    <contour>
      <point x="448" y="11" type="curve"/>
      <point x="592" y="-186"/>
      <point x="747" y="-231"/>
      <point x="978" y="-231" type="curve"/>
      <point x="978" y="-180"/>
      <point x="978" y="-231"/>
      <point x="978" y="-180" type="curve"/>
      <point x="772" y="-180"/>
      <point x="632" y="-141"/>
      <point x="502" y="35" type="curve"/>
      <point x="448" y="11"/>
      <point x="502" y="35"/>
    </contour>
    <contour>
      <point x="129" y="360" type="curve"/>
      <point x="129" y="557"/>
      <point x="263" y="674"/>
      <point x="464" y="674" type="curve"/>
      <point x="666" y="674"/>
      <point x="800" y="559"/>
      <point x="800" y="362" type="curve"/>
      <point x="800" y="165"/>
      <point x="667" y="46"/>
      <point x="468" y="46" type="curve"/>
      <point x="264" y="46"/>
      <point x="129" y="162"/>
      <point x="129" y="360" type="curve"/>
      <point x="66" y="360"/>
      <point x="129" y="360"/>
      <point x="66" y="360" type="curve"/>
      <point x="66" y="129"/>
      <point x="228" y="-5"/>
      <point x="465" y="-5" type="curve"/>
      <point x="702" y="-5"/>
      <point x="862" y="132"/>
      <point x="862" y="365" type="curve"/>
      <point x="862" y="595"/>
      <point x="703" y="728"/>
      <point x="467" y="728" type="curve"/>
      <point x="229" y="728"/>
      <point x="66" y="593"/>
      <point x="66" y="360" type="curve"/>
      <point x="129" y="360"/>
      <point x="66" y="360"/>
    </contour>
  </outline>
</glyph>
<glyph name="S" format="1">
  <advance width="717"/>
  <unicode hex="0053"/>
  <outline>
    <contour>
      <point x="360" y="812" type="move" name="top"/>
    </contour>
    <contour>
      <point x="373" y="-1" type="move" name="bottom"/>
    </contour>
    <contour>
      <point x="561" y="662" type="curve"/>
      <point x="561" y="542"/>
      <point x="561" y="654"/>
      <point x="561" y="534" type="curve"/>
      <point x="611" y="534"/>
      <point x="561" y="534"/>
      <point x="611" y="534" type="curve"/>
      <point x="611" y="654"/>
      <point x="611" y="542"/>
      <point x="611" y="662" type="curve"/>
      <point x="561" y="662"/>
      <point x="611" y="662"/>
    </contour>
    <contour>
      <point x="125" y="56" type="curve"/>
      <point x="125" y="176"/>
      <point x="125" y="68"/>
      <point x="125" y="188" type="curve"/>
      <point x="75" y="188"/>
      <point x="125" y="188"/>
      <point x="75" y="188" type="curve"/>
      <point x="75" y="68"/>
      <point x="75" y="176"/>
      <point x="75" y="56" type="curve"/>
      <point x="125" y="56"/>
      <point x="75" y="56"/>
    </contour>
    <contour>
      <point x="75" y="56" type="curve"/>
      <point x="164" y="14"/>
      <point x="251" y="-5"/>
      <point x="350" y="-5" type="curve"/>
      <point x="517" y="-5"/>
      <point x="648" y="33"/>
      <point x="648" y="176" type="curve"/>
      <point x="648" y="311"/>
      <point x="523" y="345"/>
      <point x="391" y="394" type="curve"/>
      <point x="279" y="434"/>
      <point x="161" y="460"/>
      <point x="161" y="557" type="curve"/>
      <point x="161" y="646"/>
      <point x="251" y="680"/>
      <point x="357" y="680" type="curve"/>
      <point x="442" y="680"/>
      <point x="505" y="657"/>
      <point x="583" y="623" type="curve"/>
      <point x="611" y="661"/>
      <point x="582" y="624"/>
      <point x="611" y="662" type="curve"/>
      <point x="525" y="702"/>
      <point x="455" y="727"/>
      <point x="360" y="727" type="curve"/>
      <point x="217" y="727"/>
      <point x="99" y="677"/>
      <point x="99" y="554" type="curve"/>
      <point x="99" y="426"/>
      <point x="221" y="395"/>
      <point x="349" y="349" type="curve"/>
      <point x="466" y="307"/>
      <point x="585" y="277"/>
      <point x="585" y="175" type="curve"/>
      <point x="585" y="74"/>
      <point x="482" y="46"/>
      <point x="353" y="46" type="curve"/>
      <point x="265" y="46"/>
      <point x="187" y="67"/>
      <point x="109" y="102" type="curve"/>
      <point x="75" y="58"/>
      <point x="108" y="101"/>
    </contour>
  </outline>
</glyph>
<glyph name="W" format="1">
  <advance width="1262"/>
  <unicode hex="0057"/>
  <outline>
    <contour>
      <point x="160" y="673" type="curve"/>
      <point x="321" y="673"/>
      <point x="160" y="673"/>
      <point x="320" y="673" type="curve"/>
      <point x="320" y="722"/>
      <point x="320" y="673"/>
      <point x="320" y="722" type="curve"/>
      <point x="267" y="722"/>
      <point x="214" y="722"/>
      <point x="160" y="722" type="curve"/>
      <point x="160" y="673"/>
      <point x="160" y="722"/>
    </contour>
    <contour>
      <point x="160" y="722" type="curve"/>
      <point x="106" y="722"/>
      <point x="52" y="722"/>
      <point x="-2" y="722" type="curve"/>
      <point x="-2" y="673"/>
      <point x="-2" y="722"/>
      <point x="-2" y="673" type="curve"/>
      <point x="161" y="673"/>
      <point x="-2" y="673"/>
      <point x="160" y="673" type="curve"/>
      <point x="160" y="722"/>
      <point x="160" y="673"/>
    </contour>
    <contour>
      <point x="1088" y="722" type="curve"/>
      <point x="1034" y="722"/>
      <point x="982" y="722"/>
      <point x="928" y="722" type="curve"/>
      <point x="928" y="673"/>
      <point x="928" y="722"/>
      <point x="928" y="673" type="curve"/>
      <point x="1088" y="673"/>
      <point x="928" y="673"/>
      <point x="1088" y="673" type="curve"/>
      <point x="1088" y="722"/>
      <point x="1088" y="673"/>
    </contour>
    <contour>
      <point x="1088" y="673" type="curve"/>
      <point x="1251" y="673"/>
      <point x="1087" y="673"/>
      <point x="1250" y="673" type="curve"/>
      <point x="1250" y="722"/>
      <point x="1250" y="673"/>
      <point x="1250" y="722" type="curve"/>
      <point x="1196" y="722"/>
      <point x="1142" y="722"/>
      <point x="1088" y="722" type="curve"/>
      <point x="1088" y="673"/>
      <point x="1088" y="722"/>
    </contour>
    <contour>
      <point x="402" y="0" type="curve"/>
      <point x="487" y="241"/>
      <point x="571" y="481"/>
      <point x="656" y="722" type="curve"/>
      <point x="595" y="722"/>
      <point x="657" y="722"/>
      <point x="597" y="722" type="curve"/>
      <point x="514" y="481"/>
      <point x="430" y="241"/>
      <point x="347" y="0" type="curve"/>
      <point x="402" y="0"/>
      <point x="347" y="0"/>
    </contour>
    <contour>
      <point x="608" y="722" type="curve"/>
      <point x="684" y="481"/>
      <point x="759" y="241"/>
      <point x="836" y="0" type="curve"/>
      <point x="891" y="0"/>
      <point x="835" y="0"/>
      <point x="891" y="0" type="curve"/>
      <point x="817" y="241"/>
      <point x="743" y="481"/>
      <point x="666" y="722" type="curve"/>
      <point x="606" y="722"/>
      <point x="668" y="722"/>
    </contour>
    <contour>
      <point x="108" y="722" type="curve"/>
      <point x="184" y="481"/>
      <point x="262" y="241"/>
      <point x="340" y="0" type="curve"/>
      <point x="395" y="0"/>
      <point x="341" y="0"/>
      <point x="396" y="0" type="curve"/>
      <point x="321" y="240"/>
      <point x="246" y="482"/>
      <point x="171" y="722" type="curve"/>
      <point x="108" y="722"/>
      <point x="171" y="722"/>
    </contour>
    <contour>
      <point x="1078" y="722" type="curve"/>
      <point x="999" y="481"/>
      <point x="921" y="241"/>
      <point x="844" y="0" type="curve"/>
      <point x="900" y="0"/>
      <point x="844" y="0"/>
      <point x="899" y="0" type="curve"/>
      <point x="980" y="241"/>
      <point x="1059" y="481"/>
      <point x="1140" y="722" type="curve"/>
      <point x="1078" y="722"/>
      <point x="1140" y="722"/>
    </contour>
  </outline>
</glyph>
<glyph name="X" format="1">
  <advance width="932"/>
  <unicode hex="0058"/>
  <outline>
    <contour>
      <point x="169" y="0" type="curve"/>
      <point x="227" y="0"/>
      <point x="168" y="0"/>
      <point x="339" y="0" type="curve"/>
      <point x="339" y="49"/>
      <point x="339" y="0"/>
      <point x="339" y="49" type="curve"/>
      <point x="168" y="49"/>
      <point x="340" y="49"/>
      <point x="169" y="49" type="curve"/>
      <point x="169" y="0"/>
      <point x="169" y="49"/>
    </contour>
    <contour>
      <point x="168" y="49" type="curve"/>
      <point x="3" y="49"/>
      <point x="169" y="49"/>
      <point x="4" y="49" type="curve"/>
      <point x="4" y="0"/>
      <point x="4" y="49"/>
      <point x="4" y="0" type="curve"/>
      <point x="59" y="0"/>
      <point x="114" y="0"/>
      <point x="168" y="0" type="curve"/>
      <point x="168" y="49"/>
      <point x="168" y="0"/>
    </contour>
    <contour>
      <point x="760" y="0" type="curve"/>
      <point x="815" y="0"/>
      <point x="870" y="0"/>
      <point x="925" y="0" type="curve"/>
      <point x="925" y="49"/>
      <point x="925" y="0"/>
      <point x="925" y="49" type="curve"/>
      <point x="759" y="49"/>
      <point x="925" y="49"/>
      <point x="760" y="49" type="curve"/>
      <point x="760" y="0"/>
      <point x="760" y="49"/>
    </contour>
    <contour>
      <point x="760" y="49" type="curve"/>
      <point x="589" y="49"/>
      <point x="760" y="49"/>
      <point x="589" y="49" type="curve"/>
      <point x="589" y="0"/>
      <point x="589" y="49"/>
      <point x="589" y="0" type="curve"/>
      <point x="646" y="0"/>
      <point x="702" y="0"/>
      <point x="760" y="0" type="curve"/>
      <point x="760" y="49"/>
      <point x="760" y="0"/>
    </contour>
    <contour>
      <point x="727" y="673" type="curve"/>
      <point x="892" y="673"/>
      <point x="726" y="673"/>
      <point x="891" y="673" type="curve"/>
      <point x="891" y="722"/>
      <point x="891" y="673"/>
      <point x="891" y="722" type="curve"/>
      <point x="836" y="722"/>
      <point x="781" y="722"/>
      <point x="727" y="722" type="curve"/>
      <point x="727" y="673"/>
      <point x="727" y="722"/>
    </contour>
    <contour>
      <point x="727" y="722" type="curve"/>
      <point x="670" y="722"/>
      <point x="614" y="722"/>
      <point x="556" y="722" type="curve"/>
      <point x="556" y="673"/>
      <point x="556" y="722"/>
      <point x="556" y="673" type="curve"/>
      <point x="727" y="673"/>
      <point x="556" y="673"/>
      <point x="727" y="673" type="curve"/>
      <point x="727" y="722"/>
      <point x="727" y="673"/>
    </contour>
    <contour>
      <point x="209" y="722" type="curve"/>
      <point x="155" y="722"/>
      <point x="99" y="722"/>
      <point x="45" y="722" type="curve"/>
      <point x="45" y="673"/>
      <point x="45" y="722"/>
      <point x="45" y="673" type="curve"/>
      <point x="210" y="673"/>
      <point x="44" y="673"/>
      <point x="209" y="673" type="curve"/>
      <point x="209" y="722"/>
      <point x="209" y="673"/>
    </contour>
    <contour>
      <point x="209" y="673" type="curve"/>
      <point x="381" y="673"/>
      <point x="208" y="673"/>
      <point x="380" y="673" type="curve"/>
      <point x="380" y="722"/>
      <point x="380" y="673"/>
      <point x="380" y="722" type="curve"/>
      <point x="323" y="722"/>
      <point x="266" y="722"/>
      <point x="209" y="722" type="curve"/>
      <point x="209" y="673"/>
      <point x="209" y="722"/>
    </contour>
    <contour>
      <point x="732" y="722" type="curve"/>
      <point x="524" y="485"/>
      <point x="313" y="250"/>
      <point x="106" y="13" type="curve"/>
      <point x="173" y="13"/>
      <point x="106" y="0"/>
      <point x="173" y="0" type="curve"/>
      <point x="380" y="237"/>
      <point x="585" y="474"/>
      <point x="794" y="711" type="curve"/>
      <point x="732" y="711"/>
      <point x="794" y="722"/>
    </contour>
    <contour>
      <point x="146" y="711" type="curve"/>
      <point x="351" y="474"/>
      <point x="556" y="237"/>
      <point x="761" y="0" type="curve"/>
      <point x="827" y="0"/>
      <point x="761" y="9"/>
      <point x="827" y="9" type="curve"/>
      <point x="621" y="247"/>
      <point x="413" y="484"/>
      <point x="206" y="722" type="curve"/>
      <point x="146" y="722"/>
      <point x="206" y="711"/>
    </contour>
  </outline>
</glyph>
<glyph name="Z" format="1">
  <advance width="831"/>
  <unicode hex="005A"/>
  <outline>
    <contour>
      <point x="417" y="812" type="move" name="top"/>
    </contour>
    <contour>
      <point x="90" y="698" type="curve"/>
      <point x="90" y="578"/>
      <point x="90" y="698"/>
      <point x="90" y="578" type="curve"/>
      <point x="140" y="578"/>
      <point x="90" y="578"/>
      <point x="140" y="578" type="curve"/>
      <point x="140" y="698"/>
      <point x="140" y="578"/>
      <point x="140" y="698" type="curve"/>
      <point x="90" y="698"/>
      <point x="140" y="698"/>
    </contour>
    <contour>
      <point x="783" y="24" type="curve"/>
      <point x="783" y="144"/>
      <point x="783" y="24"/>
      <point x="783" y="144" type="curve"/>
      <point x="734" y="144"/>
      <point x="783" y="144"/>
      <point x="734" y="144" type="curve"/>
      <point x="734" y="24"/>
      <point x="734" y="144"/>
      <point x="734" y="24" type="curve"/>
      <point x="783" y="24"/>
      <point x="734" y="24"/>
    </contour>
    <contour>
      <point x="90" y="673" type="curve"/>
      <point x="294" y="673"/>
      <point x="516" y="673"/>
      <point x="721" y="673" type="curve"/>
      <point x="716" y="679"/>
      <point x="708" y="678"/>
      <point x="703" y="684" type="curve"/>
      <point x="699" y="689"/>
      <point x="696" y="694"/>
      <point x="693" y="698" type="curve"/>
      <point x="688" y="694"/>
      <point x="681" y="693"/>
      <point x="676" y="688" type="curve"/>
      <point x="42" y="49" type="line"/>
      <point x="42" y="24"/>
      <point x="42" y="49"/>
      <point x="42" y="24" type="curve"/>
      <point x="42" y="0"/>
      <point x="42" y="24"/>
      <point x="42" y="0" type="curve"/>
      <point x="61" y="0"/>
      <point x="42" y="0"/>
      <point x="61" y="0" type="curve"/>
      <point x="796" y="0"/>
      <point x="539" y="0"/>
      <point x="783" y="0" type="curve"/>
      <point x="783" y="49"/>
      <point x="783" y="0"/>
      <point x="783" y="49" type="curve"/>
      <point x="539" y="49"/>
      <point x="306" y="49"/>
      <point x="61" y="49" type="curve"/>
      <point x="66" y="45"/>
      <point x="72" y="43"/>
      <point x="77" y="40" type="curve"/>
      <point x="81" y="35"/>
      <point x="86" y="28"/>
      <point x="90" y="24" type="curve"/>
      <point x="96" y="29"/>
      <point x="106" y="28"/>
      <point x="113" y="34" type="curve"/>
      <point x="746" y="673" type="line"/>
      <point x="746" y="698"/>
      <point x="746" y="673"/>
      <point x="746" y="698" type="curve"/>
      <point x="746" y="722"/>
      <point x="746" y="698"/>
      <point x="746" y="722" type="curve"/>
      <point x="716" y="722"/>
      <point x="746" y="722"/>
      <point x="716" y="722" type="curve"/>
      <point x="512" y="722"/>
      <point x="293" y="722"/>
      <point x="90" y="722" type="curve"/>
      <point x="90" y="673"/>
      <point x="90" y="722"/>
    </contour>
  </outline>
</glyph>
<glyph name="bracketleft" format="1">
  <advance width="346"/>
  <unicode hex="005B"/>
  <outline>
    <contour>
      <point x="301" y="770" type="curve"/>
      <point x="236" y="770"/>
      <point x="172" y="770"/>
      <point x="106" y="770" type="curve"/>
      <point x="100" y="770"/>
      <point x="92" y="770"/>
      <point x="84" y="770" type="curve"/>
      <point x="84" y="764"/>
      <point x="84" y="756"/>
      <point x="84" y="749" type="curve"/>
      <point x="84" y="466"/>
      <point x="84" y="182"/>
      <point x="84" y="-102" type="curve"/>
      <point x="84" y="-107"/>
      <point x="84" y="-115"/>
      <point x="84" y="-121" type="curve"/>
      <point x="90" y="-121"/>
      <point x="98" y="-121"/>
      <point x="105" y="-121" type="curve"/>
      <point x="171" y="-121"/>
      <point x="235" y="-121"/>
      <point x="301" y="-121" type="curve"/>
      <point x="301" y="-67"/>
      <point x="301" y="-121"/>
      <point x="301" y="-67" type="curve"/>
      <point x="235" y="-67"/>
      <point x="171" y="-67"/>
      <point x="105" y="-67" type="curve"/>
      <point x="147" y="-67"/>
      <point x="105" y="-67"/>
      <point x="147" y="-67" type="curve"/>
      <point x="147" y="-102"/>
      <point x="147" y="-67"/>
      <point x="147" y="-102" type="curve"/>
      <point x="147" y="182"/>
      <point x="147" y="466"/>
      <point x="147" y="749" type="curve"/>
      <point x="147" y="717"/>
      <point x="147" y="749"/>
      <point x="147" y="717" type="curve"/>
      <point x="106" y="717"/>
      <point x="147" y="717"/>
      <point x="106" y="717" type="curve"/>
      <point x="172" y="717"/>
      <point x="236" y="717"/>
      <point x="301" y="717" type="curve"/>
      <point x="301" y="770"/>
      <point x="301" y="717"/>
    </contour>
  </outline>
</glyph>
<glyph name="backslash" format="1">
  <advance width="642"/>
  <unicode hex="005C"/>
  <outline>
    <contour>
      <point x="603" y="-68" type="curve"/>
      <point x="437" y="236"/>
      <point x="271" y="540"/>
      <point x="104" y="844" type="curve"/>
      <point x="39" y="844"/>
      <point x="104" y="844"/>
      <point x="39" y="844" type="curve"/>
      <point x="205" y="540"/>
      <point x="372" y="236"/>
      <point x="538" y="-68" type="curve"/>
      <point x="603" y="-68"/>
      <point x="538" y="-68"/>
    </contour>
  </outline>
</glyph>
<glyph name="bracketright" format="1">
  <advance width="345"/>
  <unicode hex="005D"/>
  <outline>
    <contour>
      <point x="45" y="717" type="curve"/>
      <point x="110" y="717"/>
      <point x="174" y="717"/>
      <point x="239" y="717" type="curve"/>
      <point x="232" y="722"/>
      <point x="224" y="726"/>
      <point x="218" y="731" type="curve"/>
      <point x="211" y="737"/>
      <point x="205" y="744"/>
      <point x="199" y="749" type="curve"/>
      <point x="199" y="466"/>
      <point x="199" y="182"/>
      <point x="199" y="-102" type="curve"/>
      <point x="206" y="-96"/>
      <point x="212" y="-88"/>
      <point x="220" y="-82" type="curve"/>
      <point x="227" y="-78"/>
      <point x="234" y="-72"/>
      <point x="241" y="-67" type="curve"/>
      <point x="175" y="-67"/>
      <point x="110" y="-67"/>
      <point x="45" y="-67" type="curve"/>
      <point x="45" y="-121"/>
      <point x="45" y="-67"/>
      <point x="45" y="-121" type="curve"/>
      <point x="110" y="-121"/>
      <point x="175" y="-121"/>
      <point x="241" y="-121" type="curve"/>
      <point x="261" y="-121"/>
      <point x="241" y="-121"/>
      <point x="261" y="-121" type="curve"/>
      <point x="261" y="-102"/>
      <point x="261" y="-121"/>
      <point x="261" y="-102" type="curve"/>
      <point x="261" y="182"/>
      <point x="261" y="466"/>
      <point x="261" y="749" type="curve"/>
      <point x="261" y="770"/>
      <point x="261" y="749"/>
      <point x="261" y="770" type="curve"/>
      <point x="239" y="770"/>
      <point x="261" y="770"/>
      <point x="239" y="770" type="curve"/>
      <point x="174" y="770"/>
      <point x="110" y="770"/>
      <point x="45" y="770" type="curve"/>
      <point x="45" y="717"/>
      <point x="45" y="770"/>
    </contour>
  </outline>
</glyph>
<glyph name="asciicircum" format="1">
  <advance width="647"/>
  <unicode hex="005E"/>
  <outline>
    <contour>
      <point x="133" y="462" type="curve"/>
      <point x="206" y="573"/>
      <point x="281" y="682"/>
      <point x="354" y="793" type="curve"/>
      <point x="293" y="793"/>
      <point x="353" y="793"/>
      <point x="291" y="793" type="curve"/>
      <point x="218" y="682"/>
      <point x="144" y="573"/>
      <point x="70" y="462" type="curve"/>
      <point x="131" y="462"/>
      <point x="71" y="462"/>
    </contour>
    <contour>
      <point x="579" y="462" type="curve"/>
      <point x="506" y="570"/>
      <point x="428" y="685"/>
      <point x="355" y="793" type="curve"/>
      <point x="294" y="793"/>
      <point x="354" y="793"/>
      <point x="293" y="793" type="curve"/>
      <point x="365" y="685"/>
      <point x="444" y="570"/>
      <point x="517" y="462" type="curve"/>
      <point x="578" y="462"/>
      <point x="518" y="462"/>
    </contour>
  </outline>
</glyph>
<glyph name="underscore" format="1">
  <advance width="868"/>
  <unicode hex="005F"/>
  <outline>
    <contour>
      <point x="-1" y="-202" type="curve"/>
      <point x="289" y="-202"/>
      <point x="579" y="-202"/>
      <point x="868" y="-202" type="curve"/>
      <point x="868" y="-154"/>
      <point x="868" y="-202"/>
      <point x="868" y="-154" type="curve"/>
      <point x="579" y="-154"/>
      <point x="289" y="-154"/>
      <point x="-1" y="-154" type="curve"/>
      <point x="-1" y="-202"/>
      <point x="-1" y="-154"/>
    </contour>
  </outline>
</glyph>
<glyph name="grave" format="1">
  <advance width="462"/>
  <unicode hex="0060"/>
  <outline>
    <contour>
      <point x="275" y="576" type="move" name="_top"/>
    </contour>
    <contour>
      <point x="313" y="576" type="line"/>
      <point x="147" y="742" type="line"/>
      <point x="61" y="742" type="line"/>
      <point x="247" y="576" type="line"/>
    </contour>
  </outline>
</glyph>
<glyph name="a" format="1">
  <advance width="694"/>
  <unicode hex="0061"/>
  <outline>
    <contour>
      <point x="331" y="654" type="move" name="top"/>
    </contour>
    <contour>
      <point x="550" y="4" type="move" name="bottom"/>
    </contour>
    <contour>
      <point x="77" y="463" type="curve"/>
      <point x="77" y="344"/>
      <point x="77" y="462"/>
      <point x="77" y="342" type="curve"/>
      <point x="128" y="342"/>
      <point x="77" y="342"/>
      <point x="128" y="342" type="curve"/>
      <point x="128" y="462"/>
      <point x="128" y="344"/>
      <point x="128" y="463" type="curve"/>
      <point x="77" y="463"/>
      <point x="128" y="463"/>
    </contour>
    <contour>
      <point x="562" y="0" type="curve"/>
      <point x="562" y="128"/>
      <point x="562" y="254"/>
      <point x="562" y="382" type="curve"/>
      <point x="562" y="509"/>
      <point x="465" y="538"/>
      <point x="330" y="538" type="curve"/>
      <point x="223" y="538"/>
      <point x="142" y="507"/>
      <point x="77" y="463" type="curve"/>
      <point x="100" y="423"/>
      <point x="80" y="462"/>
      <point x="103" y="421" type="curve"/>
      <point x="160" y="457"/>
      <point x="227" y="489"/>
      <point x="322" y="489" type="curve"/>
      <point x="426" y="489"/>
      <point x="499" y="471"/>
      <point x="499" y="370" type="curve"/>
      <point x="499" y="246"/>
      <point x="499" y="123"/>
      <point x="499" y="0" type="curve"/>
      <point x="562" y="0"/>
      <point x="499" y="0"/>
    </contour>
    <contour>
      <point x="533" y="0" type="curve"/>
      <point x="583" y="0"/>
      <point x="632" y="0"/>
      <point x="683" y="0" type="curve"/>
      <point x="683" y="49"/>
      <point x="683" y="0"/>
      <point x="683" y="49" type="curve"/>
      <point x="532" y="49"/>
      <point x="684" y="49"/>
      <point x="533" y="49" type="curve"/>
      <point x="533" y="0"/>
      <point x="533" y="49"/>
    </contour>
    <contour>
      <point x="528" y="326" type="curve"/>
      <point x="430" y="316"/>
      <point x="371" y="311"/>
      <point x="272" y="301" type="curve"/>
      <point x="153" y="289"/>
      <point x="62" y="262"/>
      <point x="62" y="146" type="curve"/>
      <point x="62" y="40"/>
      <point x="141" y="-5"/>
      <point x="262" y="-5" type="curve"/>
      <point x="391" y="-5"/>
      <point x="465" y="56"/>
      <point x="544" y="150" type="curve"/>
      <point x="513" y="177"/>
      <point x="545" y="152"/>
      <point x="514" y="179" type="curve"/>
      <point x="451" y="104"/>
      <point x="380" y="43"/>
      <point x="272" y="43" type="curve"/>
      <point x="182" y="43"/>
      <point x="123" y="74"/>
      <point x="123" y="147" type="curve"/>
      <point x="123" y="229"/>
      <point x="188" y="248"/>
      <point x="269" y="257" type="curve"/>
      <point x="371" y="267"/>
      <point x="430" y="274"/>
      <point x="531" y="284" type="curve"/>
      <point x="528" y="326"/>
      <point x="531" y="284"/>
    </contour>
  </outline>
</glyph>
<glyph name="b" format="1">
  <advance width="802"/>
  <unicode hex="0062"/>
  <outline>
    <contour>
      <point x="179" y="800" type="curve"/>
      <point x="123" y="800"/>
      <point x="73" y="800"/>
      <point x="16" y="800" type="curve"/>
      <point x="16" y="770"/>
      <point x="16" y="782"/>
      <point x="16" y="751" type="curve"/>
      <point x="154" y="751"/>
      <point x="41" y="751"/>
      <point x="179" y="751" type="curve"/>
      <point x="179" y="782"/>
      <point x="179" y="770"/>
    </contour>
    <contour>
      <point x="190" y="380" type="curve"/>
      <point x="247" y="437"/>
      <point x="336" y="488"/>
      <point x="445" y="488" type="curve"/>
      <point x="584" y="488"/>
      <point x="678" y="403"/>
      <point x="678" y="264" type="curve"/>
      <point x="679" y="129"/>
      <point x="582" y="43"/>
      <point x="445" y="45" type="curve"/>
      <point x="344" y="45"/>
      <point x="267" y="76"/>
      <point x="196" y="139" type="curve"/>
      <point x="173" y="122"/>
      <point x="181" y="128"/>
      <point x="158" y="111" type="curve"/>
      <point x="245" y="33"/>
      <point x="332" y="-5"/>
      <point x="454" y="-5" type="curve"/>
      <point x="625" y="-5"/>
      <point x="741" y="95"/>
      <point x="741" y="265" type="curve"/>
      <point x="741" y="435"/>
      <point x="625" y="538"/>
      <point x="454" y="538" type="curve"/>
      <point x="329" y="538"/>
      <point x="231" y="484"/>
      <point x="162" y="416" type="curve"/>
      <point x="180" y="394"/>
      <point x="172" y="401"/>
    </contour>
    <contour>
      <point x="208" y="0" type="curve"/>
      <point x="208" y="278"/>
      <point x="208" y="522"/>
      <point x="208" y="800" type="curve"/>
      <point x="171" y="800"/>
      <point x="183" y="800"/>
      <point x="146" y="800" type="curve"/>
      <point x="146" y="522"/>
      <point x="146" y="278"/>
      <point x="146" y="0" type="curve"/>
      <point x="183" y="0"/>
      <point x="171" y="0"/>
    </contour>
    <contour>
      <point x="179" y="48" type="curve"/>
      <point x="41" y="48"/>
      <point x="154" y="49"/>
      <point x="16" y="49" type="curve"/>
      <point x="16" y="18"/>
      <point x="16" y="30"/>
      <point x="16" y="0" type="curve"/>
      <point x="73" y="0"/>
      <point x="123" y="0"/>
      <point x="179" y="0" type="curve"/>
      <point x="179" y="30"/>
      <point x="179" y="18"/>
    </contour>
  </outline>
</glyph>
<glyph name="c" format="1">
  <advance width="657"/>
  <unicode hex="0063"/>
  <outline>
    <contour>
      <point x="367" y="654" type="move" name="top"/>
    </contour>
    <contour>
      <point x="379" y="2" type="move" name="bottom"/>
    </contour>
    <contour>
      <point x="542" y="472" type="curve"/>
      <point x="542" y="341"/>
      <point x="542" y="473"/>
      <point x="542" y="341" type="curve"/>
      <point x="592" y="341"/>
      <point x="542" y="341"/>
      <point x="592" y="341" type="curve"/>
      <point x="592" y="473"/>
      <point x="592" y="341"/>
      <point x="592" y="472" type="curve"/>
      <point x="542" y="472"/>
      <point x="592" y="472"/>
    </contour>
    <contour>
      <point x="592" y="472" type="curve"/>
      <point x="530" y="511"/>
      <point x="453" y="538"/>
      <point x="376" y="538" type="curve"/>
      <point x="187" y="538"/>
      <point x="61" y="452"/>
      <point x="61" y="267" type="curve"/>
      <point x="61" y="83"/>
      <point x="184" y="-5"/>
      <point x="374" y="-5" type="curve"/>
      <point x="459" y="-5"/>
      <point x="543" y="24"/>
      <point x="601" y="80" type="curve"/>
      <point x="565" y="118"/>
      <point x="601" y="80"/>
      <point x="565" y="118" type="curve"/>
      <point x="512" y="70"/>
      <point x="445" y="45"/>
      <point x="376" y="45" type="curve"/>
      <point x="224" y="45"/>
      <point x="123" y="116"/>
      <point x="123" y="267" type="curve"/>
      <point x="123" y="417"/>
      <point x="223" y="488"/>
      <point x="374" y="488" type="curve"/>
      <point x="438" y="488"/>
      <point x="502" y="470"/>
      <point x="555" y="438" type="curve"/>
      <point x="592" y="472"/>
      <point x="555" y="438"/>
    </contour>
  </outline>
</glyph>
<glyph name="f" format="1">
  <advance width="599"/>
  <unicode hex="0066"/>
  <outline>
    <contour>
      <point x="535" y="771" type="curve"/>
      <point x="535" y="645"/>
      <point x="535" y="771"/>
      <point x="535" y="645" type="curve"/>
      <point x="585" y="645"/>
      <point x="535" y="645"/>
      <point x="585" y="645" type="curve"/>
      <point x="585" y="771"/>
      <point x="585" y="645"/>
      <point x="585" y="771" type="curve"/>
      <point x="535" y="771"/>
      <point x="585" y="771"/>
    </contour>
    <contour>
      <point x="267" y="0" type="curve"/>
      <point x="324" y="0"/>
      <point x="373" y="0"/>
      <point x="430" y="0" type="curve"/>
      <point x="430" y="49"/>
      <point x="430" y="0"/>
      <point x="430" y="49" type="curve"/>
      <point x="259" y="48"/>
      <point x="438" y="49"/>
      <point x="267" y="48" type="curve"/>
      <point x="267" y="0"/>
      <point x="267" y="48"/>
    </contour>
    <contour>
      <point x="267" y="48" type="curve"/>
      <point x="96" y="49"/>
      <point x="276" y="48"/>
      <point x="105" y="49" type="curve"/>
      <point x="105" y="0"/>
      <point x="105" y="49"/>
      <point x="105" y="0" type="curve"/>
      <point x="161" y="0"/>
      <point x="210" y="0"/>
      <point x="267" y="0" type="curve"/>
      <point x="267" y="48"/>
      <point x="267" y="0"/>
    </contour>
    <contour>
      <point x="37" y="484" type="curve"/>
      <point x="557" y="484" type="line"/>
      <point x="557" y="533"/>
      <point x="557" y="484"/>
      <point x="557" y="533" type="curve"/>
      <point x="37" y="533" type="line"/>
      <point x="37" y="484"/>
      <point x="37" y="533"/>
    </contour>
    <contour>
      <point x="298" y="0" type="curve"/>
      <point x="298" y="629" type="line"/>
      <point x="298" y="711"/>
      <point x="356" y="756"/>
      <point x="442" y="756" type="curve"/>
      <point x="483" y="756"/>
      <point x="523" y="745"/>
      <point x="559" y="732" type="curve"/>
      <point x="585" y="771"/>
      <point x="559" y="732"/>
      <point x="585" y="771" type="curve"/>
      <point x="540" y="788"/>
      <point x="491" y="804"/>
      <point x="442" y="804" type="curve"/>
      <point x="321" y="804"/>
      <point x="236" y="745"/>
      <point x="236" y="629" type="curve"/>
      <point x="236" y="0" type="line"/>
      <point x="298" y="0"/>
      <point x="236" y="0"/>
    </contour>
  </outline>
</glyph>
<glyph name="i" format="1">
  <advance width="364"/>
  <unicode hex="0069"/>
  <outline>
    <contour>
      <point x="197" y="652" type="move" name="top"/>
    </contour>
    <contour>
      <point x="227" y="4" type="move" name="bottom"/>
    </contour>
    <contour>
      <point x="197" y="49" type="curve"/>
      <point x="27" y="49"/>
      <point x="206" y="49"/>
      <point x="35" y="49" type="curve"/>
      <point x="35" y="0"/>
      <point x="35" y="49"/>
      <point x="35" y="0" type="curve"/>
      <point x="92" y="0"/>
      <point x="141" y="0"/>
      <point x="197" y="0" type="curve"/>
      <point x="197" y="49"/>
      <point x="197" y="0"/>
    </contour>
    <contour>
      <point x="197" y="0" type="curve"/>
      <point x="251" y="0"/>
      <point x="297" y="0"/>
      <point x="350" y="0" type="curve"/>
      <point x="350" y="49"/>
      <point x="350" y="0"/>
      <point x="350" y="49" type="curve"/>
      <point x="191" y="49"/>
      <point x="356" y="49"/>
      <point x="197" y="49" type="curve"/>
      <point x="197" y="0"/>
      <point x="197" y="49"/>
    </contour>
    <contour>
      <point x="197" y="533" type="curve"/>
      <point x="141" y="533"/>
      <point x="92" y="533"/>
      <point x="35" y="533" type="curve"/>
      <point x="35" y="484"/>
      <point x="35" y="533"/>
      <point x="35" y="484" type="curve"/>
      <point x="206" y="484"/>
      <point x="26" y="484"/>
      <point x="197" y="484" type="curve"/>
      <point x="197" y="533"/>
      <point x="197" y="484"/>
    </contour>
    <contour>
      <point x="231" y="0" type="curve"/>
      <point x="231" y="178"/>
      <point x="231" y="355"/>
      <point x="231" y="533" type="curve"/>
      <point x="165" y="533"/>
      <point x="231" y="533"/>
      <point x="165" y="533" type="curve"/>
      <point x="165" y="355"/>
      <point x="165" y="178"/>
      <point x="165" y="0" type="curve"/>
      <point x="231" y="0"/>
      <point x="165" y="0"/>
    </contour>
    <contour>
      <point x="237" y="684" type="curve"/>
      <point x="237" y="707"/>
      <point x="220" y="719"/>
      <point x="196" y="719" type="curve"/>
      <point x="173" y="719"/>
      <point x="157" y="706"/>
      <point x="157" y="684" type="curve"/>
      <point x="221" y="684"/>
      <point x="173" y="684"/>
      <point x="237" y="684" type="curve"/>
      <point x="237" y="662"/>
      <point x="220" y="650"/>
      <point x="196" y="650" type="curve"/>
      <point x="173" y="650"/>
      <point x="157" y="663"/>
      <point x="157" y="684" type="curve"/>
      <point x="221" y="684"/>
      <point x="173" y="684"/>
    </contour>
  </outline>
</glyph>
<glyph name="j" format="1">
  <advance width="361"/>
  <unicode hex="006A"/>
  <outline>
    <contour>
      <point x="225" y="533" type="curve"/>
      <point x="168" y="533"/>
      <point x="112" y="533"/>
      <point x="55" y="533" type="curve"/>
      <point x="55" y="484"/>
      <point x="55" y="533"/>
      <point x="55" y="484" type="curve"/>
      <point x="226" y="484"/>
      <point x="54" y="484"/>
      <point x="225" y="484" type="curve"/>
      <point x="225" y="533"/>
      <point x="225" y="484"/>
    </contour>
    <contour>
      <point x="-1" y="-301" type="curve"/>
      <point x="10" y="-302"/>
      <point x="24" y="-304"/>
      <point x="38" y="-304" type="curve"/>
      <point x="159" y="-304"/>
      <point x="258" y="-250"/>
      <point x="258" y="-135" type="curve"/>
      <point x="258" y="88"/>
      <point x="258" y="310"/>
      <point x="258" y="533" type="curve"/>
      <point x="196" y="533"/>
      <point x="258" y="533"/>
      <point x="196" y="533" type="curve"/>
      <point x="196" y="310"/>
      <point x="196" y="88"/>
      <point x="196" y="-135" type="curve"/>
      <point x="196" y="-217"/>
      <point x="126" y="-257"/>
      <point x="40" y="-257" type="curve"/>
      <point x="30" y="-257"/>
      <point x="16" y="-255"/>
      <point x="8" y="-254" type="curve"/>
      <point x="0" y="-301"/>
      <point x="8" y="-254"/>
    </contour>
    <contour>
      <point x="268" y="683" type="curve"/>
      <point x="268" y="706"/>
      <point x="251" y="718"/>
      <point x="227" y="718" type="curve"/>
      <point x="203" y="718"/>
      <point x="188" y="705"/>
      <point x="188" y="683" type="curve"/>
      <point x="252" y="683"/>
      <point x="204" y="683"/>
      <point x="268" y="683" type="curve"/>
      <point x="268" y="661"/>
      <point x="251" y="649"/>
      <point x="226" y="649" type="curve"/>
      <point x="203" y="649"/>
      <point x="188" y="662"/>
      <point x="188" y="683" type="curve"/>
      <point x="252" y="683"/>
      <point x="204" y="683"/>
    </contour>
  </outline>
</glyph>
<glyph name="k" format="1">
  <advance width="737"/>
  <unicode hex="006B"/>
  <outline>
    <contour>
      <point x="428" y="-4" type="move" name="bottom"/>
    </contour>
    <contour>
      <point x="169" y="48" type="curve"/>
      <point x="-1" y="49"/>
      <point x="178" y="48"/>
      <point x="7" y="49" type="curve"/>
      <point x="7" y="0"/>
      <point x="7" y="49"/>
      <point x="7" y="0" type="curve"/>
      <point x="64" y="0"/>
      <point x="112" y="0"/>
      <point x="169" y="0" type="curve"/>
      <point x="169" y="48"/>
      <point x="169" y="0"/>
    </contour>
    <contour>
      <point x="557" y="0" type="curve"/>
      <point x="615" y="0"/>
      <point x="662" y="0"/>
      <point x="720" y="0" type="curve"/>
      <point x="720" y="49"/>
      <point x="720" y="0"/>
      <point x="720" y="49" type="curve"/>
      <point x="544" y="48"/>
      <point x="732" y="49"/>
      <point x="557" y="48" type="curve"/>
      <point x="557" y="0"/>
      <point x="557" y="48"/>
    </contour>
    <contour>
      <point x="535" y="484" type="curve"/>
      <point x="689" y="484"/>
      <point x="521" y="484"/>
      <point x="675" y="484" type="curve"/>
      <point x="675" y="533"/>
      <point x="675" y="484"/>
      <point x="675" y="533" type="curve"/>
      <point x="624" y="533"/>
      <point x="585" y="533"/>
      <point x="535" y="533" type="curve"/>
      <point x="535" y="484"/>
      <point x="535" y="533"/>
    </contour>
    <contour>
      <point x="169" y="0" type="curve"/>
      <point x="219" y="0"/>
      <point x="169" y="0"/>
      <point x="315" y="0" type="curve"/>
      <point x="315" y="49"/>
      <point x="315" y="0"/>
      <point x="315" y="49" type="curve"/>
      <point x="169" y="48"/>
      <point x="316" y="49"/>
      <point x="169" y="48" type="curve"/>
      <point x="169" y="0"/>
      <point x="169" y="48"/>
    </contour>
    <contour>
      <point x="541" y="533" type="curve"/>
      <point x="479" y="533"/>
      <point x="420" y="533"/>
      <point x="358" y="533" type="curve"/>
      <point x="358" y="484"/>
      <point x="358" y="533"/>
      <point x="358" y="484" type="curve"/>
      <point x="544" y="484"/>
      <point x="355" y="484"/>
      <point x="541" y="484" type="curve"/>
      <point x="541" y="533"/>
      <point x="541" y="484"/>
    </contour>
    <contour>
      <point x="172" y="800" type="curve"/>
      <point x="115" y="800"/>
      <point x="67" y="800"/>
      <point x="9" y="800" type="curve"/>
      <point x="9" y="751"/>
      <point x="9" y="800"/>
      <point x="9" y="751" type="curve"/>
      <point x="181" y="751"/>
      <point x="1" y="751"/>
      <point x="172" y="751" type="curve"/>
      <point x="172" y="800"/>
      <point x="172" y="751"/>
    </contour>
    <contour>
      <point x="202" y="0" type="curve"/>
      <point x="202" y="800" type="line"/>
      <point x="139" y="800"/>
      <point x="202" y="800"/>
      <point x="139" y="800" type="curve"/>
      <point x="139" y="533"/>
      <point x="139" y="267"/>
      <point x="139" y="0" type="curve"/>
      <point x="202" y="0"/>
      <point x="139" y="0"/>
    </contour>
    <contour>
      <point x="522" y="533" type="curve"/>
      <point x="182" y="275" type="line"/>
      <point x="266" y="275"/>
      <point x="182" y="275"/>
      <point x="266" y="275" type="curve"/>
      <point x="598" y="520" type="line"/>
      <point x="507" y="520"/>
      <point x="614" y="533"/>
    </contour>
    <contour>
      <point x="627" y="17" type="curve"/>
      <point x="266" y="275" type="line"/>
      <point x="182" y="275"/>
      <point x="266" y="275"/>
      <point x="182" y="275" type="curve"/>
      <point x="553" y="0" type="line"/>
      <point x="647" y="0"/>
      <point x="533" y="17"/>
    </contour>
  </outline>
</glyph>
<glyph name="l" format="1">
  <advance width="367"/>
  <unicode hex="006C"/>
  <outline>
    <contour>
      <point x="183" y="903" type="move" name="top"/>
    </contour>
    <contour>
      <point x="207" y="0" type="move" name="bottom"/>
    </contour>
    <contour>
      <point x="183" y="48" type="curve"/>
      <point x="13" y="49"/>
      <point x="183" y="48"/>
      <point x="13" y="49" type="curve"/>
      <point x="13" y="0"/>
      <point x="13" y="49"/>
      <point x="13" y="0" type="curve"/>
      <point x="70" y="0"/>
      <point x="127" y="0"/>
      <point x="183" y="0" type="curve"/>
      <point x="183" y="49"/>
      <point x="183" y="0"/>
    </contour>
    <contour>
      <point x="186" y="800" type="curve"/>
      <point x="130" y="800"/>
      <point x="72" y="800"/>
      <point x="15" y="800" type="curve"/>
      <point x="15" y="751"/>
      <point x="15" y="800"/>
      <point x="15" y="751" type="curve"/>
      <point x="186" y="751"/>
      <point x="15" y="751"/>
      <point x="186" y="751" type="curve"/>
      <point x="186" y="800"/>
      <point x="186" y="751"/>
    </contour>
    <contour>
      <point x="183" y="0" type="curve"/>
      <point x="241" y="0"/>
      <point x="298" y="0"/>
      <point x="356" y="0" type="curve"/>
      <point x="356" y="49"/>
      <point x="356" y="0"/>
      <point x="356" y="49" type="curve"/>
      <point x="183" y="48"/>
      <point x="356" y="49"/>
      <point x="183" y="48" type="curve"/>
      <point x="183" y="0"/>
      <point x="183" y="49"/>
    </contour>
    <contour>
      <point x="213" y="0" type="curve"/>
      <point x="213" y="267"/>
      <point x="213" y="533"/>
      <point x="213" y="800" type="curve"/>
      <point x="151" y="800"/>
      <point x="213" y="800"/>
      <point x="151" y="800" type="curve"/>
      <point x="151" y="533"/>
      <point x="151" y="267"/>
      <point x="151" y="0" type="curve"/>
      <point x="213" y="0"/>
      <point x="151" y="0"/>
    </contour>
  </outline>
</glyph>
<glyph name="m" format="1">
  <advance width="1223"/>
  <unicode hex="006D"/>
  <outline>
    <contour>
      <point x="628" y="0" type="curve"/>
      <point x="765" y="0"/>
      <point x="628" y="0"/>
      <point x="765" y="0" type="curve"/>
      <point x="765" y="49"/>
      <point x="765" y="0"/>
      <point x="765" y="49" type="curve"/>
      <point x="628" y="49"/>
      <point x="765" y="49"/>
      <point x="628" y="49" type="curve"/>
      <point x="628" y="0"/>
      <point x="628" y="49"/>
    </contour>
    <contour>
      <point x="1053" y="0" type="curve"/>
      <point x="1104" y="0"/>
      <point x="1156" y="0"/>
      <point x="1207" y="0" type="curve"/>
      <point x="1207" y="49"/>
      <point x="1207" y="0"/>
      <point x="1207" y="49" type="curve"/>
      <point x="1052" y="49"/>
      <point x="1208" y="49"/>
      <point x="1053" y="49" type="curve"/>
      <point x="1053" y="0"/>
      <point x="1053" y="49"/>
    </contour>
    <contour>
      <point x="205" y="49" type="curve"/>
      <point x="42" y="49"/>
      <point x="206" y="49"/>
      <point x="43" y="49" type="curve"/>
      <point x="43" y="0"/>
      <point x="43" y="49"/>
      <point x="43" y="0" type="curve"/>
      <point x="97" y="0"/>
      <point x="151" y="0"/>
      <point x="205" y="0" type="curve"/>
      <point x="205" y="49"/>
      <point x="205" y="0"/>
    </contour>
    <contour>
      <point x="205" y="0" type="curve"/>
      <point x="251" y="0"/>
      <point x="204" y="0"/>
      <point x="342" y="0" type="curve"/>
      <point x="342" y="49"/>
      <point x="342" y="0"/>
      <point x="342" y="49" type="curve"/>
      <point x="204" y="49"/>
      <point x="344" y="49"/>
      <point x="205" y="49" type="curve"/>
      <point x="205" y="0"/>
      <point x="205" y="49"/>
    </contour>
    <contour>
      <point x="205" y="533" type="curve"/>
      <point x="151" y="533"/>
      <point x="97" y="533"/>
      <point x="43" y="533" type="curve"/>
      <point x="43" y="484"/>
      <point x="43" y="533"/>
      <point x="43" y="484" type="curve"/>
      <point x="206" y="484"/>
      <point x="42" y="484"/>
      <point x="205" y="484" type="curve"/>
      <point x="205" y="533"/>
      <point x="205" y="484"/>
    </contour>
    <contour>
      <point x="646" y="327" type="curve"/>
      <point x="692" y="426"/>
      <point x="765" y="488"/>
      <point x="865" y="488" type="curve"/>
      <point x="972" y="488"/>
      <point x="1020" y="439"/>
      <point x="1020" y="331" type="curve"/>
      <point x="1020" y="221"/>
      <point x="1020" y="111"/>
      <point x="1020" y="0" type="curve"/>
      <point x="1083" y="0"/>
      <point x="1020" y="0"/>
      <point x="1083" y="0" type="curve"/>
      <point x="1083" y="112"/>
      <point x="1083" y="224"/>
      <point x="1083" y="336" type="curve"/>
      <point x="1083" y="475"/>
      <point x="1018" y="538"/>
      <point x="878" y="538" type="curve"/>
      <point x="756" y="538"/>
      <point x="667" y="471"/>
      <point x="615" y="351" type="curve"/>
      <point x="646" y="327"/>
      <point x="615" y="351"/>
    </contour>
    <contour>
      <point x="223" y="328" type="curve"/>
      <point x="270" y="428"/>
      <point x="341" y="488"/>
      <point x="442" y="488" type="curve"/>
      <point x="548" y="488"/>
      <point x="597" y="439"/>
      <point x="597" y="331" type="curve"/>
      <point x="597" y="221"/>
      <point x="597" y="111"/>
      <point x="597" y="0" type="curve"/>
      <point x="660" y="0"/>
      <point x="597" y="0"/>
      <point x="660" y="0" type="curve"/>
      <point x="660" y="112"/>
      <point x="660" y="224"/>
      <point x="660" y="336" type="curve"/>
      <point x="660" y="475"/>
      <point x="595" y="538"/>
      <point x="457" y="538" type="curve"/>
      <point x="332" y="538"/>
      <point x="249" y="474"/>
      <point x="192" y="353" type="curve"/>
      <point x="223" y="328"/>
      <point x="191" y="353"/>
    </contour>
    <contour>
      <point x="236" y="0" type="curve"/>
      <point x="236" y="178"/>
      <point x="236" y="355"/>
      <point x="236" y="533" type="curve"/>
      <point x="174" y="533"/>
      <point x="236" y="533"/>
      <point x="174" y="533" type="curve"/>
      <point x="174" y="355"/>
      <point x="174" y="178"/>
      <point x="174" y="0" type="curve"/>
      <point x="236" y="0"/>
      <point x="174" y="0"/>
    </contour>
  </outline>
</glyph>
<glyph name="q" format="1">
  <advance width="799"/>
  <unicode hex="0071"/>
  <outline>
    <contour>
      <point x="631" y="484" type="curve"/>
      <point x="759" y="484"/>
      <point x="652" y="484"/>
      <point x="780" y="484" type="curve"/>
      <point x="780" y="514"/>
      <point x="780" y="503"/>
      <point x="780" y="533" type="curve"/>
      <point x="727" y="533"/>
      <point x="685" y="533"/>
      <point x="631" y="533" type="curve"/>
      <point x="631" y="503"/>
      <point x="631" y="514"/>
    </contour>
    <contour>
      <point x="631" y="-252" type="curve"/>
      <point x="491" y="-251"/>
      <point x="608" y="-252"/>
      <point x="468" y="-251" type="curve"/>
      <point x="468" y="-281"/>
      <point x="468" y="-270"/>
      <point x="468" y="-300" type="curve"/>
      <point x="527" y="-300"/>
      <point x="572" y="-300"/>
      <point x="631" y="-300" type="curve"/>
      <point x="631" y="-271"/>
      <point x="631" y="-281"/>
    </contour>
    <contour>
      <point x="631" y="-300" type="curve"/>
      <point x="685" y="-300"/>
      <point x="727" y="-300"/>
      <point x="780" y="-300" type="curve"/>
      <point x="780" y="-270"/>
      <point x="780" y="-281"/>
      <point x="780" y="-251" type="curve"/>
      <point x="652" y="-252"/>
      <point x="759" y="-251"/>
      <point x="631" y="-252" type="curve"/>
      <point x="631" y="-281"/>
      <point x="631" y="-271"/>
    </contour>
    <contour>
      <point x="644" y="424" type="curve"/>
      <point x="563" y="496"/>
      <point x="461" y="538"/>
      <point x="350" y="538" type="curve"/>
      <point x="175" y="538"/>
      <point x="60" y="435"/>
      <point x="60" y="263" type="curve"/>
      <point x="60" y="92"/>
      <point x="180" y="-5"/>
      <point x="355" y="-5" type="curve"/>
      <point x="471" y="-5"/>
      <point x="572" y="47"/>
      <point x="651" y="131" type="curve"/>
      <point x="629" y="150"/>
      <point x="638" y="146"/>
      <point x="617" y="164" type="curve"/>
      <point x="550" y="85"/>
      <point x="461" y="44"/>
      <point x="361" y="44" type="curve"/>
      <point x="220" y="44"/>
      <point x="123" y="126"/>
      <point x="123" y="266" type="curve"/>
      <point x="123" y="406"/>
      <point x="217" y="489"/>
      <point x="358" y="489" type="curve"/>
      <point x="456" y="489"/>
      <point x="549" y="450"/>
      <point x="620" y="389" type="curve"/>
      <point x="638" y="409"/>
      <point x="626" y="404"/>
    </contour>
    <contour>
      <point x="661" y="-300" type="curve"/>
      <point x="661" y="-14"/>
      <point x="661" y="247"/>
      <point x="661" y="533" type="curve"/>
      <point x="623" y="533"/>
      <point x="634" y="533"/>
      <point x="596" y="533" type="curve"/>
      <point x="596" y="247"/>
      <point x="596" y="-14"/>
      <point x="596" y="-300" type="curve"/>
      <point x="634" y="-300"/>
      <point x="623" y="-300"/>
    </contour>
  </outline>
</glyph>
<glyph name="t" format="1">
  <advance width="531"/>
  <unicode hex="0074"/>
  <outline>
    <contour>
      <point x="372" y="-3" type="move" name="bottom"/>
    </contour>
    <contour>
      <point x="19" y="484" type="curve"/>
      <point x="504" y="484" type="line"/>
      <point x="504" y="533"/>
      <point x="504" y="484"/>
      <point x="504" y="533" type="curve"/>
      <point x="19" y="533" type="line"/>
      <point x="19" y="484"/>
      <point x="19" y="533"/>
    </contour>
    <contour>
      <point x="480" y="71" type="curve"/>
      <point x="438" y="54"/>
      <point x="408" y="45"/>
      <point x="364" y="45" type="curve"/>
      <point x="289" y="45"/>
      <point x="246" y="78"/>
      <point x="246" y="154" type="curve"/>
      <point x="246" y="679" type="line"/>
      <point x="227" y="667"/>
      <point x="204" y="655"/>
      <point x="184" y="644" type="curve"/>
      <point x="184" y="151" type="line"/>
      <point x="184" y="44"/>
      <point x="250" y="-5"/>
      <point x="358" y="-5" type="curve"/>
      <point x="414" y="-5"/>
      <point x="452" y="9"/>
      <point x="498" y="28" type="curve"/>
      <point x="480" y="71"/>
      <point x="498" y="28"/>
    </contour>
  </outline>
</glyph>
<glyph name="v" format="1">
  <advance width="833"/>
  <unicode hex="0076"/>
  <outline>
    <contour>
      <point x="162" y="533" type="curve"/>
      <point x="111" y="533"/>
      <point x="59" y="533"/>
      <point x="8" y="533" type="curve"/>
      <point x="8" y="484"/>
      <point x="8" y="533"/>
      <point x="8" y="484" type="curve"/>
      <point x="162" y="484"/>
      <point x="7" y="484"/>
      <point x="162" y="484" type="curve"/>
      <point x="162" y="533"/>
      <point x="162" y="484"/>
    </contour>
    <contour>
      <point x="162" y="484" type="curve"/>
      <point x="323" y="484"/>
      <point x="162" y="484"/>
      <point x="323" y="484" type="curve"/>
      <point x="323" y="533"/>
      <point x="323" y="484"/>
      <point x="323" y="533" type="curve"/>
      <point x="269" y="533"/>
      <point x="216" y="533"/>
      <point x="162" y="533" type="curve"/>
      <point x="162" y="484"/>
      <point x="162" y="533"/>
    </contour>
    <contour>
      <point x="673" y="533" type="curve"/>
      <point x="619" y="533"/>
      <point x="566" y="533"/>
      <point x="512" y="533" type="curve"/>
      <point x="512" y="484"/>
      <point x="512" y="533"/>
      <point x="512" y="484" type="curve"/>
      <point x="674" y="484"/>
      <point x="511" y="484"/>
      <point x="673" y="484" type="curve"/>
      <point x="673" y="533"/>
      <point x="673" y="484"/>
    </contour>
    <contour>
      <point x="673" y="484" type="curve"/>
      <point x="830" y="484"/>
      <point x="672" y="484"/>
      <point x="829" y="484" type="curve"/>
      <point x="829" y="533"/>
      <point x="829" y="484"/>
      <point x="829" y="533" type="curve"/>
      <point x="777" y="533"/>
      <point x="726" y="533"/>
      <point x="673" y="533" type="curve"/>
      <point x="673" y="484"/>
      <point x="673" y="533"/>
    </contour>
    <contour>
      <point x="112" y="533" type="curve"/>
      <point x="200" y="355"/>
      <point x="289" y="178"/>
      <point x="377" y="0" type="curve"/>
      <point x="439" y="0"/>
      <point x="377" y="0"/>
      <point x="439" y="0" type="curve"/>
      <point x="352" y="178"/>
      <point x="264" y="355"/>
      <point x="177" y="533" type="curve"/>
      <point x="112" y="533"/>
      <point x="177" y="533"/>
    </contour>
    <contour>
      <point x="660" y="533" type="curve"/>
      <point x="383" y="0" type="line"/>
      <point x="446" y="0"/>
      <point x="383" y="0"/>
      <point x="446" y="0" type="curve"/>
      <point x="539" y="178"/>
      <point x="631" y="355"/>
      <point x="723" y="533" type="curve"/>
      <point x="660" y="533"/>
      <point x="723" y="533"/>
    </contour>
  </outline>
</glyph>
<glyph name="w" format="1">
  <advance width="1252"/>
  <unicode hex="0077"/>
  <outline>
    <contour>
      <point x="1087" y="484" type="curve"/>
      <point x="1247" y="484"/>
      <point x="1086" y="484"/>
      <point x="1246" y="484" type="curve"/>
      <point x="1246" y="533"/>
      <point x="1246" y="484"/>
      <point x="1246" y="533" type="curve"/>
      <point x="1192" y="533"/>
      <point x="1139" y="533"/>
      <point x="1087" y="533" type="curve"/>
      <point x="1087" y="484"/>
      <point x="1087" y="533"/>
    </contour>
    <contour>
      <point x="1087" y="533" type="curve"/>
      <point x="1033" y="533"/>
      <point x="981" y="533"/>
      <point x="928" y="533" type="curve"/>
      <point x="928" y="484"/>
      <point x="928" y="533"/>
      <point x="928" y="484" type="curve"/>
      <point x="1088" y="484"/>
      <point x="926" y="484"/>
      <point x="1087" y="484" type="curve"/>
      <point x="1087" y="533"/>
      <point x="1087" y="484"/>
    </contour>
    <contour>
      <point x="166" y="533" type="curve"/>
      <point x="113" y="533"/>
      <point x="59" y="533"/>
      <point x="6" y="533" type="curve"/>
      <point x="6" y="484"/>
      <point x="6" y="533"/>
      <point x="6" y="484" type="curve"/>
      <point x="166" y="484"/>
      <point x="6" y="484"/>
      <point x="166" y="484" type="curve"/>
      <point x="166" y="533"/>
      <point x="166" y="484"/>
    </contour>
    <contour>
      <point x="166" y="484" type="curve"/>
      <point x="326" y="484"/>
      <point x="165" y="484"/>
      <point x="325" y="484" type="curve"/>
      <point x="325" y="533"/>
      <point x="325" y="484"/>
      <point x="325" y="533" type="curve"/>
      <point x="271" y="533"/>
      <point x="220" y="533"/>
      <point x="166" y="533" type="curve"/>
      <point x="166" y="484"/>
      <point x="166" y="533"/>
    </contour>
    <contour>
      <point x="404" y="0" type="curve"/>
      <point x="491" y="178"/>
      <point x="577" y="355"/>
      <point x="662" y="533" type="curve"/>
      <point x="599" y="533"/>
      <point x="662" y="533"/>
      <point x="599" y="533" type="curve"/>
      <point x="514" y="355"/>
      <point x="429" y="178"/>
      <point x="343" y="0" type="curve"/>
      <point x="404" y="0"/>
      <point x="343" y="0"/>
    </contour>
    <contour>
      <point x="1079" y="533" type="curve"/>
      <point x="999" y="355"/>
      <point x="920" y="178"/>
      <point x="841" y="0" type="curve"/>
      <point x="901" y="0"/>
      <point x="841" y="0"/>
      <point x="901" y="0" type="curve"/>
      <point x="982" y="178"/>
      <point x="1062" y="355"/>
      <point x="1143" y="533" type="curve"/>
      <point x="1079" y="533"/>
      <point x="1143" y="533"/>
    </contour>
    <contour>
      <point x="607" y="533" type="curve"/>
      <point x="684" y="355"/>
      <point x="761" y="178"/>
      <point x="839" y="0" type="curve"/>
      <point x="899" y="0"/>
      <point x="839" y="0"/>
      <point x="899" y="0" type="curve"/>
      <point x="823" y="178"/>
      <point x="746" y="355"/>
      <point x="669" y="533" type="curve"/>
      <point x="607" y="533"/>
      <point x="669" y="533"/>
    </contour>
    <contour>
      <point x="110" y="533" type="curve"/>
      <point x="188" y="355"/>
      <point x="265" y="178"/>
      <point x="342" y="0" type="curve"/>
      <point x="403" y="0"/>
      <point x="342" y="0"/>
      <point x="403" y="0" type="curve"/>
      <point x="326" y="178"/>
      <point x="250" y="355"/>
      <point x="174" y="533" type="curve"/>
      <point x="110" y="533"/>
      <point x="174" y="533"/>
    </contour>
  </outline>
</glyph>
<glyph name="x" format="1">
  <advance width="836"/>
  <unicode hex="0078"/>
  <outline>
    <contour>
      <point x="161" y="49" type="curve"/>
      <point x="-3" y="49"/>
      <point x="172" y="49"/>
      <point x="8" y="49" type="curve"/>
      <point x="8" y="0"/>
      <point x="8" y="49"/>
      <point x="8" y="0" type="curve"/>
      <point x="62" y="0"/>
      <point x="106" y="0"/>
      <point x="161" y="0" type="curve"/>
      <point x="161" y="49"/>
      <point x="161" y="0"/>
    </contour>
    <contour>
      <point x="678" y="49" type="curve"/>
      <point x="497" y="49"/>
      <point x="683" y="49"/>
      <point x="502" y="49" type="curve"/>
      <point x="502" y="0"/>
      <point x="502" y="49"/>
      <point x="502" y="0" type="curve"/>
      <point x="562" y="0"/>
      <point x="617" y="0"/>
      <point x="678" y="0" type="curve"/>
      <point x="678" y="49"/>
      <point x="678" y="0"/>
    </contour>
    <contour>
      <point x="677" y="0" type="curve"/>
      <point x="730" y="0"/>
      <point x="775" y="0"/>
      <point x="828" y="0" type="curve"/>
      <point x="828" y="49"/>
      <point x="828" y="0"/>
      <point x="828" y="49" type="curve"/>
      <point x="667" y="49"/>
      <point x="838" y="49"/>
      <point x="677" y="49" type="curve"/>
      <point x="677" y="0"/>
      <point x="677" y="49"/>
    </contour>
    <contour>
      <point x="161" y="0" type="curve"/>
      <point x="221" y="0"/>
      <point x="155" y="0"/>
      <point x="336" y="0" type="curve"/>
      <point x="336" y="49"/>
      <point x="336" y="0"/>
      <point x="336" y="49" type="curve"/>
      <point x="155" y="49"/>
      <point x="341" y="49"/>
      <point x="161" y="49" type="curve"/>
      <point x="161" y="0"/>
      <point x="161" y="49"/>
    </contour>
    <contour>
      <point x="652" y="484" type="curve"/>
      <point x="816" y="484"/>
      <point x="641" y="484"/>
      <point x="805" y="484" type="curve"/>
      <point x="805" y="533"/>
      <point x="805" y="484"/>
      <point x="805" y="533" type="curve"/>
      <point x="751" y="533"/>
      <point x="706" y="533"/>
      <point x="652" y="533" type="curve"/>
      <point x="652" y="484"/>
      <point x="652" y="533"/>
    </contour>
    <contour>
      <point x="190" y="533" type="curve"/>
      <point x="135" y="533"/>
      <point x="91" y="533"/>
      <point x="36" y="533" type="curve"/>
      <point x="36" y="484"/>
      <point x="36" y="533"/>
      <point x="36" y="484" type="curve"/>
      <point x="201" y="484"/>
      <point x="26" y="484"/>
      <point x="190" y="484" type="curve"/>
      <point x="190" y="533"/>
      <point x="190" y="484"/>
    </contour>
    <contour>
      <point x="182" y="484" type="curve"/>
      <point x="360" y="484"/>
      <point x="173" y="484"/>
      <point x="350" y="484" type="curve"/>
      <point x="350" y="533"/>
      <point x="350" y="484"/>
      <point x="350" y="533" type="curve"/>
      <point x="290" y="533"/>
      <point x="241" y="533"/>
      <point x="182" y="533" type="curve"/>
      <point x="182" y="484"/>
      <point x="182" y="533"/>
    </contour>
    <contour>
      <point x="652" y="533" type="curve"/>
      <point x="596" y="533"/>
      <point x="547" y="533"/>
      <point x="491" y="533" type="curve"/>
      <point x="491" y="484"/>
      <point x="491" y="533"/>
      <point x="491" y="484" type="curve"/>
      <point x="661" y="484"/>
      <point x="482" y="484"/>
      <point x="652" y="484" type="curve"/>
      <point x="652" y="533"/>
      <point x="652" y="484"/>
    </contour>
    <contour>
      <point x="721" y="15" type="curve"/>
      <point x="593" y="143"/>
      <point x="318" y="405"/>
      <point x="190" y="533" type="curve"/>
      <point x="122" y="533"/>
      <point x="205" y="518"/>
      <point x="137" y="518" type="curve"/>
      <point x="265" y="390"/>
      <point x="535" y="128"/>
      <point x="662" y="0" type="curve"/>
      <point x="736" y="0"/>
      <point x="647" y="15"/>
    </contour>
    <contour>
      <point x="653" y="533" type="curve"/>
      <point x="524" y="405"/>
      <point x="244" y="142"/>
      <point x="114" y="15" type="curve"/>
      <point x="190" y="15"/>
      <point x="100" y="0"/>
      <point x="176" y="0" type="curve"/>
      <point x="304" y="128"/>
      <point x="575" y="388"/>
      <point x="704" y="515" type="curve"/>
      <point x="636" y="515"/>
      <point x="721" y="533"/>
    </contour>
  </outline>
</glyph>
<glyph name="y" format="1">
  <advance width="903"/>
  <unicode hex="0079"/>
  <outline>
    <contour>
      <point x="445" y="653" type="move" name="top"/>
    </contour>
    <contour>
      <point x="273" y="-251" type="curve"/>
      <point x="124" y="-251"/>
      <point x="274" y="-251"/>
      <point x="125" y="-251" type="curve"/>
      <point x="125" y="-300"/>
      <point x="125" y="-251"/>
      <point x="125" y="-300" type="curve"/>
      <point x="175" y="-300"/>
      <point x="224" y="-300"/>
      <point x="273" y="-300" type="curve"/>
      <point x="273" y="-251"/>
      <point x="273" y="-300"/>
    </contour>
    <contour>
      <point x="173" y="533" type="curve"/>
      <point x="119" y="533"/>
      <point x="65" y="533"/>
      <point x="10" y="533" type="curve"/>
      <point x="10" y="484"/>
      <point x="10" y="533"/>
      <point x="10" y="484" type="curve"/>
      <point x="174" y="484"/>
      <point x="9" y="484"/>
      <point x="173" y="484" type="curve"/>
      <point x="173" y="533"/>
      <point x="173" y="484"/>
    </contour>
    <contour>
      <point x="173" y="484" type="curve"/>
      <point x="339" y="484"/>
      <point x="173" y="484"/>
      <point x="338" y="484" type="curve"/>
      <point x="338" y="533"/>
      <point x="338" y="484"/>
      <point x="338" y="533" type="curve"/>
      <point x="284" y="533"/>
      <point x="229" y="533"/>
      <point x="173" y="533" type="curve"/>
      <point x="173" y="484"/>
      <point x="173" y="533"/>
    </contour>
    <contour>
      <point x="736" y="533" type="curve"/>
      <point x="680" y="533"/>
      <point x="623" y="533"/>
      <point x="568" y="533" type="curve"/>
      <point x="568" y="484"/>
      <point x="568" y="533"/>
      <point x="568" y="484" type="curve"/>
      <point x="737" y="484"/>
      <point x="567" y="484"/>
      <point x="736" y="484" type="curve"/>
      <point x="736" y="533"/>
      <point x="736" y="484"/>
    </contour>
    <contour>
      <point x="736" y="484" type="curve"/>
      <point x="896" y="484"/>
      <point x="735" y="484"/>
      <point x="895" y="484" type="curve"/>
      <point x="895" y="533"/>
      <point x="895" y="484"/>
      <point x="895" y="533" type="curve"/>
      <point x="842" y="533"/>
      <point x="789" y="533"/>
      <point x="736" y="533" type="curve"/>
      <point x="736" y="484"/>
      <point x="736" y="533"/>
    </contour>
    <contour>
      <point x="466" y="4" type="curve"/>
      <point x="396" y="122"/>
      <point x="251" y="415"/>
      <point x="180" y="533" type="curve"/>
      <point x="115" y="533"/>
      <point x="180" y="533"/>
      <point x="115" y="533" type="curve"/>
      <point x="187" y="415"/>
      <point x="338" y="114"/>
      <point x="410" y="-4" type="curve"/>
      <point x="466" y="-4"/>
      <point x="410" y="4"/>
    </contour>
    <contour>
      <point x="294" y="-300" type="curve"/>
      <point x="414" y="-113"/>
      <point x="671" y="346"/>
      <point x="792" y="533" type="curve"/>
      <point x="727" y="533"/>
      <point x="792" y="533"/>
      <point x="727" y="533" type="curve"/>
      <point x="605" y="346"/>
      <point x="349" y="-113"/>
      <point x="228" y="-300" type="curve"/>
      <point x="294" y="-300"/>
      <point x="228" y="-300"/>
    </contour>
  </outline>
</glyph>
<glyph name="z" format="1">
  <advance width="644"/>
  <unicode hex="007A"/>
  <outline>
    <contour>
      <point x="319" y="652" type="move" name="top"/>
    </contour>
    <contour>
      <point x="71" y="484" type="curve"/>
      <point x="231" y="484"/>
      <point x="388" y="484"/>
      <point x="548" y="484" type="curve"/>
      <point x="543" y="490"/>
      <point x="534" y="489"/>
      <point x="529" y="495" type="curve"/>
      <point x="526" y="500"/>
      <point x="524" y="505"/>
      <point x="520" y="509" type="curve"/>
      <point x="515" y="505"/>
      <point x="509" y="504"/>
      <point x="504" y="499" type="curve"/>
      <point x="53" y="49" type="line"/>
      <point x="53" y="24"/>
      <point x="53" y="49"/>
      <point x="53" y="24" type="curve"/>
      <point x="53" y="0"/>
      <point x="53" y="24"/>
      <point x="53" y="0" type="curve"/>
      <point x="73" y="0"/>
      <point x="53" y="0"/>
      <point x="73" y="0" type="curve"/>
      <point x="599" y="0"/>
      <point x="420" y="0"/>
      <point x="596" y="0" type="curve"/>
      <point x="596" y="49"/>
      <point x="596" y="0"/>
      <point x="596" y="49" type="curve"/>
      <point x="420" y="49"/>
      <point x="248" y="49"/>
      <point x="73" y="49" type="curve"/>
      <point x="77" y="45"/>
      <point x="83" y="43"/>
      <point x="89" y="40" type="curve"/>
      <point x="92" y="35"/>
      <point x="97" y="28"/>
      <point x="101" y="24" type="curve"/>
      <point x="106" y="28"/>
      <point x="109" y="29"/>
      <point x="114" y="34" type="curve"/>
      <point x="565" y="484" type="line"/>
      <point x="565" y="509"/>
      <point x="565" y="484"/>
      <point x="565" y="509" type="curve"/>
      <point x="565" y="533"/>
      <point x="565" y="509"/>
      <point x="565" y="533" type="curve"/>
      <point x="548" y="533"/>
      <point x="565" y="533"/>
      <point x="548" y="533" type="curve"/>
      <point x="388" y="533"/>
      <point x="231" y="533"/>
      <point x="71" y="533" type="curve"/>
      <point x="71" y="484"/>
      <point x="71" y="533"/>
    </contour>
    <contour>
      <point x="71" y="509" type="curve"/>
      <point x="71" y="389"/>
      <point x="71" y="509"/>
      <point x="71" y="389" type="curve"/>
      <point x="121" y="389"/>
      <point x="71" y="389"/>
      <point x="121" y="389" type="curve"/>
      <point x="121" y="509"/>
      <point x="121" y="389"/>
      <point x="121" y="509" type="curve"/>
      <point x="71" y="509"/>
      <point x="121" y="509"/>
    </contour>
    <contour>
      <point x="596" y="24" type="curve"/>
      <point x="596" y="144"/>
      <point x="596" y="24"/>
      <point x="596" y="144" type="curve"/>
      <point x="546" y="144"/>
      <point x="596" y="144"/>
      <point x="546" y="144" type="curve"/>
      <point x="546" y="24"/>
      <point x="546" y="144"/>
      <point x="546" y="24" type="curve"/>
      <point x="596" y="24"/>
      <point x="546" y="24"/>
    </contour>
  </outline>
</glyph>
<glyph name="braceleft" format="1">
  <advance width="386"/>
  <unicode hex="007B"/>
  <outline>
    <contour>
      <point x="335" y="-71" type="curve"/>
      <point x="263" y="-71"/>
      <point x="215" y="-32"/>
      <point x="215" y="38" type="curve"/>
      <point x="215" y="95"/>
      <point x="215" y="151"/>
      <point x="215" y="208" type="curve"/>
      <point x="215" y="308"/>
      <point x="144" y="365"/>
      <point x="41" y="365" type="curve"/>
      <point x="41" y="314"/>
      <point x="41" y="365"/>
      <point x="41" y="314" type="curve"/>
      <point x="110" y="314"/>
      <point x="159" y="280"/>
      <point x="159" y="212" type="curve"/>
      <point x="159" y="155"/>
      <point x="159" y="98"/>
      <point x="159" y="41" type="curve"/>
      <point x="159" y="-62"/>
      <point x="230" y="-118"/>
      <point x="335" y="-118" type="curve"/>
      <point x="335" y="-71"/>
      <point x="335" y="-118"/>
    </contour>
    <contour>
      <point x="335" y="797" type="curve"/>
      <point x="229" y="797"/>
      <point x="159" y="742"/>
      <point x="159" y="639" type="curve"/>
      <point x="159" y="581"/>
      <point x="159" y="522"/>
      <point x="159" y="464" type="curve"/>
      <point x="159" y="397"/>
      <point x="110" y="365"/>
      <point x="41" y="365" type="curve"/>
      <point x="41" y="314"/>
      <point x="41" y="365"/>
      <point x="41" y="314" type="curve"/>
      <point x="144" y="314"/>
      <point x="215" y="370"/>
      <point x="215" y="471" type="curve"/>
      <point x="215" y="527"/>
      <point x="215" y="583"/>
      <point x="215" y="639" type="curve"/>
      <point x="215" y="709"/>
      <point x="262" y="749"/>
      <point x="335" y="749" type="curve"/>
      <point x="335" y="797"/>
      <point x="335" y="749"/>
    </contour>
  </outline>
</glyph>
<glyph name="bar" format="1">
  <advance width="231"/>
  <unicode hex="007C"/>
  <outline>
    <contour>
      <point x="147" y="-300" type="curve"/>
      <point x="147" y="67"/>
      <point x="147" y="433"/>
      <point x="147" y="800" type="curve"/>
      <point x="85" y="800"/>
      <point x="147" y="800"/>
      <point x="85" y="800" type="curve"/>
      <point x="85" y="433"/>
      <point x="85" y="67"/>
      <point x="85" y="-300" type="curve"/>
      <point x="147" y="-300"/>
      <point x="85" y="-300"/>
    </contour>
  </outline>
</glyph>
<glyph name="braceright" format="1">
  <advance width="386"/>
  <unicode hex="007D"/>
  <outline>
    <contour>
      <point x="51" y="-119" type="curve"/>
      <point x="157" y="-119"/>
      <point x="226" y="-62"/>
      <point x="226" y="41" type="curve"/>
      <point x="226" y="98"/>
      <point x="226" y="155"/>
      <point x="226" y="212" type="curve"/>
      <point x="226" y="279"/>
      <point x="276" y="314"/>
      <point x="345" y="314" type="curve"/>
      <point x="345" y="364"/>
      <point x="345" y="314"/>
      <point x="345" y="364" type="curve"/>
      <point x="242" y="364"/>
      <point x="170" y="307"/>
      <point x="170" y="208" type="curve"/>
      <point x="170" y="151"/>
      <point x="170" y="95"/>
      <point x="170" y="38" type="curve"/>
      <point x="170" y="-32"/>
      <point x="123" y="-71"/>
      <point x="51" y="-71" type="curve"/>
      <point x="51" y="-119"/>
      <point x="51" y="-71"/>
    </contour>
    <contour>
      <point x="51" y="748" type="curve"/>
      <point x="124" y="748"/>
      <point x="170" y="709"/>
      <point x="170" y="639" type="curve"/>
      <point x="170" y="583"/>
      <point x="170" y="527"/>
      <point x="170" y="471" type="curve"/>
      <point x="170" y="369"/>
      <point x="241" y="314"/>
      <point x="345" y="314" type="curve"/>
      <point x="345" y="364"/>
      <point x="345" y="314"/>
      <point x="345" y="364" type="curve"/>
      <point x="275" y="364"/>
      <point x="226" y="397"/>
      <point x="226" y="464" type="curve"/>
      <point x="226" y="522"/>
      <point x="226" y="581"/>
      <point x="226" y="639" type="curve"/>
      <point x="226" y="741"/>
      <point x="156" y="796"/>
      <point x="51" y="796" type="curve"/>
      <point x="51" y="748"/>
      <point x="51" y="796"/>
    </contour>
  </outline>
</glyph>
<glyph name="asciitilde" format="1">
  <advance width="825"/>
  <unicode hex="007E"/>
  <outline>
    <contour>
      <point x="692" y="354" type="curve"/>
      <point x="668" y="304"/>
      <point x="636" y="259"/>
      <point x="572" y="259" type="curve"/>
      <point x="515" y="259"/>
      <point x="476" y="272"/>
      <point x="427" y="304" type="curve"/>
      <point x="372" y="340"/>
      <point x="330" y="359"/>
      <point x="265" y="359" type="curve"/>
      <point x="168" y="359"/>
      <point x="116" y="319"/>
      <point x="85" y="234" type="curve"/>
      <point x="111" y="222"/>
      <point x="105" y="224"/>
      <point x="130" y="213" type="curve"/>
      <point x="152" y="274"/>
      <point x="190" y="311"/>
      <point x="262" y="311" type="curve"/>
      <point x="312" y="311"/>
      <point x="345" y="299"/>
      <point x="386" y="271" type="curve"/>
      <point x="448" y="232"/>
      <point x="493" y="213"/>
      <point x="567" y="212" type="curve"/>
      <point x="659" y="212"/>
      <point x="706" y="258"/>
      <point x="740" y="334" type="curve"/>
      <point x="713" y="345"/>
      <point x="719" y="344"/>
    </contour>
  </outline>
</glyph>
<glyph name="cent" format="1">
  <advance width="787"/>
  <unicode hex="00A2"/>
  <outline>
    <contour>
      <point x="442" y="-53" type="curve"/>
      <point x="442" y="-13"/>
      <point x="442" y="27"/>
      <point x="442" y="67" type="curve"/>
      <point x="380" y="67"/>
      <point x="442" y="67"/>
      <point x="380" y="67" type="curve"/>
      <point x="380" y="27"/>
      <point x="380" y="-13"/>
      <point x="380" y="-53" type="curve"/>
      <point x="442" y="-53"/>
      <point x="380" y="-53"/>
    </contour>
    <contour>
      <point x="407" y="778" type="curve"/>
      <point x="407" y="742"/>
      <point x="407" y="706"/>
      <point x="407" y="670" type="curve"/>
      <point x="468" y="670"/>
      <point x="407" y="670"/>
      <point x="468" y="670" type="curve"/>
      <point x="468" y="706"/>
      <point x="468" y="742"/>
      <point x="468" y="778" type="curve"/>
      <point x="407" y="778"/>
      <point x="468" y="778"/>
    </contour>
    <contour>
      <point x="724" y="611" type="curve"/>
      <point x="629" y="663"/>
      <point x="553" y="681"/>
      <point x="444" y="681" type="curve"/>
      <point x="221" y="681"/>
      <point x="60" y="576"/>
      <point x="60" y="365" type="curve"/>
      <point x="60" y="166"/>
      <point x="199" y="51"/>
      <point x="407" y="51" type="curve"/>
      <point x="530" y="51"/>
      <point x="617" y="79"/>
      <point x="723" y="143" type="curve"/>
      <point x="688" y="184"/>
      <point x="723" y="143"/>
      <point x="688" y="184" type="curve"/>
      <point x="594" y="125"/>
      <point x="519" y="101"/>
      <point x="413" y="101" type="curve"/>
      <point x="238" y="101"/>
      <point x="122" y="199"/>
      <point x="122" y="368" type="curve"/>
      <point x="122" y="543"/>
      <point x="254" y="631"/>
      <point x="439" y="631" type="curve"/>
      <point x="536" y="631"/>
      <point x="605" y="615"/>
      <point x="695" y="568" type="curve"/>
      <point x="724" y="611"/>
      <point x="695" y="568"/>
    </contour>
    <contour>
      <point x="673" y="611" type="curve"/>
      <point x="673" y="489"/>
      <point x="673" y="602"/>
      <point x="673" y="480" type="curve"/>
      <point x="724" y="480"/>
      <point x="673" y="480"/>
      <point x="724" y="480" type="curve"/>
      <point x="724" y="602"/>
      <point x="724" y="489"/>
      <point x="724" y="611" type="curve"/>
      <point x="673" y="611"/>
      <point x="724" y="611"/>
    </contour>
  </outline>
</glyph>
<glyph name="sterling" format="1">
  <advance width="638"/>
  <unicode hex="00A3"/>
  <outline>
    <contour>
      <point x="564" y="49" type="curve"/>
      <point x="392" y="49"/>
      <point x="221" y="49"/>
      <point x="51" y="49" type="curve"/>
      <point x="51" y="1"/>
      <point x="51" y="49"/>
      <point x="51" y="1" type="curve"/>
      <point x="221" y="1"/>
      <point x="392" y="1"/>
      <point x="564" y="1" type="curve"/>
      <point x="564" y="49"/>
      <point x="564" y="1"/>
    </contour>
    <contour>
      <point x="504" y="401" type="curve"/>
      <point x="368" y="401"/>
      <point x="231" y="401"/>
      <point x="95" y="401" type="curve"/>
      <point x="95" y="353"/>
      <point x="95" y="401"/>
      <point x="95" y="353" type="curve"/>
      <point x="231" y="353"/>
      <point x="368" y="353"/>
      <point x="504" y="353" type="curve"/>
      <point x="504" y="401"/>
      <point x="504" y="353"/>
    </contour>
    <contour>
      <point x="583" y="670" type="curve"/>
      <point x="524" y="707"/>
      <point x="476" y="721"/>
      <point x="406" y="721" type="curve"/>
      <point x="233" y="721"/>
      <point x="147" y="565"/>
      <point x="199" y="372" type="curve"/>
      <point x="245" y="198"/>
      <point x="192" y="49"/>
      <point x="51" y="49" type="curve"/>
      <point x="51" y="1"/>
      <point x="51" y="49"/>
      <point x="51" y="1" type="curve"/>
      <point x="238" y="1"/>
      <point x="315" y="175"/>
      <point x="260" y="381" type="curve"/>
      <point x="218" y="540"/>
      <point x="278" y="676"/>
      <point x="404" y="676" type="curve"/>
      <point x="462" y="676"/>
      <point x="503" y="664"/>
      <point x="554" y="634" type="curve"/>
      <point x="583" y="670"/>
      <point x="554" y="634"/>
    </contour>
  </outline>
</glyph>
<glyph name="brokenbar" format="1">
  <advance width="254"/>
  <unicode hex="00A6"/>
  <outline>
    <contour>
      <point x="158" y="-300" type="curve"/>
      <point x="158" y="-176"/>
      <point x="158" y="-52"/>
      <point x="158" y="72" type="curve"/>
      <point x="97" y="72"/>
      <point x="158" y="72"/>
      <point x="97" y="72" type="curve"/>
      <point x="97" y="-52"/>
      <point x="97" y="-176"/>
      <point x="97" y="-300" type="curve"/>
      <point x="158" y="-300"/>
      <point x="97" y="-300"/>
    </contour>
    <contour>
      <point x="158" y="428" type="curve"/>
      <point x="158" y="552"/>
      <point x="158" y="676"/>
      <point x="158" y="800" type="curve"/>
      <point x="97" y="800"/>
      <point x="158" y="800"/>
      <point x="97" y="800" type="curve"/>
      <point x="97" y="676"/>
      <point x="97" y="552"/>
      <point x="97" y="428" type="curve"/>
      <point x="158" y="428"/>
      <point x="97" y="428"/>
    </contour>
  </outline>
</glyph>
<glyph name="section" format="1">
  <advance width="609"/>
  <unicode hex="00A7"/>
  <outline>
    <contour>
      <point x="498" y="707" type="curve"/>
      <point x="431" y="736"/>
      <point x="380" y="751"/>
      <point x="306" y="751" type="curve"/>
      <point x="195" y="751"/>
      <point x="111" y="712"/>
      <point x="111" y="617" type="curve"/>
      <point x="111" y="527"/>
      <point x="184" y="492"/>
      <point x="276" y="467" type="curve"/>
      <point x="374" y="441"/>
      <point x="484" y="444"/>
      <point x="484" y="359" type="curve"/>
      <point x="484" y="287"/>
      <point x="418" y="257"/>
      <point x="333" y="244" type="curve"/>
      <point x="369" y="206"/>
      <point x="333" y="244"/>
      <point x="369" y="206" type="curve"/>
      <point x="470" y="225"/>
      <point x="546" y="266"/>
      <point x="546" y="361" type="curve"/>
      <point x="545" y="477"/>
      <point x="427" y="484"/>
      <point x="307" y="513" type="curve"/>
      <point x="236" y="531"/>
      <point x="172" y="552"/>
      <point x="172" y="617" type="curve"/>
      <point x="172" y="679"/>
      <point x="227" y="703"/>
      <point x="301" y="703" type="curve"/>
      <point x="366" y="703"/>
      <point x="411" y="692"/>
      <point x="474" y="666" type="curve"/>
      <point x="498" y="707"/>
      <point x="474" y="666"/>
    </contour>
    <contour>
      <point x="235" y="518" type="curve"/>
      <point x="141" y="495"/>
      <point x="67" y="458"/>
      <point x="67" y="367" type="curve"/>
      <point x="67" y="258"/>
      <point x="171" y="240"/>
      <point x="285" y="212" type="curve"/>
      <point x="366" y="190"/>
      <point x="447" y="178"/>
      <point x="447" y="108" type="curve"/>
      <point x="447" y="45"/>
      <point x="385" y="20"/>
      <point x="308" y="20" type="curve"/>
      <point x="235" y="20"/>
      <point x="185" y="34"/>
      <point x="116" y="68" type="curve"/>
      <point x="87" y="30"/>
      <point x="116" y="68"/>
      <point x="87" y="30" type="curve"/>
      <point x="161" y="-12"/>
      <point x="221" y="-28"/>
      <point x="305" y="-28" type="curve"/>
      <point x="418" y="-28"/>
      <point x="508" y="8"/>
      <point x="508" y="110" type="curve"/>
      <point x="507" y="205"/>
      <point x="423" y="234"/>
      <point x="324" y="257" type="curve"/>
      <point x="229" y="282"/>
      <point x="129" y="288"/>
      <point x="129" y="370" type="curve"/>
      <point x="129" y="440"/>
      <point x="190" y="463"/>
      <point x="265" y="482" type="curve"/>
      <point x="235" y="518"/>
      <point x="265" y="482"/>
    </contour>
    <contour>
      <point x="137" y="30" type="curve"/>
      <point x="137" y="150"/>
      <point x="137" y="32"/>
      <point x="137" y="152" type="curve"/>
      <point x="87" y="152"/>
      <point x="137" y="152"/>
      <point x="87" y="152" type="curve"/>
      <point x="87" y="32"/>
      <point x="87" y="150"/>
      <point x="87" y="30" type="curve"/>
      <point x="137" y="30"/>
      <point x="87" y="30"/>
    </contour>
    <contour>
      <point x="498" y="585" type="curve"/>
      <point x="498" y="705"/>
      <point x="498" y="587"/>
      <point x="498" y="707" type="curve"/>
      <point x="448" y="707"/>
      <point x="498" y="707"/>
      <point x="448" y="707" type="curve"/>
      <point x="448" y="587"/>
      <point x="448" y="705"/>
      <point x="448" y="585" type="curve"/>
      <point x="498" y="585"/>
      <point x="448" y="585"/>
    </contour>
  </outline>
</glyph>
<glyph name="dieresis" format="1">
  <advance width="422"/>
  <unicode hex="00A8"/>
  <outline>
    <contour>
      <point x="177" y="610" type="move" name="_top"/>
    </contour>
    <contour>
      <point x="127" y="643" type="curve"/>
      <point x="127" y="666"/>
      <point x="110" y="678"/>
      <point x="86" y="678" type="curve"/>
      <point x="64" y="678"/>
      <point x="48" y="665"/>
      <point x="48" y="643" type="curve"/>
      <point x="112" y="643"/>
      <point x="63" y="643"/>
      <point x="127" y="643" type="curve"/>
      <point x="127" y="621"/>
      <point x="110" y="609"/>
      <point x="86" y="609" type="curve"/>
      <point x="63" y="609"/>
      <point x="48" y="621"/>
      <point x="48" y="643" type="curve"/>
      <point x="112" y="643"/>
      <point x="63" y="643"/>
    </contour>
    <contour>
      <point x="305" y="643" type="curve"/>
      <point x="305" y="666"/>
      <point x="288" y="678"/>
      <point x="264" y="678" type="curve"/>
      <point x="241" y="678"/>
      <point x="225" y="665"/>
      <point x="225" y="643" type="curve"/>
      <point x="289" y="643"/>
      <point x="241" y="643"/>
      <point x="305" y="643" type="curve"/>
      <point x="305" y="621"/>
      <point x="288" y="609"/>
      <point x="264" y="609" type="curve"/>
      <point x="241" y="609"/>
      <point x="225" y="621"/>
      <point x="225" y="643" type="curve"/>
      <point x="289" y="643"/>
      <point x="241" y="643"/>
    </contour>
  </outline>
</glyph>
<glyph name="copyright" format="1">
  <advance width="954"/>
  <unicode hex="00A9"/>
  <outline>
    <contour>
      <point x="118" y="321" type="curve"/>
      <point x="118" y="508"/>
      <point x="280" y="604"/>
      <point x="481" y="604" type="curve"/>
      <point x="678" y="604"/>
      <point x="836" y="505"/>
      <point x="836" y="319" type="curve"/>
      <point x="836" y="139"/>
      <point x="683" y="40"/>
      <point x="490" y="40" type="curve"/>
      <point x="287" y="40"/>
      <point x="118" y="132"/>
      <point x="118" y="321" type="curve"/>
      <point x="66" y="321"/>
      <point x="118" y="321"/>
      <point x="66" y="321" type="curve"/>
      <point x="66" y="107"/>
      <point x="255" y="-1"/>
      <point x="488" y="-1" type="curve"/>
      <point x="712" y="-1"/>
      <point x="888" y="112"/>
      <point x="888" y="321" type="curve"/>
      <point x="888" y="532"/>
      <point x="708" y="645"/>
      <point x="481" y="645" type="curve"/>
      <point x="252" y="645"/>
      <point x="66" y="535"/>
      <point x="66" y="321" type="curve"/>
      <point x="118" y="321"/>
      <point x="66" y="321"/>
    </contour>
    <contour>
      <point x="593" y="441" type="curve"/>
      <point x="593" y="421"/>
      <point x="593" y="401"/>
      <point x="593" y="380" type="curve"/>
      <point x="641" y="380"/>
      <point x="594" y="380"/>
      <point x="641" y="380" type="curve"/>
      <point x="641" y="409"/>
      <point x="641" y="437"/>
      <point x="641" y="466" type="curve"/>
      <point x="594" y="443"/>
      <point x="641" y="464"/>
    </contour>
    <contour>
      <point x="642" y="466" type="curve"/>
      <point x="592" y="491"/>
      <point x="547" y="501"/>
      <point x="489" y="501" type="curve"/>
      <point x="360" y="501"/>
      <point x="268" y="440"/>
      <point x="268" y="320" type="curve"/>
      <point x="268" y="206"/>
      <point x="352" y="144"/>
      <point x="472" y="144" type="curve"/>
      <point x="543" y="144"/>
      <point x="594" y="153"/>
      <point x="655" y="192" type="curve"/>
      <point x="627" y="224"/>
      <point x="655" y="192"/>
      <point x="627" y="224" type="curve"/>
      <point x="573" y="193"/>
      <point x="532" y="184"/>
      <point x="474" y="184" type="curve"/>
      <point x="383" y="184"/>
      <point x="321" y="234"/>
      <point x="321" y="322" type="curve"/>
      <point x="321" y="413"/>
      <point x="388" y="460"/>
      <point x="487" y="460" type="curve"/>
      <point x="531" y="460"/>
      <point x="560" y="454"/>
      <point x="594" y="441" type="curve"/>
      <point x="642" y="464"/>
      <point x="594" y="443"/>
    </contour>
  </outline>
</glyph>
<glyph name="ordfeminine" format="1">
  <advance width="548"/>
  <unicode hex="00AA"/>
  <outline>
    <contour>
      <point x="91" y="720" type="curve"/>
      <point x="91" y="678"/>
      <point x="91" y="687"/>
      <point x="91" y="645" type="curve"/>
      <point x="120" y="645"/>
      <point x="101" y="645"/>
      <point x="130" y="645" type="curve"/>
      <point x="130" y="687"/>
      <point x="130" y="678"/>
      <point x="130" y="720" type="curve"/>
      <point x="101" y="720"/>
      <point x="120" y="720"/>
    </contour>
    <contour>
      <point x="409" y="426" type="curve"/>
      <point x="409" y="517"/>
      <point x="409" y="586"/>
      <point x="409" y="677" type="curve"/>
      <point x="409" y="754"/>
      <point x="336" y="771"/>
      <point x="250" y="771" type="curve"/>
      <point x="185" y="771"/>
      <point x="129" y="750"/>
      <point x="91" y="720" type="curve"/>
      <point x="104" y="696"/>
      <point x="96" y="711"/>
      <point x="110" y="688" type="curve"/>
      <point x="141" y="711"/>
      <point x="188" y="733"/>
      <point x="244" y="733" type="curve"/>
      <point x="306" y="733"/>
      <point x="361" y="722"/>
      <point x="361" y="667" type="curve"/>
      <point x="361" y="580"/>
      <point x="361" y="512"/>
      <point x="361" y="426" type="curve"/>
      <point x="398" y="426"/>
      <point x="372" y="426"/>
    </contour>
    <contour>
      <point x="387" y="426" type="curve"/>
      <point x="418" y="426"/>
      <point x="442" y="426"/>
      <point x="473" y="426" type="curve"/>
      <point x="473" y="454"/>
      <point x="473" y="436"/>
      <point x="473" y="464" type="curve"/>
      <point x="423" y="464"/>
      <point x="436" y="464"/>
      <point x="387" y="464" type="curve"/>
      <point x="387" y="436"/>
      <point x="387" y="454"/>
    </contour>
    <contour>
      <point x="383" y="638" type="curve"/>
      <point x="319" y="632"/>
      <point x="276" y="631"/>
      <point x="212" y="624" type="curve"/>
      <point x="134" y="617"/>
      <point x="74" y="591"/>
      <point x="74" y="520" type="curve"/>
      <point x="74" y="448"/>
      <point x="134" y="420"/>
      <point x="213" y="420" type="curve"/>
      <point x="295" y="420"/>
      <point x="347" y="462"/>
      <point x="395" y="522" type="curve"/>
      <point x="379" y="536"/>
      <point x="389" y="528"/>
      <point x="373" y="542" type="curve"/>
      <point x="334" y="495"/>
      <point x="287" y="457"/>
      <point x="221" y="457" type="curve"/>
      <point x="166" y="457"/>
      <point x="121" y="473"/>
      <point x="121" y="522" type="curve"/>
      <point x="121" y="568"/>
      <point x="160" y="585"/>
      <point x="210" y="590" type="curve"/>
      <point x="276" y="597"/>
      <point x="320" y="599"/>
      <point x="385" y="606" type="curve"/>
      <point x="384" y="630"/>
      <point x="385" y="615"/>
    </contour>
  </outline>
</glyph>
<glyph name="guillemotleft" format="1">
  <advance width="736"/>
  <unicode hex="00AB"/>
  <outline>
    <contour>
      <point x="350" y="421" type="curve"/>
      <point x="330" y="412"/>
      <point x="91" y="316"/>
      <point x="71" y="306" type="curve"/>
      <point x="71" y="253"/>
      <point x="71" y="306"/>
      <point x="71" y="253" type="curve"/>
      <point x="91" y="263"/>
      <point x="330" y="358"/>
      <point x="350" y="368" type="curve"/>
      <point x="350" y="421"/>
      <point x="350" y="369"/>
    </contour>
    <contour>
      <point x="350" y="192" type="curve"/>
      <point x="330" y="201"/>
      <point x="91" y="296"/>
      <point x="71" y="306" type="curve"/>
      <point x="71" y="253"/>
      <point x="71" y="306"/>
      <point x="71" y="253" type="curve"/>
      <point x="91" y="243"/>
      <point x="330" y="148"/>
      <point x="350" y="138" type="curve"/>
      <point x="350" y="191"/>
      <point x="350" y="139"/>
    </contour>
    <contour>
      <point x="642" y="421" type="curve"/>
      <point x="622" y="412"/>
      <point x="383" y="316"/>
      <point x="363" y="306" type="curve"/>
      <point x="363" y="253"/>
      <point x="363" y="306"/>
      <point x="363" y="253" type="curve"/>
      <point x="383" y="263"/>
      <point x="622" y="358"/>
      <point x="642" y="368" type="curve"/>
      <point x="642" y="421"/>
      <point x="642" y="369"/>
    </contour>
    <contour>
      <point x="643" y="192" type="curve"/>
      <point x="623" y="201"/>
      <point x="383" y="296"/>
      <point x="363" y="306" type="curve"/>
      <point x="363" y="253"/>
      <point x="363" y="306"/>
      <point x="363" y="253" type="curve"/>
      <point x="383" y="243"/>
      <point x="623" y="148"/>
      <point x="643" y="138" type="curve"/>
      <point x="643" y="191"/>
      <point x="643" y="139"/>
    </contour>
  </outline>
</glyph>
<glyph name="logicalnot" format="1">
  <advance width="804"/>
  <unicode hex="00AC"/>
  <outline>
    <contour>
      <point x="106" y="284" type="curve"/>
      <point x="716" y="284" type="line"/>
      <point x="716" y="337"/>
      <point x="716" y="284"/>
      <point x="716" y="337" type="curve"/>
      <point x="106" y="337" type="line"/>
      <point x="106" y="284"/>
      <point x="106" y="337"/>
    </contour>
    <contour>
      <point x="716" y="149" type="curve"/>
      <point x="716" y="337" type="line"/>
      <point x="654" y="337"/>
      <point x="718" y="337"/>
      <point x="656" y="337" type="curve"/>
      <point x="656" y="149" type="line"/>
      <point x="718" y="149"/>
      <point x="654" y="149"/>
    </contour>
  </outline>
</glyph>
<glyph name="registered" format="1">
  <advance width="955"/>
  <unicode hex="00AE"/>
  <outline>
    <contour>
      <point x="116" y="321" type="curve"/>
      <point x="116" y="511"/>
      <point x="276" y="607"/>
      <point x="482" y="607" type="curve"/>
      <point x="683" y="607"/>
      <point x="839" y="508"/>
      <point x="839" y="319" type="curve"/>
      <point x="839" y="135"/>
      <point x="687" y="37"/>
      <point x="490" y="37" type="curve"/>
      <point x="282" y="37"/>
      <point x="116" y="129"/>
      <point x="116" y="321" type="curve"/>
      <point x="87" y="321"/>
      <point x="95" y="321"/>
      <point x="66" y="321" type="curve"/>
      <point x="66" y="104"/>
      <point x="252" y="-1"/>
      <point x="488" y="-1" type="curve"/>
      <point x="715" y="-1"/>
      <point x="889" y="110"/>
      <point x="889" y="321" type="curve"/>
      <point x="889" y="535"/>
      <point x="712" y="645"/>
      <point x="482" y="645" type="curve"/>
      <point x="249" y="645"/>
      <point x="66" y="538"/>
      <point x="66" y="321" type="curve"/>
      <point x="95" y="321"/>
      <point x="87" y="321"/>
    </contour>
    <contour>
      <point x="598" y="146" type="curve"/>
      <point x="631" y="146"/>
      <point x="658" y="146"/>
      <point x="691" y="146" type="curve"/>
      <point x="691" y="187"/>
      <point x="691" y="146"/>
      <point x="691" y="187" type="curve"/>
      <point x="671" y="187"/>
      <point x="656" y="187"/>
      <point x="636" y="187" type="curve"/>
      <point x="598" y="150"/>
      <point x="634" y="188"/>
    </contour>
    <contour>
      <point x="412" y="496" type="curve"/>
      <point x="370" y="496"/>
      <point x="332" y="496"/>
      <point x="290" y="496" type="curve"/>
      <point x="290" y="455"/>
      <point x="290" y="496"/>
      <point x="290" y="455" type="curve"/>
      <point x="315" y="455"/>
      <point x="335" y="455"/>
      <point x="359" y="455" type="curve"/>
      <point x="412" y="496"/>
      <point x="359" y="455"/>
    </contour>
    <contour>
      <point x="412" y="188" type="curve"/>
      <point x="370" y="188"/>
      <point x="332" y="188"/>
      <point x="290" y="188" type="curve"/>
      <point x="290" y="146"/>
      <point x="290" y="188"/>
      <point x="290" y="146" type="curve"/>
      <point x="315" y="146"/>
      <point x="335" y="146"/>
      <point x="359" y="146" type="curve"/>
      <point x="412" y="188"/>
      <point x="359" y="146"/>
    </contour>
    <contour>
      <point x="358" y="146" type="curve"/>
      <point x="396" y="146"/>
      <point x="430" y="146"/>
      <point x="467" y="146" type="curve"/>
      <point x="467" y="187"/>
      <point x="467" y="146"/>
      <point x="467" y="187" type="curve"/>
      <point x="448" y="187"/>
      <point x="431" y="187"/>
      <point x="411" y="187" type="curve"/>
      <point x="358" y="146"/>
      <point x="411" y="187"/>
    </contour>
    <contour>
      <point x="480" y="311" type="curve"/>
      <point x="519" y="259"/>
      <point x="559" y="199"/>
      <point x="598" y="146" type="curve"/>
      <point x="636" y="186"/>
      <point x="600" y="147"/>
      <point x="636" y="187" type="curve"/>
      <point x="543" y="311" type="line"/>
      <point x="479" y="311"/>
      <point x="544" y="311"/>
    </contour>
    <contour>
      <point x="411" y="188" type="curve"/>
      <point x="411" y="291"/>
      <point x="411" y="394"/>
      <point x="411" y="496" type="curve"/>
      <point x="359" y="455"/>
      <point x="412" y="496"/>
      <point x="359" y="455" type="curve"/>
      <point x="359" y="352"/>
      <point x="359" y="249"/>
      <point x="359" y="146" type="curve"/>
      <point x="412" y="188"/>
      <point x="359" y="146"/>
    </contour>
    <contour>
      <point x="388" y="287" type="curve"/>
      <point x="413" y="287"/>
      <point x="440" y="287"/>
      <point x="466" y="287" type="curve"/>
      <point x="557" y="287"/>
      <point x="625" y="308"/>
      <point x="625" y="392" type="curve"/>
      <point x="625" y="467"/>
      <point x="562" y="496"/>
      <point x="480" y="496" type="curve"/>
      <point x="458" y="496"/>
      <point x="434" y="496"/>
      <point x="412" y="496" type="curve"/>
      <point x="359" y="455"/>
      <point x="412" y="496"/>
      <point x="359" y="455" type="curve"/>
      <point x="396" y="455"/>
      <point x="434" y="455"/>
      <point x="471" y="455" type="curve"/>
      <point x="528" y="455"/>
      <point x="574" y="440"/>
      <point x="574" y="389" type="curve"/>
      <point x="574" y="338"/>
      <point x="530" y="328"/>
      <point x="473" y="328" type="curve"/>
      <point x="445" y="328"/>
      <point x="416" y="328"/>
      <point x="388" y="328" type="curve"/>
      <point x="388" y="287"/>
      <point x="388" y="328"/>
    </contour>
  </outline>
</glyph>
<glyph name="macron" format="1">
  <advance width="408"/>
  <unicode hex="00AF"/>
  <outline>
    <contour>
      <point x="175" y="626" type="move" name="_top"/>
    </contour>
    <contour>
      <point x="314" y="674" type="curve"/>
      <point x="218" y="674"/>
      <point x="123" y="674"/>
      <point x="28" y="674" type="curve"/>
      <point x="28" y="626"/>
      <point x="28" y="674"/>
      <point x="28" y="626" type="curve"/>
      <point x="123" y="626"/>
      <point x="218" y="626"/>
      <point x="314" y="626" type="curve"/>
      <point x="314" y="674"/>
      <point x="314" y="626"/>
    </contour>
  </outline>
</glyph>
<glyph name="degree" format="1">
  <advance width="580"/>
  <unicode hex="00B0"/>
  <outline>
    <contour>
      <point x="509" y="450" type="curve"/>
      <point x="509" y="580"/>
      <point x="422" y="658"/>
      <point x="289" y="658" type="curve"/>
      <point x="157" y="658"/>
      <point x="71" y="581"/>
      <point x="71" y="452" type="curve"/>
      <point x="124" y="452"/>
      <point x="73" y="452"/>
      <point x="126" y="452" type="curve"/>
      <point x="126" y="549"/>
      <point x="187" y="612"/>
      <point x="287" y="612" type="curve"/>
      <point x="388" y="612"/>
      <point x="453" y="550"/>
      <point x="453" y="450" type="curve"/>
      <point x="453" y="348"/>
      <point x="392" y="282"/>
      <point x="290" y="282" type="curve"/>
      <point x="188" y="282"/>
      <point x="126" y="349"/>
      <point x="126" y="452" type="curve"/>
      <point x="73" y="452"/>
      <point x="124" y="452"/>
      <point x="71" y="452" type="curve"/>
      <point x="71" y="319"/>
      <point x="154" y="235"/>
      <point x="288" y="235" type="curve"/>
      <point x="423" y="235"/>
      <point x="509" y="317"/>
    </contour>
  </outline>
</glyph>
<glyph name="plusminus" format="1">
  <advance width="764"/>
  <unicode hex="00B1"/>
  <outline>
    <contour>
      <point x="74" y="19" type="line"/>
      <point x="690" y="19" type="line"/>
      <point x="690" y="72" type="line"/>
      <point x="74" y="72" type="line"/>
    </contour>
    <contour>
      <point x="74" y="284" type="curve"/>
      <point x="690" y="284" type="line"/>
      <point x="690" y="337"/>
      <point x="690" y="284"/>
      <point x="690" y="337" type="curve"/>
      <point x="74" y="337" type="line"/>
      <point x="74" y="284"/>
      <point x="74" y="337"/>
    </contour>
    <contour>
      <point x="409" y="19" type="curve"/>
      <point x="409" y="588" type="line"/>
      <point x="347" y="588"/>
      <point x="412" y="588"/>
      <point x="350" y="588" type="curve"/>
      <point x="350" y="19" type="line"/>
      <point x="412" y="19"/>
      <point x="347" y="19"/>
    </contour>
  </outline>
</glyph>
<glyph name="twosuperior" format="1">
  <advance width="584"/>
  <unicode hex="00B2"/>
  <outline>
    <contour>
      <point x="304" y="710" type="move" name="_top"/>
    </contour>
    <contour>
      <point x="287" y="286" type="move" name="_bottom"/>
    </contour>
    <contour>
      <point x="503" y="286" type="curve"/>
      <point x="503" y="325"/>
      <point x="503" y="361"/>
      <point x="503" y="400" type="curve"/>
      <point x="456" y="400"/>
      <point x="504" y="400"/>
      <point x="456" y="400" type="curve"/>
      <point x="456" y="377"/>
      <point x="456" y="356"/>
      <point x="456" y="333" type="curve"/>
      <point x="507" y="290"/>
      <point x="452" y="330"/>
    </contour>
    <contour>
      <point x="80" y="286" type="curve"/>
      <point x="238" y="286"/>
      <point x="370" y="286"/>
      <point x="503" y="286" type="curve"/>
      <point x="452" y="330"/>
      <point x="507" y="290"/>
      <point x="456" y="333" type="curve"/>
      <point x="331" y="333"/>
      <point x="205" y="333"/>
      <point x="80" y="333" type="curve"/>
      <point x="80" y="287"/>
      <point x="80" y="333"/>
    </contour>
    <contour>
      <point x="150" y="597" type="curve"/>
      <point x="189" y="642"/>
      <point x="232" y="664"/>
      <point x="293" y="664" type="curve"/>
      <point x="362" y="664"/>
      <point x="415" y="642"/>
      <point x="415" y="583" type="curve"/>
      <point x="415" y="530"/>
      <point x="371" y="509"/>
      <point x="326" y="478" type="curve"/>
      <point x="244" y="430"/>
      <point x="161" y="381"/>
      <point x="80" y="333" type="curve"/>
      <point x="87" y="288"/>
      <point x="81" y="333"/>
      <point x="88" y="288" type="curve"/>
      <point x="186" y="343"/>
      <point x="275" y="391"/>
      <point x="359" y="442" type="curve"/>
      <point x="420" y="484"/>
      <point x="475" y="513"/>
      <point x="475" y="585" type="curve"/>
      <point x="475" y="675"/>
      <point x="398" y="711"/>
      <point x="299" y="711" type="curve"/>
      <point x="215" y="711"/>
      <point x="152" y="687"/>
      <point x="108" y="624" type="curve"/>
      <point x="150" y="597"/>
      <point x="108" y="624"/>
    </contour>
  </outline>
</glyph>
<glyph name="threesuperior" format="1">
  <advance width="519"/>
  <unicode hex="00B3"/>
  <outline>
    <contour>
      <point x="257" y="710" type="move" name="_top"/>
    </contour>
    <contour>
      <point x="246" y="279" type="move" name="_bottom"/>
    </contour>
    <contour>
      <point x="114" y="622" type="curve"/>
      <point x="153" y="650"/>
      <point x="195" y="665"/>
      <point x="238" y="665" type="curve"/>
      <point x="307" y="665"/>
      <point x="362" y="652"/>
      <point x="362" y="594" type="curve"/>
      <point x="362" y="523"/>
      <point x="270" y="524"/>
      <point x="183" y="520" type="curve"/>
      <point x="183" y="480"/>
      <point x="183" y="520"/>
      <point x="183" y="480" type="curve"/>
      <point x="308" y="481"/>
      <point x="423" y="490"/>
      <point x="423" y="597" type="curve"/>
      <point x="423" y="685"/>
      <point x="344" y="710"/>
      <point x="245" y="710" type="curve"/>
      <point x="185" y="710"/>
      <point x="129" y="691"/>
      <point x="86" y="655" type="curve"/>
      <point x="114" y="622"/>
      <point x="86" y="655"/>
    </contour>
    <contour>
      <point x="79" y="316" type="curve"/>
      <point x="128" y="293"/>
      <point x="175" y="280"/>
      <point x="229" y="280" type="curve"/>
      <point x="347" y="277"/>
      <point x="446" y="301"/>
      <point x="443" y="403" type="curve"/>
      <point x="443" y="519"/>
      <point x="316" y="510"/>
      <point x="183" y="512" type="curve"/>
      <point x="183" y="477"/>
      <point x="183" y="512"/>
      <point x="183" y="477" type="curve"/>
      <point x="286" y="474"/>
      <point x="382" y="478"/>
      <point x="382" y="402" type="curve"/>
      <point x="382" y="335"/>
      <point x="315" y="323"/>
      <point x="235" y="325" type="curve"/>
      <point x="191" y="325"/>
      <point x="150" y="333"/>
      <point x="105" y="351" type="curve"/>
      <point x="79" y="316"/>
      <point x="105" y="351"/>
    </contour>
  </outline>
</glyph>
<glyph name="paragraph" format="1">
  <advance width="869"/>
  <unicode hex="00B6"/>
  <outline>
    <contour>
      <point x="538" y="673" type="curve"/>
      <point x="730" y="673"/>
      <point x="538" y="673"/>
      <point x="730" y="673" type="curve"/>
      <point x="730" y="722"/>
      <point x="730" y="673"/>
      <point x="730" y="722" type="curve"/>
      <point x="666" y="722"/>
      <point x="602" y="722"/>
      <point x="538" y="722" type="curve"/>
      <point x="538" y="673"/>
      <point x="538" y="722"/>
    </contour>
    <contour>
      <point x="538" y="0" type="curve"/>
      <point x="602" y="0"/>
      <point x="666" y="0"/>
      <point x="730" y="0" type="curve"/>
      <point x="730" y="49"/>
      <point x="730" y="0"/>
      <point x="730" y="49" type="curve"/>
      <point x="538" y="49"/>
      <point x="730" y="49"/>
      <point x="538" y="49" type="curve"/>
      <point x="538" y="0"/>
      <point x="538" y="49"/>
    </contour>
    <contour>
      <point x="538" y="49" type="curve"/>
      <point x="349" y="49"/>
      <point x="538" y="49"/>
      <point x="349" y="49" type="curve"/>
      <point x="349" y="0"/>
      <point x="349" y="49"/>
      <point x="349" y="0" type="curve"/>
      <point x="538" y="0"/>
      <point x="475" y="0"/>
      <point x="538" y="0" type="curve"/>
      <point x="538" y="49"/>
      <point x="538" y="0"/>
    </contour>
    <contour>
      <point x="526" y="359" type="curve"/>
      <point x="460" y="333"/>
      <point x="408" y="318"/>
      <point x="337" y="318" type="curve"/>
      <point x="210" y="318"/>
      <point x="109" y="370"/>
      <point x="109" y="487" type="curve"/>
      <point x="109" y="621"/>
      <point x="229" y="673"/>
      <point x="378" y="673" type="curve"/>
      <point x="430" y="673"/>
      <point x="482" y="673"/>
      <point x="534" y="673" type="curve"/>
      <point x="534" y="722"/>
      <point x="534" y="673"/>
      <point x="534" y="722" type="curve"/>
      <point x="479" y="722"/>
      <point x="424" y="722"/>
      <point x="370" y="722" type="curve"/>
      <point x="190" y="722"/>
      <point x="46" y="652"/>
      <point x="46" y="489" type="curve"/>
      <point x="46" y="338"/>
      <point x="176" y="273"/>
      <point x="342" y="270" type="curve"/>
      <point x="416" y="270"/>
      <point x="478" y="289"/>
      <point x="546" y="315" type="curve"/>
      <point x="526" y="359"/>
      <point x="546" y="315"/>
    </contour>
    <contour>
      <point x="571" y="0" type="curve"/>
      <point x="571" y="241"/>
      <point x="571" y="481"/>
      <point x="571" y="722" type="curve"/>
      <point x="508" y="722"/>
      <point x="571" y="722"/>
      <point x="508" y="722" type="curve"/>
      <point x="508" y="481"/>
      <point x="508" y="241"/>
      <point x="508" y="0" type="curve"/>
      <point x="571" y="0"/>
      <point x="508" y="0"/>
    </contour>
    <contour>
      <point x="780" y="0" type="curve"/>
      <point x="780" y="241"/>
      <point x="780" y="481"/>
      <point x="780" y="722" type="curve"/>
      <point x="718" y="722"/>
      <point x="780" y="722"/>
      <point x="718" y="722" type="curve"/>
      <point x="718" y="481"/>
      <point x="718" y="241"/>
      <point x="718" y="0" type="curve"/>
      <point x="780" y="0"/>
      <point x="718" y="0"/>
    </contour>
  </outline>
</glyph>
<glyph name="periodcentered" format="1">
  <advance width="243"/>
  <unicode hex="00B7"/>
  <outline>
    <contour>
      <point x="161" y="440" type="curve"/>
      <point x="161" y="463"/>
      <point x="144" y="474"/>
      <point x="121" y="474" type="curve"/>
      <point x="98" y="474"/>
      <point x="82" y="462"/>
      <point x="82" y="440" type="curve"/>
      <point x="146" y="440"/>
      <point x="97" y="440"/>
      <point x="161" y="440" type="curve"/>
      <point x="161" y="417"/>
      <point x="144" y="406"/>
      <point x="120" y="406" type="curve"/>
      <point x="97" y="406"/>
      <point x="82" y="418"/>
      <point x="82" y="440" type="curve"/>
      <point x="146" y="440"/>
      <point x="97" y="440"/>
    </contour>
  </outline>
</glyph>
<glyph name="cedilla" format="1">
  <advance width="405"/>
  <unicode hex="00B8"/>
  <outline>
    <contour>
      <point x="203" y="31" type="move" name="_bottom"/>
    </contour>
    <contour>
      <point x="165" y="63" type="curve"/>
      <point x="147" y="38"/>
      <point x="110" y="-11"/>
      <point x="92" y="-36" type="curve"/>
      <point x="134" y="-74"/>
      <point x="92" y="-36"/>
      <point x="134" y="-74" type="curve"/>
      <point x="154" y="-47"/>
      <point x="192" y="3"/>
      <point x="212" y="31" type="curve"/>
      <point x="165" y="63"/>
      <point x="212" y="31"/>
    </contour>
    <contour>
      <point x="134" y="-75" type="curve"/>
      <point x="150" y="-66"/>
      <point x="163" y="-64"/>
      <point x="182" y="-64" type="curve"/>
      <point x="214" y="-64"/>
      <point x="237" y="-78"/>
      <point x="237" y="-108" type="curve"/>
      <point x="237" y="-142"/>
      <point x="205" y="-151"/>
      <point x="166" y="-151" type="curve"/>
      <point x="134" y="-151"/>
      <point x="109" y="-148"/>
      <point x="77" y="-133" type="curve"/>
      <point x="58" y="-170"/>
      <point x="77" y="-133"/>
      <point x="58" y="-170" type="curve"/>
      <point x="94" y="-186"/>
      <point x="124" y="-193"/>
      <point x="163" y="-193" type="curve"/>
      <point x="237" y="-193"/>
      <point x="294" y="-172"/>
      <point x="294" y="-106" type="curve"/>
      <point x="294" y="-47"/>
      <point x="249" y="-18"/>
      <point x="185" y="-18" type="curve"/>
      <point x="150" y="-18"/>
      <point x="126" y="-24"/>
      <point x="93" y="-37" type="curve"/>
      <point x="134" y="-75"/>
      <point x="93" y="-37"/>
    </contour>
  </outline>
</glyph>
<glyph name="onesuperior" format="1">
  <advance width="449"/>
  <unicode hex="00B9"/>
  <outline>
    <contour>
      <point x="259" y="702" type="move" name="_top"/>
    </contour>
    <contour>
      <point x="262" y="287" type="move" name="_bottom"/>
    </contour>
    <contour>
      <point x="231" y="286" type="curve"/>
      <point x="281" y="286"/>
      <point x="329" y="286"/>
      <point x="380" y="286" type="curve"/>
      <point x="380" y="334"/>
      <point x="380" y="284"/>
      <point x="380" y="331" type="curve"/>
      <point x="350" y="331"/>
      <point x="322" y="331"/>
      <point x="292" y="331" type="curve"/>
      <point x="231" y="284"/>
      <point x="292" y="334"/>
    </contour>
    <contour>
      <point x="292" y="331" type="curve"/>
      <point x="240" y="331"/>
      <point x="190" y="331"/>
      <point x="137" y="331" type="curve"/>
      <point x="137" y="284"/>
      <point x="137" y="334"/>
      <point x="137" y="286" type="curve"/>
      <point x="169" y="286"/>
      <point x="200" y="286"/>
      <point x="231" y="286" type="curve"/>
      <point x="292" y="334"/>
      <point x="231" y="284"/>
    </contour>
    <contour>
      <point x="99" y="559" type="line"/>
      <point x="292" y="697" type="line"/>
      <point x="231" y="704" type="line"/>
      <point x="72" y="595" type="line"/>
    </contour>
    <contour>
      <point x="292" y="331" type="curve"/>
      <point x="292" y="704" type="line"/>
      <point x="231" y="704" type="line"/>
      <point x="231" y="286" type="line"/>
      <point x="292" y="334"/>
      <point x="231" y="284"/>
    </contour>
  </outline>
</glyph>
<glyph name="ordmasculine" format="1">
  <advance width="544"/>
  <unicode hex="00BA"/>
  <outline>
    <contour>
      <point x="120" y="602" type="curve"/>
      <point x="120" y="688"/>
      <point x="180" y="737"/>
      <point x="271" y="737" type="curve"/>
      <point x="363" y="737"/>
      <point x="424" y="687"/>
      <point x="424" y="600" type="curve"/>
      <point x="424" y="510"/>
      <point x="366" y="456"/>
      <point x="276" y="456" type="curve"/>
      <point x="182" y="456"/>
      <point x="120" y="509"/>
      <point x="120" y="602" type="curve"/>
      <point x="84" y="602"/>
      <point x="107" y="602"/>
      <point x="72" y="602" type="curve"/>
      <point x="72" y="483"/>
      <point x="153" y="418"/>
      <point x="274" y="418" type="curve"/>
      <point x="393" y="418"/>
      <point x="472" y="483"/>
      <point x="472" y="600" type="curve"/>
      <point x="472" y="713"/>
      <point x="392" y="775"/>
      <point x="273" y="775" type="curve"/>
      <point x="153" y="775"/>
      <point x="72" y="713"/>
      <point x="72" y="602" type="curve"/>
      <point x="107" y="602"/>
      <point x="84" y="602"/>
    </contour>
  </outline>
</glyph>
<glyph name="onequarter" format="1">
  <advance width="1216"/>
  <unicode hex="00BC"/>
  <outline>
    <contour>
      <point x="393" y="-75" type="line"/>
      <point x="936" y="742" type="line"/>
      <point x="875" y="742" type="line"/>
      <point x="332" y="-75" type="line"/>
    </contour>
    <contour>
      <point x="203" y="327" type="curve"/>
      <point x="253" y="327"/>
      <point x="302" y="327"/>
      <point x="353" y="327" type="curve"/>
      <point x="353" y="375"/>
      <point x="353" y="325"/>
      <point x="353" y="372" type="curve"/>
      <point x="322" y="372"/>
      <point x="294" y="372"/>
      <point x="264" y="372" type="curve"/>
      <point x="203" y="325"/>
      <point x="264" y="375"/>
    </contour>
    <contour>
      <point x="264" y="372" type="curve"/>
      <point x="212" y="372"/>
      <point x="162" y="372"/>
      <point x="109" y="372" type="curve"/>
      <point x="109" y="325"/>
      <point x="109" y="375"/>
      <point x="109" y="327" type="curve"/>
      <point x="141" y="327"/>
      <point x="172" y="327"/>
      <point x="204" y="327" type="curve"/>
      <point x="264" y="375"/>
      <point x="204" y="325"/>
    </contour>
    <contour>
      <point x="71" y="599" type="line"/>
      <point x="264" y="737" type="line"/>
      <point x="204" y="744" type="line"/>
      <point x="44" y="636" type="line"/>
    </contour>
    <contour>
      <point x="264" y="372" type="curve"/>
      <point x="264" y="744" type="line"/>
      <point x="204" y="744" type="line"/>
      <point x="204" y="327" type="line"/>
      <point x="264" y="375"/>
      <point x="204" y="325"/>
    </contour>
    <contour>
      <point x="1185" y="84" type="line"/>
      <point x="727" y="84" type="line"/>
      <point x="727" y="38" type="line"/>
      <point x="1185" y="38" type="line"/>
    </contour>
    <contour>
      <point x="746" y="44" type="line"/>
      <point x="1057" y="345" type="line"/>
      <point x="1006" y="356" type="line"/>
      <point x="727" y="84" type="line"/>
    </contour>
    <contour>
      <point x="1067" y="-86" type="line"/>
      <point x="1067" y="356" type="line"/>
      <point x="1006" y="356" type="line"/>
      <point x="1006" y="-86" type="line"/>
    </contour>
    <contour>
      <point x="1036" y="-41" type="line"/>
      <point x="915" y="-41" type="line"/>
      <point x="915" y="-86" type="line"/>
      <point x="1036" y="-86" type="line"/>
    </contour>
    <contour>
      <point x="1036" y="-86" type="line"/>
      <point x="1152" y="-86" type="line"/>
      <point x="1152" y="-41" type="line"/>
      <point x="1036" y="-41" type="line"/>
    </contour>
  </outline>
</glyph>
<glyph name="onehalf" format="1">
  <advance width="1280"/>
  <unicode hex="00BD"/>
  <outline>
    <contour>
      <point x="392" y="-75" type="line"/>
      <point x="935" y="742" type="line"/>
      <point x="875" y="742" type="line"/>
      <point x="332" y="-75" type="line"/>
    </contour>
    <contour>
      <point x="201" y="327" type="curve"/>
      <point x="251" y="327"/>
      <point x="300" y="327"/>
      <point x="350" y="327" type="curve"/>
      <point x="350" y="375"/>
      <point x="350" y="325"/>
      <point x="350" y="372" type="curve"/>
      <point x="320" y="372"/>
      <point x="292" y="372"/>
      <point x="262" y="372" type="curve"/>
      <point x="201" y="325"/>
      <point x="262" y="375"/>
    </contour>
    <contour>
      <point x="262" y="372" type="curve"/>
      <point x="210" y="372"/>
      <point x="159" y="372"/>
      <point x="107" y="372" type="curve"/>
      <point x="107" y="325"/>
      <point x="107" y="375"/>
      <point x="107" y="327" type="curve"/>
      <point x="139" y="327"/>
      <point x="169" y="327"/>
      <point x="201" y="327" type="curve"/>
      <point x="262" y="375"/>
      <point x="201" y="325"/>
    </contour>
    <contour>
      <point x="69" y="599" type="line"/>
      <point x="262" y="737" type="line"/>
      <point x="201" y="744" type="line"/>
      <point x="42" y="636" type="line"/>
    </contour>
    <contour>
      <point x="262" y="372" type="curve"/>
      <point x="262" y="744" type="line"/>
      <point x="201" y="744" type="line"/>
      <point x="201" y="327" type="line"/>
      <point x="262" y="375"/>
      <point x="201" y="325"/>
    </contour>
    <contour>
      <point x="1237" y="-80" type="curve"/>
      <point x="1237" y="-42"/>
      <point x="1237" y="-6"/>
      <point x="1237" y="34" type="curve"/>
      <point x="1190" y="34"/>
      <point x="1238" y="34"/>
      <point x="1190" y="34" type="curve"/>
      <point x="1190" y="10"/>
      <point x="1190" y="-11"/>
      <point x="1190" y="-33" type="curve"/>
      <point x="1241" y="-76"/>
      <point x="1187" y="-37"/>
    </contour>
    <contour>
      <point x="814" y="-80" type="curve"/>
      <point x="972" y="-80"/>
      <point x="1105" y="-80"/>
      <point x="1237" y="-80" type="curve"/>
      <point x="1187" y="-37"/>
      <point x="1241" y="-76"/>
      <point x="1190" y="-33" type="curve"/>
      <point x="1066" y="-33"/>
      <point x="939" y="-33"/>
      <point x="814" y="-33" type="curve"/>
      <point x="814" y="-80"/>
      <point x="814" y="-33"/>
    </contour>
    <contour>
      <point x="884" y="231" type="curve"/>
      <point x="923" y="277"/>
      <point x="966" y="298"/>
      <point x="1027" y="298" type="curve"/>
      <point x="1096" y="298"/>
      <point x="1149" y="275"/>
      <point x="1149" y="217" type="curve"/>
      <point x="1149" y="163"/>
      <point x="1105" y="143"/>
      <point x="1060" y="112" type="curve"/>
      <point x="977" y="64"/>
      <point x="895" y="15"/>
      <point x="814" y="-33" type="curve"/>
      <point x="821" y="-79"/>
      <point x="815" y="-33"/>
      <point x="822" y="-79" type="curve"/>
      <point x="920" y="-23"/>
      <point x="1009" y="25"/>
      <point x="1093" y="75" type="curve"/>
      <point x="1154" y="117"/>
      <point x="1210" y="147"/>
      <point x="1210" y="219" type="curve"/>
      <point x="1210" y="308"/>
      <point x="1132" y="345"/>
      <point x="1033" y="345" type="curve"/>
      <point x="950" y="345"/>
      <point x="886" y="321"/>
      <point x="842" y="258" type="curve"/>
      <point x="884" y="231"/>
      <point x="842" y="258"/>
    </contour>
  </outline>
</glyph>
<glyph name="threequarters" format="1">
  <advance width="1207"/>
  <unicode hex="00BE"/>
  <outline>
    <contour>
      <point x="390" y="-75" type="line"/>
      <point x="933" y="742" type="line"/>
      <point x="872" y="742" type="line"/>
      <point x="329" y="-75" type="line"/>
    </contour>
    <contour>
      <point x="84" y="654" type="curve"/>
      <point x="122" y="683"/>
      <point x="165" y="697"/>
      <point x="208" y="697" type="curve"/>
      <point x="277" y="697"/>
      <point x="333" y="684"/>
      <point x="333" y="626" type="curve"/>
      <point x="333" y="556"/>
      <point x="240" y="557"/>
      <point x="153" y="552" type="curve"/>
      <point x="153" y="513"/>
      <point x="153" y="552"/>
      <point x="153" y="513" type="curve"/>
      <point x="279" y="514"/>
      <point x="393" y="523"/>
      <point x="393" y="630" type="curve"/>
      <point x="393" y="718"/>
      <point x="314" y="742"/>
      <point x="214" y="742" type="curve"/>
      <point x="155" y="742"/>
      <point x="99" y="723"/>
      <point x="55" y="687" type="curve"/>
      <point x="84" y="654"/>
      <point x="55" y="687"/>
    </contour>
    <contour>
      <point x="49" y="348" type="curve"/>
      <point x="98" y="325"/>
      <point x="145" y="313"/>
      <point x="198" y="313" type="curve"/>
      <point x="318" y="310"/>
      <point x="416" y="333"/>
      <point x="413" y="435" type="curve"/>
      <point x="413" y="552"/>
      <point x="286" y="542"/>
      <point x="153" y="544" type="curve"/>
      <point x="153" y="510"/>
      <point x="153" y="544"/>
      <point x="153" y="510" type="curve"/>
      <point x="256" y="506"/>
      <point x="353" y="510"/>
      <point x="353" y="434" type="curve"/>
      <point x="352" y="367"/>
      <point x="285" y="355"/>
      <point x="204" y="357" type="curve"/>
      <point x="160" y="357"/>
      <point x="119" y="366"/>
      <point x="75" y="384" type="curve"/>
      <point x="49" y="348"/>
      <point x="75" y="384"/>
    </contour>
    <contour>
      <point x="1177" y="84" type="line"/>
      <point x="719" y="84" type="line"/>
      <point x="719" y="38" type="line"/>
      <point x="1177" y="38" type="line"/>
    </contour>
    <contour>
      <point x="738" y="44" type="line"/>
      <point x="1049" y="345" type="line"/>
      <point x="998" y="356" type="line"/>
      <point x="719" y="84" type="line"/>
    </contour>
    <contour>
      <point x="1059" y="-86" type="line"/>
      <point x="1059" y="356" type="line"/>
      <point x="998" y="356" type="line"/>
      <point x="998" y="-86" type="line"/>
    </contour>
    <contour>
      <point x="1028" y="-41" type="line"/>
      <point x="908" y="-41" type="line"/>
      <point x="908" y="-86" type="line"/>
      <point x="1028" y="-86" type="line"/>
    </contour>
    <contour>
      <point x="1028" y="-86" type="line"/>
      <point x="1143" y="-86" type="line"/>
      <point x="1143" y="-41" type="line"/>
      <point x="1028" y="-41" type="line"/>
    </contour>
  </outline>
</glyph>
<glyph name="Aacute" format="1">
  <advance width="990"/>
  <unicode hex="00C1"/>
  <outline>
    <contour>
      <point x="130" y="49" type="curve"/>
      <point x="-20" y="49"/>
      <point x="132" y="49"/>
      <point x="-18" y="49" type="curve"/>
      <point x="-18" y="0"/>
      <point x="-18" y="49"/>
      <point x="-18" y="0" type="curve"/>
      <point x="32" y="0"/>
      <point x="80" y="0"/>
      <point x="130" y="0" type="curve"/>
      <point x="130" y="49"/>
      <point x="130" y="0"/>
    </contour>
    <contour>
      <point x="130" y="0" type="curve"/>
      <point x="188" y="0"/>
      <point x="129" y="0"/>
      <point x="300" y="0" type="curve"/>
      <point x="300" y="49"/>
      <point x="300" y="0"/>
      <point x="300" y="49" type="curve"/>
      <point x="129" y="49"/>
      <point x="302" y="49"/>
      <point x="130" y="49" type="curve"/>
      <point x="130" y="0"/>
      <point x="130" y="49"/>
    </contour>
    <contour>
      <point x="826" y="0" type="curve"/>
      <point x="877" y="0"/>
      <point x="925" y="0"/>
      <point x="975" y="0" type="curve"/>
      <point x="975" y="49"/>
      <point x="975" y="0"/>
      <point x="975" y="49" type="curve"/>
      <point x="825" y="49"/>
      <point x="977" y="49"/>
      <point x="826" y="49" type="curve"/>
      <point x="826" y="0"/>
      <point x="826" y="49"/>
    </contour>
    <contour>
      <point x="826" y="49" type="curve"/>
      <point x="655" y="49"/>
      <point x="828" y="49"/>
      <point x="657" y="49" type="curve"/>
      <point x="657" y="0"/>
      <point x="657" y="49"/>
      <point x="657" y="0" type="curve"/>
      <point x="714" y="0"/>
      <point x="769" y="0"/>
      <point x="826" y="0" type="curve"/>
      <point x="826" y="49"/>
      <point x="826" y="0"/>
    </contour>
    <contour>
      <point x="706" y="288" type="curve"/>
      <point x="562" y="288"/>
      <point x="417" y="288"/>
      <point x="273" y="288" type="curve"/>
      <point x="247" y="236"/>
      <point x="273" y="288"/>
      <point x="247" y="236" type="curve"/>
      <point x="406" y="236"/>
      <point x="566" y="236"/>
      <point x="727" y="236" type="curve"/>
      <point x="706" y="288"/>
      <point x="727" y="236"/>
    </contour>
    <contour>
      <point x="874" y="0" type="curve"/>
      <point x="759" y="241"/>
      <point x="643" y="481"/>
      <point x="528" y="722" type="curve"/>
      <point x="471" y="722"/>
      <point x="528" y="722"/>
      <point x="471" y="722" type="curve"/>
      <point x="585" y="482"/>
      <point x="696" y="240"/>
      <point x="809" y="0" type="curve"/>
      <point x="874" y="0"/>
      <point x="809" y="0"/>
    </contour>
    <contour>
      <point x="149" y="0" type="curve"/>
      <point x="276" y="240"/>
      <point x="398" y="482"/>
      <point x="526" y="722" type="curve"/>
      <point x="469" y="722"/>
      <point x="526" y="722"/>
      <point x="469" y="722" type="curve"/>
      <point x="340" y="481"/>
      <point x="209" y="241"/>
      <point x="81" y="0" type="curve"/>
      <point x="149" y="0"/>
      <point x="81" y="0"/>
    </contour>
    <contour>
      <point x="525" y="812" type="line"/>
      <point x="712" y="978" type="line"/>
      <point x="626" y="978" type="line"/>
      <point x="461" y="812" type="line"/>
    </contour>
  </outline>
</glyph>
<glyph name="Atilde" format="1">
  <advance width="990"/>
  <unicode hex="00C3"/>
  <outline>
    <contour>
      <point x="130" y="49" type="curve"/>
      <point x="-20" y="49"/>
      <point x="132" y="49"/>
      <point x="-18" y="49" type="curve"/>
      <point x="-18" y="0"/>
      <point x="-18" y="49"/>
      <point x="-18" y="0" type="curve"/>
      <point x="32" y="0"/>
      <point x="80" y="0"/>
      <point x="130" y="0" type="curve"/>
      <point x="130" y="49"/>
      <point x="130" y="0"/>
    </contour>
    <contour>
      <point x="130" y="0" type="curve"/>
      <point x="188" y="0"/>
      <point x="129" y="0"/>
      <point x="300" y="0" type="curve"/>
      <point x="300" y="49"/>
      <point x="300" y="0"/>
      <point x="300" y="49" type="curve"/>
      <point x="129" y="49"/>
      <point x="302" y="49"/>
      <point x="130" y="49" type="curve"/>
      <point x="130" y="0"/>
      <point x="130" y="49"/>
    </contour>
    <contour>
      <point x="826" y="0" type="curve"/>
      <point x="877" y="0"/>
      <point x="925" y="0"/>
      <point x="975" y="0" type="curve"/>
      <point x="975" y="49"/>
      <point x="975" y="0"/>
      <point x="975" y="49" type="curve"/>
      <point x="825" y="49"/>
      <point x="977" y="49"/>
      <point x="826" y="49" type="curve"/>
      <point x="826" y="0"/>
      <point x="826" y="49"/>
    </contour>
    <contour>
      <point x="826" y="49" type="curve"/>
      <point x="655" y="49"/>
      <point x="828" y="49"/>
      <point x="657" y="49" type="curve"/>
      <point x="657" y="0"/>
      <point x="657" y="49"/>
      <point x="657" y="0" type="curve"/>
      <point x="714" y="0"/>
      <point x="769" y="0"/>
      <point x="826" y="0" type="curve"/>
      <point x="826" y="49"/>
      <point x="826" y="0"/>
    </contour>
    <contour>
      <point x="706" y="288" type="curve"/>
      <point x="562" y="288"/>
      <point x="417" y="288"/>
      <point x="273" y="288" type="curve"/>
      <point x="247" y="236"/>
      <point x="273" y="288"/>
      <point x="247" y="236" type="curve"/>
      <point x="406" y="236"/>
      <point x="566" y="236"/>
      <point x="727" y="236" type="curve"/>
      <point x="706" y="288"/>
      <point x="727" y="236"/>
    </contour>
    <contour>
      <point x="874" y="0" type="curve"/>
      <point x="759" y="241"/>
      <point x="643" y="481"/>
      <point x="528" y="722" type="curve"/>
      <point x="471" y="722"/>
      <point x="528" y="722"/>
      <point x="471" y="722" type="curve"/>
      <point x="585" y="482"/>
      <point x="696" y="240"/>
      <point x="809" y="0" type="curve"/>
      <point x="874" y="0"/>
      <point x="809" y="0"/>
    </contour>
    <contour>
      <point x="149" y="0" type="curve"/>
      <point x="276" y="240"/>
      <point x="398" y="482"/>
      <point x="526" y="722" type="curve"/>
      <point x="469" y="722"/>
      <point x="526" y="722"/>
      <point x="469" y="722" type="curve"/>
      <point x="340" y="481"/>
      <point x="209" y="241"/>
      <point x="81" y="0" type="curve"/>
      <point x="149" y="0"/>
      <point x="81" y="0"/>
    </contour>
    <contour>
      <point x="700" y="951" type="curve"/>
      <point x="684" y="901"/>
      <point x="662" y="858"/>
      <point x="613" y="858" type="curve"/>
      <point x="569" y="858"/>
      <point x="540" y="873"/>
      <point x="507" y="902" type="curve"/>
      <point x="467" y="936"/>
      <point x="436" y="955"/>
      <point x="385" y="955" type="curve"/>
      <point x="308" y="955"/>
      <point x="265" y="907"/>
      <point x="242" y="830" type="curve"/>
      <point x="289" y="810"/>
      <point x="242" y="830"/>
      <point x="289" y="810" type="curve"/>
      <point x="306" y="867"/>
      <point x="334" y="904"/>
      <point x="386" y="904" type="curve"/>
      <point x="427" y="904"/>
      <point x="450" y="887"/>
      <point x="481" y="861" type="curve"/>
      <point x="524" y="825"/>
      <point x="559" y="808"/>
      <point x="614" y="808" type="curve"/>
      <point x="689" y="808"/>
      <point x="725" y="860"/>
      <point x="750" y="933" type="curve"/>
      <point x="700" y="951"/>
      <point x="749" y="933"/>
    </contour>
  </outline>
</glyph>
<glyph name="Adieresis" format="1">
  <advance width="990"/>
  <unicode hex="00C4"/>
  <outline>
    <contour>
      <point x="130" y="49" type="curve"/>
      <point x="-20" y="49"/>
      <point x="132" y="49"/>
      <point x="-18" y="49" type="curve"/>
      <point x="-18" y="0"/>
      <point x="-18" y="49"/>
      <point x="-18" y="0" type="curve"/>
      <point x="32" y="0"/>
      <point x="80" y="0"/>
      <point x="130" y="0" type="curve"/>
      <point x="130" y="49"/>
      <point x="130" y="0"/>
    </contour>
    <contour>
      <point x="130" y="0" type="curve"/>
      <point x="188" y="0"/>
      <point x="129" y="0"/>
      <point x="300" y="0" type="curve"/>
      <point x="300" y="49"/>
      <point x="300" y="0"/>
      <point x="300" y="49" type="curve"/>
      <point x="129" y="49"/>
      <point x="302" y="49"/>
      <point x="130" y="49" type="curve"/>
      <point x="130" y="0"/>
      <point x="130" y="49"/>
    </contour>
    <contour>
      <point x="826" y="0" type="curve"/>
      <point x="877" y="0"/>
      <point x="925" y="0"/>
      <point x="975" y="0" type="curve"/>
      <point x="975" y="49"/>
      <point x="975" y="0"/>
      <point x="975" y="49" type="curve"/>
      <point x="825" y="49"/>
      <point x="977" y="49"/>
      <point x="826" y="49" type="curve"/>
      <point x="826" y="0"/>
      <point x="826" y="49"/>
    </contour>
    <contour>
      <point x="826" y="49" type="curve"/>
      <point x="655" y="49"/>
      <point x="828" y="49"/>
      <point x="657" y="49" type="curve"/>
      <point x="657" y="0"/>
      <point x="657" y="49"/>
      <point x="657" y="0" type="curve"/>
      <point x="714" y="0"/>
      <point x="769" y="0"/>
      <point x="826" y="0" type="curve"/>
      <point x="826" y="49"/>
      <point x="826" y="0"/>
    </contour>
    <contour>
      <point x="706" y="288" type="curve"/>
      <point x="562" y="288"/>
      <point x="417" y="288"/>
      <point x="273" y="288" type="curve"/>
      <point x="247" y="236"/>
      <point x="273" y="288"/>
      <point x="247" y="236" type="curve"/>
      <point x="406" y="236"/>
      <point x="566" y="236"/>
      <point x="727" y="236" type="curve"/>
      <point x="706" y="288"/>
      <point x="727" y="236"/>
    </contour>
    <contour>
      <point x="874" y="0" type="curve"/>
      <point x="759" y="241"/>
      <point x="643" y="481"/>
      <point x="528" y="722" type="curve"/>
      <point x="471" y="722"/>
      <point x="528" y="722"/>
      <point x="471" y="722" type="curve"/>
      <point x="585" y="482"/>
      <point x="696" y="240"/>
      <point x="809" y="0" type="curve"/>
      <point x="874" y="0"/>
      <point x="809" y="0"/>
    </contour>
    <contour>
      <point x="149" y="0" type="curve"/>
      <point x="276" y="240"/>
      <point x="398" y="482"/>
      <point x="526" y="722" type="curve"/>
      <point x="469" y="722"/>
      <point x="526" y="722"/>
      <point x="469" y="722" type="curve"/>
      <point x="340" y="481"/>
      <point x="209" y="241"/>
      <point x="81" y="0" type="curve"/>
      <point x="149" y="0"/>
      <point x="81" y="0"/>
    </contour>
    <contour>
      <point x="448" y="845" type="curve"/>
      <point x="448" y="868"/>
      <point x="431" y="880"/>
      <point x="407" y="880" type="curve"/>
      <point x="384" y="880"/>
      <point x="368" y="867"/>
      <point x="368" y="845" type="curve"/>
      <point x="432" y="845"/>
      <point x="383" y="845"/>
      <point x="448" y="845" type="curve"/>
      <point x="448" y="823"/>
      <point x="431" y="811"/>
      <point x="407" y="811" type="curve"/>
      <point x="384" y="811"/>
      <point x="368" y="824"/>
      <point x="368" y="845" type="curve"/>
      <point x="432" y="845"/>
      <point x="383" y="845"/>
    </contour>
    <contour>
      <point x="625" y="845" type="curve"/>
      <point x="625" y="868"/>
      <point x="608" y="880"/>
      <point x="584" y="880" type="curve"/>
      <point x="561" y="880"/>
      <point x="546" y="867"/>
      <point x="546" y="845" type="curve"/>
      <point x="609" y="845"/>
      <point x="561" y="845"/>
      <point x="625" y="845" type="curve"/>
      <point x="625" y="823"/>
      <point x="608" y="811"/>
      <point x="584" y="811" type="curve"/>
      <point x="561" y="811"/>
      <point x="546" y="824"/>
      <point x="546" y="845" type="curve"/>
      <point x="609" y="845"/>
      <point x="561" y="845"/>
    </contour>
  </outline>
</glyph>
<glyph name="AE" format="1">
  <advance width="1202"/>
  <unicode hex="00C6"/>
  <outline>
    <contour>
      <point x="134" y="49" type="curve"/>
      <point x="-14" y="49"/>
      <point x="135" y="49"/>
      <point x="-14" y="49" type="curve"/>
      <point x="-14" y="0"/>
      <point x="-14" y="49"/>
      <point x="-14" y="0" type="curve"/>
      <point x="36" y="0"/>
      <point x="85" y="0"/>
      <point x="134" y="0" type="curve"/>
      <point x="134" y="49"/>
      <point x="134" y="0"/>
    </contour>
    <contour>
      <point x="134" y="0" type="curve"/>
      <point x="197" y="0"/>
      <point x="134" y="0"/>
      <point x="320" y="0" type="curve"/>
      <point x="320" y="49"/>
      <point x="320" y="0"/>
      <point x="320" y="49" type="curve"/>
      <point x="134" y="49"/>
      <point x="321" y="49"/>
      <point x="134" y="49" type="curve"/>
      <point x="134" y="0"/>
      <point x="134" y="49"/>
    </contour>
    <contour>
      <point x="601" y="256" type="curve"/>
      <point x="455" y="256"/>
      <point x="424" y="256"/>
      <point x="279" y="256" type="curve"/>
      <point x="253" y="205"/>
      <point x="279" y="256"/>
      <point x="253" y="205" type="curve"/>
      <point x="414" y="205"/>
      <point x="460" y="205"/>
      <point x="620" y="205" type="curve"/>
      <point x="601" y="256"/>
      <point x="620" y="205"/>
    </contour>
    <contour>
      <point x="153" y="0" type="curve"/>
      <point x="649" y="722" type="line"/>
      <point x="592" y="722"/>
      <point x="644" y="722"/>
      <point x="588" y="722" type="curve"/>
      <point x="84" y="0" type="line"/>
      <point x="152" y="0"/>
      <point x="86" y="0"/>
    </contour>
    <contour>
      <point x="1152" y="24" type="curve"/>
      <point x="1152" y="144"/>
      <point x="1152" y="24"/>
      <point x="1152" y="144" type="curve"/>
      <point x="1102" y="144"/>
      <point x="1152" y="144"/>
      <point x="1102" y="144" type="curve"/>
      <point x="1102" y="24"/>
      <point x="1102" y="144"/>
      <point x="1102" y="24" type="curve"/>
      <point x="1152" y="24"/>
      <point x="1102" y="24"/>
    </contour>
    <contour>
      <point x="1059" y="698" type="curve"/>
      <point x="1059" y="578"/>
      <point x="1059" y="698"/>
      <point x="1059" y="578" type="curve"/>
      <point x="1110" y="578"/>
      <point x="1059" y="578"/>
      <point x="1110" y="578" type="curve"/>
      <point x="1110" y="698"/>
      <point x="1110" y="578"/>
      <point x="1110" y="698" type="curve"/>
      <point x="1059" y="698"/>
      <point x="1110" y="698"/>
    </contour>
    <contour>
      <point x="607" y="49" type="curve"/>
      <point x="444" y="49"/>
      <point x="609" y="49"/>
      <point x="445" y="49" type="curve"/>
      <point x="445" y="0"/>
      <point x="445" y="49"/>
      <point x="445" y="0" type="curve"/>
      <point x="499" y="0"/>
      <point x="553" y="0"/>
      <point x="607" y="0" type="curve"/>
      <point x="607" y="49"/>
      <point x="607" y="0"/>
    </contour>
    <contour>
      <point x="607" y="722" type="curve"/>
      <point x="553" y="722"/>
      <point x="499" y="722"/>
      <point x="445" y="722" type="curve"/>
      <point x="445" y="673"/>
      <point x="445" y="722"/>
      <point x="445" y="673" type="curve"/>
      <point x="609" y="673"/>
      <point x="444" y="673"/>
      <point x="607" y="673" type="curve"/>
      <point x="607" y="722"/>
      <point x="607" y="673"/>
    </contour>
    <contour>
      <point x="611" y="349" type="curve"/>
      <point x="750" y="349"/>
      <point x="890" y="349"/>
      <point x="1029" y="349" type="curve"/>
      <point x="1029" y="398"/>
      <point x="1029" y="349"/>
      <point x="1029" y="398" type="curve"/>
      <point x="890" y="398"/>
      <point x="750" y="398"/>
      <point x="611" y="398" type="curve"/>
      <point x="611" y="349"/>
      <point x="611" y="398"/>
    </contour>
    <contour>
      <point x="592" y="673" type="curve"/>
      <point x="764" y="673"/>
      <point x="937" y="673"/>
      <point x="1110" y="673" type="curve"/>
      <point x="1110" y="722"/>
      <point x="1110" y="673"/>
      <point x="1110" y="722" type="curve"/>
      <point x="937" y="722"/>
      <point x="764" y="722"/>
      <point x="592" y="722" type="curve"/>
      <point x="592" y="673"/>
      <point x="592" y="722"/>
    </contour>
    <contour>
      <point x="637" y="0" type="curve"/>
      <point x="637" y="722" type="line"/>
      <point x="574" y="722"/>
      <point x="637" y="722"/>
      <point x="574" y="722" type="curve"/>
      <point x="574" y="481"/>
      <point x="574" y="241"/>
      <point x="574" y="0" type="curve"/>
      <point x="637" y="0"/>
      <point x="574" y="0"/>
    </contour>
    <contour>
      <point x="592" y="0" type="curve"/>
      <point x="779" y="0"/>
      <point x="965" y="0"/>
      <point x="1152" y="0" type="curve"/>
      <point x="1152" y="49"/>
      <point x="1152" y="0"/>
      <point x="1152" y="49" type="curve"/>
      <point x="965" y="49"/>
      <point x="779" y="49"/>
      <point x="592" y="49" type="curve"/>
      <point x="592" y="0"/>
      <point x="592" y="49"/>
    </contour>
  </outline>
</glyph>
